<svg id="Layer_1" data-name="Layer 1" xmlns="http://www.w3.org/2000/svg" viewBox="0 0 302.5 365.48"><path d="M805.24,303.34H776.73a3.1,3.1,0,0,1-3.1-3.1v-20h0a36.47,36.47,0,0,0,6.65-20.87c0-18.23-13.79-33.62-32.6-38.37a3.09,3.09,0,0,1-2.23-3.89,27.15,27.15,0,0,0,1.1-7.62c0-16.53-15.11-29.93-33.73-29.93a36.88,36.88,0,0,0-16.37,3.77,3.07,3.07,0,0,1-3.87-.93c-10-13.73-27.42-22.8-47.22-22.8-31.06,0-56.21,22.33-56.21,49.89v.26a3.09,3.09,0,0,1-2,3c-18.58,6.64-31.71,22.79-31.71,41.67a40.81,40.81,0,0,0,7,22.82,3.15,3.15,0,0,1,.52,2c0,.33-.05.67-.05,1v231c0,7.65,7.07,13.85,15.8,13.85H757.83c8.73,0,15.8-6.2,15.8-13.85V489a3.09,3.09,0,0,1,2-2.89l51.11-20c19-7.42,31.21-24,31.21-42.19V349.53C857.92,324.06,834.29,303.34,805.24,303.34ZM646,309.49a19.54,19.54,0,0,1-19.5,19.58h0A19.54,19.54,0,0,1,607,309.49V281.42a15,15,0,0,0-15-15h-13.2a3.2,3.2,0,0,1-3-2.11,30.39,30.39,0,0,1-1.79-10.3c0-14.84,10.67-27.54,25.8-32.82a2.75,2.75,0,0,0,1.84-2.59v0c0-21.75,20.62-39.37,46.08-39.37,16.06,0,30.19,7,38.45,17.68a3.1,3.1,0,0,0,3.75.89,31.21,31.21,0,0,1,13.09-2.82c15.26,0,27.64,10.58,27.64,23.62a20.37,20.37,0,0,1-.73,5.42,3.12,3.12,0,0,0,2.24,3.81c15.12,3.92,26.14,15.94,26.14,30.14a26.65,26.65,0,0,1-.71,6.14,3.06,3.06,0,0,1-3,2.33H741.39a11.3,11.3,0,0,0-11.3,11.31v4.25c0,12.28-8.81,22.23-19.67,22.23s-19.67-9.95-19.67-22.23v-9.51a6.05,6.05,0,0,0-6-6.05H659.82A13.87,13.87,0,0,0,646,280.25ZM815.77,423.94a9.27,9.27,0,0,1-6.24,8.44l-31.67,12.39a3.1,3.1,0,0,1-4.23-2.88V343.4a3.1,3.1,0,0,1,3.1-3.11h28.51c5.81,0,10.53,4.15,10.53,9.24Z" transform="translate(-555.42 -159.59)"/></svg>