<svg id="Layer_1" data-name="Layer 1" xmlns="http://www.w3.org/2000/svg" viewBox="0 0 1366 768"><path d="M807.13,766.51,804.31,768h11.11l-2.83-1.49A5.92,5.92,0,0,0,807.13,766.51Z"/><path d="M18,762.38a5.86,5.86,0,0,0-1.68-5.19L1.59,742.87a2.33,2.33,0,0,1,1.29-4l20.31-3a5.86,5.86,0,0,0,4.42-3.2l9.08-18.41a2.34,2.34,0,0,1,4.18,0L50,732.74a5.82,5.82,0,0,0,4.41,3.2l20.31,3a2.33,2.33,0,0,1,1.29,4L61.27,757.19a5.89,5.89,0,0,0-1.69,5.19l1,5.62h43l.15-.26,9.08-18.41a2.34,2.34,0,0,1,4.18,0L126,767.74l.15.26h44l1-5.69a5.85,5.85,0,0,0-1.69-5.19l-14.69-14.33a2.33,2.33,0,0,1,1.29-4l20.31-3a5.86,5.86,0,0,0,4.41-3.21l9.08-18.4a2.33,2.33,0,0,1,4.18,0l9.08,18.4a5.89,5.89,0,0,0,4.42,3.21l20.31,3a2.33,2.33,0,0,1,1.29,4l-14.7,14.33a5.84,5.84,0,0,0-1.68,5.19l1,5.69h42.79l.15-.26,9.08-18.41a2.34,2.34,0,0,1,4.18,0L279,767.74l.15.26h42.47l2.52-14.69a5.85,5.85,0,0,0-1.69-5.19l-14.69-14.33a2.33,2.33,0,0,1,1.29-4l20.31-3a5.86,5.86,0,0,0,4.41-3.21l9.08-18.4a2.33,2.33,0,0,1,4.18,0l9.08,18.4a5.89,5.89,0,0,0,4.42,3.21l20.31,3a2.33,2.33,0,0,1,1.29,4l-14.7,14.33a5.84,5.84,0,0,0-1.68,5.19L368.3,768h41.24l.15-.26,9.08-18.41a2.34,2.34,0,0,1,4.18,0L432,767.74l.15.26h42.47l2.52-14.69a5.85,5.85,0,0,0-1.69-5.19l-14.69-14.33a2.33,2.33,0,0,1,1.29-4l20.31-3a5.86,5.86,0,0,0,4.41-3.21l9.08-18.4a2.33,2.33,0,0,1,4.18,0l9.08,18.4a5.89,5.89,0,0,0,4.42,3.21l20.31,3a2.33,2.33,0,0,1,1.29,4l-14.7,14.33a5.84,5.84,0,0,0-1.68,5.19L521.3,768h41.75l8.72-17.67a2.34,2.34,0,0,1,4.18,0L584.67,768h44.42l1-5.62a5.89,5.89,0,0,0-1.69-5.19l-14.69-14.32a2.33,2.33,0,0,1,1.29-4l20.3-3a5.84,5.84,0,0,0,4.42-3.2l9.08-18.41a2.34,2.34,0,0,1,4.18,0L662,732.74a5.86,5.86,0,0,0,4.42,3.2l20.31,3a2.33,2.33,0,0,1,1.29,4l-14.7,14.32a5.86,5.86,0,0,0-1.68,5.19l1,5.62h48.91l.15-.26,9.08-18.41a2.34,2.34,0,0,1,4.18,0L744,767.74l.15.26h42.37l2.51-14.62a5.89,5.89,0,0,0-1.69-5.19l-14.69-14.32a2.33,2.33,0,0,1,1.29-4l20.3-3a5.84,5.84,0,0,0,4.42-3.2l9.08-18.41a2.34,2.34,0,0,1,4.18,0L821,723.74a5.86,5.86,0,0,0,4.42,3.2l20.31,3a2.33,2.33,0,0,1,1.29,4l-14.7,14.32a5.86,5.86,0,0,0-1.68,5.19l2.5,14.62h42.37l.15-.26,9.08-18.41a2.34,2.34,0,0,1,4.18,0L898,767.74l.15.26h43.74l1.14-6.62a5.89,5.89,0,0,0-1.69-5.19l-14.69-14.32a2.33,2.33,0,0,1,1.29-4l20.3-3a5.84,5.84,0,0,0,4.42-3.2l9.08-18.41a2.34,2.34,0,0,1,4.18,0L975,731.74a5.86,5.86,0,0,0,4.42,3.2l20.31,3a2.33,2.33,0,0,1,1.29,4l-14.7,14.32a5.86,5.86,0,0,0-1.68,5.19L985.8,768h47.71l5.26-10.67a2.34,2.34,0,0,1,4.18,0l5.26,10.67h46.88l1-5.62a5.89,5.89,0,0,0-1.69-5.19l-14.69-14.32a2.33,2.33,0,0,1,1.29-4l20.3-3a5.84,5.84,0,0,0,4.42-3.2l9.08-18.41a2.34,2.34,0,0,1,4.18,0l9.08,18.41a5.86,5.86,0,0,0,4.42,3.2l20.31,3a2.33,2.33,0,0,1,1.29,4l-14.7,14.32a5.86,5.86,0,0,0-1.68,5.19l1,5.62h47.88l5.26-10.67a2.34,2.34,0,0,1,4.18,0l5.26,10.67h48.92a5.87,5.87,0,0,0-1.76-3.81l-14.69-14.32a2.33,2.33,0,0,1,1.29-4l20.3-3a5.84,5.84,0,0,0,4.42-3.2l9.08-18.41a2.34,2.34,0,0,1,4.18,0l9.08,18.41a5.86,5.86,0,0,0,4.42,3.2l20.31,3a2.33,2.33,0,0,1,1.29,4l-14.7,14.32a5.86,5.86,0,0,0-1.75,3.81H1341l4.77-9.67a2.34,2.34,0,0,1,4.18,0l4.77,9.67H1366V747.48l-15.3-8a5.86,5.86,0,0,0-5.46,0L1327.08,749a2.33,2.33,0,0,1-3.38-2.45l3.47-20.22a5.85,5.85,0,0,0-1.69-5.19l-14.69-14.33a2.33,2.33,0,0,1,1.29-4l20.31-3a5.86,5.86,0,0,0,4.41-3.21l9.08-18.4a2.33,2.33,0,0,1,4.18,0l9.08,18.4a5.89,5.89,0,0,0,4.42,3.21l2.44.35V667.75l-15.52-8.16a5.86,5.86,0,0,0-5.46,0l-18.16,9.55a2.33,2.33,0,0,1-3.38-2.45l3.47-20.23a5.89,5.89,0,0,0-1.69-5.19L1310.56,627a2.33,2.33,0,0,1,1.29-4l20.31-3a5.89,5.89,0,0,0,4.42-3.21l9.08-18.4a2.33,2.33,0,0,1,4.18,0l9.08,18.4a5.89,5.89,0,0,0,4.42,3.21l2.66.39v-33l-15.24-8a5.86,5.86,0,0,0-5.46,0l-18.17,9.54a2.32,2.32,0,0,1-3.37-2.45l3.46-20.22a5.84,5.84,0,0,0-1.68-5.19l-14.7-14.33a2.33,2.33,0,0,1,1.29-4l20.31-2.95a5.89,5.89,0,0,0,4.42-3.21l9.08-18.4a2.33,2.33,0,0,1,4.18,0l9.08,18.4a5.86,5.86,0,0,0,4.41,3.21l2.39.34V507.68l-15.47-8.13a5.9,5.9,0,0,0-5.45,0l-18.17,9.55a2.33,2.33,0,0,1-3.38-2.45l3.47-20.23a5.86,5.86,0,0,0-1.68-5.19l-14.7-14.32a2.33,2.33,0,0,1,1.29-4l20.31-2.95a5.81,5.81,0,0,0,4.41-3.21l9.09-18.4a2.32,2.32,0,0,1,4.17,0l9.09,18.41a5.82,5.82,0,0,0,4.41,3.2l2.61.38V427.55l-15.36-8.08a5.87,5.87,0,0,0-5.45,0L1327,429a2.31,2.31,0,0,1-2.45-.17,2.34,2.34,0,0,1-.93-2.28l3.47-20.22a5.87,5.87,0,0,0-1.68-5.2l-14.7-14.32a2.35,2.35,0,0,1-.59-2.39,2.32,2.32,0,0,1,1.88-1.58l20.31-3a5.86,5.86,0,0,0,4.42-3.2l9.08-18.41a2.33,2.33,0,0,1,4.17,0l9.09,18.41a5.82,5.82,0,0,0,4.41,3.2l2.5.37V347.82l-15.58-8.19a5.86,5.86,0,0,0-5.46,0l-18.16,9.55a2.33,2.33,0,0,1-3.38-2.46l3.47-20.22a5.84,5.84,0,0,0-1.69-5.19L1310.51,307a2.33,2.33,0,0,1,1.29-4l20.31-2.95a5.86,5.86,0,0,0,4.41-3.21l9.08-18.4a2.33,2.33,0,0,1,4.18,0l9.09,18.4a5.86,5.86,0,0,0,4.41,3.21l2.72.4V267.65l-15.63-8.21a5.86,5.86,0,0,0-5.46,0L1326.75,269a2.32,2.32,0,0,1-3.38-2.45l3.47-20.22a5.87,5.87,0,0,0-1.69-5.19l-14.7-14.33a2.33,2.33,0,0,1,1.29-4l20.31-2.95a5.89,5.89,0,0,0,4.42-3.21l9.08-18.4a2.33,2.33,0,0,1,4.18,0l9.08,18.4a5.88,5.88,0,0,0,4.41,3.21l2.78.4V187.93l-15.86-8.34a5.84,5.84,0,0,0-5.45,0l-18.17,9.55a2.33,2.33,0,0,1-3.38-2.45l3.47-20.23a5.86,5.86,0,0,0-1.68-5.19L1310.23,147a2.33,2.33,0,0,1,1.29-4l20.31-2.95a5.89,5.89,0,0,0,4.42-3.21l9.08-18.4a2.32,2.32,0,0,1,4.17,0l9.09,18.4A5.86,5.86,0,0,0,1363,140l3,.44V107.79l-15.74-8.28a5.92,5.92,0,0,0-5.46,0l-18.17,9.55a2.32,2.32,0,0,1-3.37-2.45l3.46-20.23a5.86,5.86,0,0,0-1.68-5.19l-14.7-14.32a2.33,2.33,0,0,1,1.29-4l20.31-3a5.86,5.86,0,0,0,4.42-3.2l9.08-18.41a2.34,2.34,0,0,1,4.18,0l9.08,18.41a5.82,5.82,0,0,0,4.41,3.2l2.89.42V28.06l-16-8.39a5.84,5.84,0,0,0-5.45,0l-18.17,9.55a2.33,2.33,0,0,1-3.38-2.46l3.47-20.22a5.86,5.86,0,0,0-1.68-5.19L1323.43,0H1216.16l-.36.35a5.84,5.84,0,0,0-1.69,5.19l3.47,20.22a2.33,2.33,0,0,1-3.38,2.46L1196,18.67a5.84,5.84,0,0,0-5.45,0l-18.17,9.55a2.33,2.33,0,0,1-3.38-2.46l3.47-20.22a5.86,5.86,0,0,0-1.68-5.19l-.36-.35h-49l6.29,12.74a5.82,5.82,0,0,0,4.41,3.2l20.31,3a2.33,2.33,0,0,1,1.29,4L1139,37.19a5.89,5.89,0,0,0-1.69,5.19l3.47,20.23a2.33,2.33,0,0,1-3.38,2.45l-18.16-9.55a5.92,5.92,0,0,0-5.46,0l-18.17,9.55a2.32,2.32,0,0,1-3.37-2.45l3.46-20.23a5.86,5.86,0,0,0-1.68-5.19l-14.7-14.32a2.33,2.33,0,0,1,1.29-4l20.31-3a5.86,5.86,0,0,0,4.42-3.2L1111.64,0h-48.48l-.36.35a5.84,5.84,0,0,0-1.69,5.19l3.47,20.22a2.33,2.33,0,0,1-3.38,2.46L1043,18.67a5.84,5.84,0,0,0-5.45,0l-18.17,9.55a2.33,2.33,0,0,1-3.38-2.46l3.47-20.22a5.86,5.86,0,0,0-1.68-5.19l-.36-.35H968.91l5.79,11.74a5.82,5.82,0,0,0,4.41,3.2l20.31,3a2.33,2.33,0,0,1,1.29,4L986,36.19a5.89,5.89,0,0,0-1.69,5.19l3.47,20.23a2.33,2.33,0,0,1-3.38,2.45l-18.16-9.55a5.92,5.92,0,0,0-5.46,0l-18.17,9.55a2.32,2.32,0,0,1-3.37-2.45l3.46-20.23A5.86,5.86,0,0,0,941,36.19l-14.7-14.32a2.33,2.33,0,0,1,1.29-4l20.31-3a5.86,5.86,0,0,0,4.42-3.2L958.15,0H907.53l3.05,17.76a2.33,2.33,0,0,1-3.38,2.46L889,10.67a5.84,5.84,0,0,0-5.45,0l-18.17,9.55A2.33,2.33,0,0,1,862,17.76L865.08,0H818.85l1.85,3.74a5.82,5.82,0,0,0,4.41,3.2l20.31,3a2.33,2.33,0,0,1,1.29,4L832,28.19a5.89,5.89,0,0,0-1.69,5.19l3.47,20.23a2.33,2.33,0,0,1-3.38,2.45l-18.16-9.55a5.92,5.92,0,0,0-5.46,0l-18.17,9.55a2.32,2.32,0,0,1-3.37-2.45l3.46-20.23A5.86,5.86,0,0,0,787,28.19l-14.7-14.32a2.33,2.33,0,0,1,1.29-4l20.31-3a5.86,5.86,0,0,0,4.42-3.2L800.2,0H753.53l3.05,17.76a2.33,2.33,0,0,1-3.38,2.46L735,10.67a5.84,5.84,0,0,0-5.45,0l-18.17,9.55A2.33,2.33,0,0,1,708,17.76L711.08,0H655.41l6.29,12.74a5.82,5.82,0,0,0,4.41,3.2l20.31,3a2.33,2.33,0,0,1,1.29,4L673,37.19a5.89,5.89,0,0,0-1.69,5.19l3.47,20.23a2.33,2.33,0,0,1-3.38,2.45l-18.16-9.55a5.92,5.92,0,0,0-5.46,0l-18.17,9.55a2.32,2.32,0,0,1-3.37-2.45l3.46-20.23A5.86,5.86,0,0,0,628,37.19l-14.7-14.32a2.33,2.33,0,0,1,1.29-4l20.31-3a5.86,5.86,0,0,0,4.42-3.2L645.64,0H594.36l3.22,18.76a2.33,2.33,0,0,1-3.38,2.46L576,11.67a5.84,5.84,0,0,0-5.45,0l-18.17,9.55A2.33,2.33,0,0,1,549,18.76L552.25,0h-45.7l1.93,3.89a5.86,5.86,0,0,0,4.41,3.21l20.31,3a2.33,2.33,0,0,1,1.29,4L519.8,28.35a5.84,5.84,0,0,0-1.69,5.19l3.47,20.22a2.33,2.33,0,0,1-3.38,2.46L500,46.67a5.84,5.84,0,0,0-5.45,0l-18.17,9.55A2.33,2.33,0,0,1,473,53.76l3.47-20.22a5.86,5.86,0,0,0-1.68-5.19L460.12,14a2.33,2.33,0,0,1,1.29-4l20.31-3a5.86,5.86,0,0,0,4.41-3.21L488.05,0H441.53l3.05,17.76a2.33,2.33,0,0,1-3.38,2.46L423,10.67a5.84,5.84,0,0,0-5.45,0l-18.17,9.55A2.33,2.33,0,0,1,396,17.76L399.08,0H353.55l1.93,3.89a5.86,5.86,0,0,0,4.41,3.21l20.31,3a2.33,2.33,0,0,1,1.29,4L366.8,28.35a5.84,5.84,0,0,0-1.69,5.19l3.47,20.22a2.33,2.33,0,0,1-3.38,2.46L347,46.67a5.84,5.84,0,0,0-5.45,0l-18.17,9.55A2.33,2.33,0,0,1,320,53.76l3.47-20.22a5.86,5.86,0,0,0-1.68-5.19L307.12,14a2.33,2.33,0,0,1,1.29-4l20.31-3a5.86,5.86,0,0,0,4.41-3.21L335.05,0H288.53l3.05,17.76a2.33,2.33,0,0,1-3.38,2.46L270,10.67a5.84,5.84,0,0,0-5.45,0l-18.17,9.55A2.33,2.33,0,0,1,243,17.76L246.08,0h-50l6.37,12.89a5.86,5.86,0,0,0,4.41,3.21l20.31,2.95a2.33,2.33,0,0,1,1.29,4L213.8,37.35a5.84,5.84,0,0,0-1.69,5.19l3.47,20.22a2.33,2.33,0,0,1-3.38,2.46L194,55.67a5.84,5.84,0,0,0-5.45,0l-18.17,9.55A2.33,2.33,0,0,1,167,62.76l3.47-20.22a5.86,5.86,0,0,0-1.68-5.19L154.12,23a2.33,2.33,0,0,1,1.29-4l20.31-2.95a5.86,5.86,0,0,0,4.41-3.21L186.5,0h-51l3.05,17.76a2.33,2.33,0,0,1-3.38,2.46L117,10.67a5.84,5.84,0,0,0-5.45,0L93.41,20.22A2.33,2.33,0,0,1,90,17.76L93.08,0H42.88l6.4,13a5.89,5.89,0,0,0,4.42,3.21L74,19.13a2.33,2.33,0,0,1,1.29,4L60.6,37.43a5.86,5.86,0,0,0-1.68,5.19l3.46,20.22A2.33,2.33,0,0,1,59,65.3L40.84,55.75a5.86,5.86,0,0,0-5.46,0L17.22,65.3a2.33,2.33,0,0,1-3.38-2.46l3.47-20.22a5.89,5.89,0,0,0-1.69-5.19L.93,23.1a2.3,2.3,0,0,1-.59-2.38,2.32,2.32,0,0,1,1.88-1.59l20.3-2.95A5.87,5.87,0,0,0,26.94,13l6.4-13H0V768H17Zm500.64-249,3.47,20.23a2.33,2.33,0,0,1-3.38,2.45l-18.17-9.55a5.9,5.9,0,0,0-5.45,0l-18.17,9.55a2.33,2.33,0,0,1-3.38-2.45L477,513.42a5.86,5.86,0,0,0-1.68-5.19l-14.7-14.32a2.33,2.33,0,0,1,1.29-4L482.22,487a5.81,5.81,0,0,0,4.41-3.21l9.09-18.4a2.32,2.32,0,0,1,4.17,0L509,483.78a5.82,5.82,0,0,0,4.41,3.2l20.31,2.95a2.33,2.33,0,0,1,1.29,4L520.3,508.23A5.84,5.84,0,0,0,518.61,513.42Zm16.49-99.59-14.69,14.32a5.89,5.89,0,0,0-1.69,5.19l3.47,20.23a2.33,2.33,0,0,1-3.38,2.45l-18.17-9.55a5.87,5.87,0,0,0-5.45,0L477,456a2.31,2.31,0,0,1-2.45-.17,2.34,2.34,0,0,1-.93-2.28l3.47-20.22a5.87,5.87,0,0,0-1.68-5.2l-14.7-14.32a2.35,2.35,0,0,1-.59-2.39,2.32,2.32,0,0,1,1.88-1.58l20.31-3a5.86,5.86,0,0,0,4.42-3.2l9.08-18.41a2.33,2.33,0,0,1,4.17,0l9.09,18.41a5.82,5.82,0,0,0,4.41,3.2l20.31,3a2.33,2.33,0,0,1,1.29,4ZM534.88,334l-14.69,14.32a5.84,5.84,0,0,0-1.69,5.19L522,373.73a2.33,2.33,0,0,1-3.38,2.45l-18.17-9.55a5.86,5.86,0,0,0-5.46,0l-18.16,9.55a2.33,2.33,0,0,1-3.38-2.46l3.47-20.22a5.84,5.84,0,0,0-1.69-5.19L460.51,334a2.33,2.33,0,0,1,1.29-4l20.31-2.95a5.86,5.86,0,0,0,4.41-3.21l9.08-18.4a2.33,2.33,0,0,1,4.18,0l9.09,18.4a5.86,5.86,0,0,0,4.41,3.21L533.59,330a2.33,2.33,0,0,1,1.29,4Zm.06,320-14.7,14.32a5.89,5.89,0,0,0-1.69,5.19L522,693.69a2.33,2.33,0,0,1-3.38,2.45l-18.16-9.55a5.86,5.86,0,0,0-5.46,0l-18.16,9.55a2.33,2.33,0,0,1-3.38-2.45L477,673.46a5.89,5.89,0,0,0-1.69-5.19L460.56,654a2.33,2.33,0,0,1,1.29-4l20.31-3a5.89,5.89,0,0,0,4.42-3.21l9.08-18.4a2.33,2.33,0,0,1,4.18,0l9.08,18.4a5.89,5.89,0,0,0,4.42,3.21l20.31,3a2.33,2.33,0,0,1,1.29,4Zm.27-80.2-14.69,14.33a5.87,5.87,0,0,0-1.69,5.19l3.47,20.22a2.33,2.33,0,0,1-3.38,2.46l-18.16-9.55a5.86,5.86,0,0,0-5.46,0l-18.17,9.54a2.32,2.32,0,0,1-3.37-2.45l3.46-20.22a5.84,5.84,0,0,0-1.68-5.19l-14.7-14.33a2.33,2.33,0,0,1,1.29-4l20.31-2.95a5.89,5.89,0,0,0,4.42-3.21l9.08-18.4a2.33,2.33,0,0,1,4.18,0l9.08,18.4a5.86,5.86,0,0,0,4.41,3.21l20.31,2.95a2.33,2.33,0,0,1,1.29,4Zm.76,42.81a2.36,2.36,0,0,1,1.88-1.59l20.31-3a5.89,5.89,0,0,0,4.42-3.21l9.08-18.4a2.33,2.33,0,0,1,4.18,0l9.08,18.4a5.89,5.89,0,0,0,4.42,3.21l20.31,3a2.33,2.33,0,0,1,1.29,4l-14.7,14.32a5.89,5.89,0,0,0-1.69,5.19L598,658.69a2.33,2.33,0,0,1-3.38,2.45l-18.16-9.55a5.86,5.86,0,0,0-5.46,0l-18.16,9.55a2.33,2.33,0,0,1-3.38-2.45L553,638.46a5.89,5.89,0,0,0-1.69-5.19L536.56,619A2.35,2.35,0,0,1,536,616.56Zm58.64-138.14,3.47,20.23a2.33,2.33,0,0,1-3.38,2.45l-18.17-9.55a5.9,5.9,0,0,0-5.45,0l-18.17,9.55a2.33,2.33,0,0,1-3.38-2.45L553,478.42a5.86,5.86,0,0,0-1.68-5.19l-14.7-14.32a2.33,2.33,0,0,1,1.29-4L558.22,452a5.81,5.81,0,0,0,4.41-3.21l9.09-18.4a2.32,2.32,0,0,1,4.17,0L585,448.78a5.82,5.82,0,0,0,4.41,3.2l20.31,2.95a2.33,2.33,0,0,1,1.29,4L596.3,473.23A5.84,5.84,0,0,0,594.61,478.42Zm16.55,220.37-14.7,14.33a5.84,5.84,0,0,0-1.68,5.19l3.46,20.22a2.32,2.32,0,0,1-3.37,2.45l-18.17-9.54a5.86,5.86,0,0,0-5.46,0L553.08,741a2.33,2.33,0,0,1-3.38-2.45l3.47-20.22a5.85,5.85,0,0,0-1.69-5.19l-14.69-14.33a2.33,2.33,0,0,1,1.29-4l20.31-3a5.86,5.86,0,0,0,4.41-3.21l9.08-18.4a2.33,2.33,0,0,1,4.18,0l9.08,18.4a5.89,5.89,0,0,0,4.42,3.21l20.31,3a2.33,2.33,0,0,1,1.29,4ZM613,580.56a2.36,2.36,0,0,1,1.88-1.59l20.31-3a5.89,5.89,0,0,0,4.42-3.21l9.08-18.4a2.33,2.33,0,0,1,4.18,0l9.08,18.4a5.89,5.89,0,0,0,4.42,3.21l20.31,3a2.33,2.33,0,0,1,1.29,4l-14.7,14.32a5.89,5.89,0,0,0-1.69,5.19L675,622.69a2.33,2.33,0,0,1-3.38,2.45l-18.16-9.55a5.86,5.86,0,0,0-5.46,0l-18.16,9.55a2.33,2.33,0,0,1-3.38-2.45L630,602.46a5.89,5.89,0,0,0-1.69-5.19L613.56,583A2.35,2.35,0,0,1,613,580.56Zm58.64-138.14,3.47,20.23a2.33,2.33,0,0,1-3.38,2.45l-18.17-9.55a5.9,5.9,0,0,0-5.45,0l-18.17,9.55a2.33,2.33,0,0,1-3.38-2.45L630,442.42a5.86,5.86,0,0,0-1.68-5.19l-14.7-14.32a2.33,2.33,0,0,1,1.29-4L635.22,416a5.81,5.81,0,0,0,4.41-3.21l9.09-18.4a2.32,2.32,0,0,1,4.17,0L662,412.78a5.82,5.82,0,0,0,4.41,3.2l20.31,2.95a2.33,2.33,0,0,1,1.29,4L673.3,437.23A5.84,5.84,0,0,0,671.61,442.42Zm16.55,220.37-14.7,14.33a5.84,5.84,0,0,0-1.68,5.19l3.46,20.22a2.32,2.32,0,0,1-3.37,2.45l-18.17-9.54a5.86,5.86,0,0,0-5.46,0L630.08,705a2.33,2.33,0,0,1-3.38-2.45l3.47-20.22a5.85,5.85,0,0,0-1.69-5.19l-14.69-14.33a2.33,2.33,0,0,1,1.29-4l20.31-3a5.86,5.86,0,0,0,4.41-3.21l9.08-18.4a2.33,2.33,0,0,1,4.18,0l9.08,18.4a5.89,5.89,0,0,0,4.42,3.21l20.31,3a2.33,2.33,0,0,1,1.29,4Zm65.45-185.37,3.47,20.23a2.33,2.33,0,0,1-3.38,2.45l-18.17-9.55a5.9,5.9,0,0,0-5.45,0l-18.17,9.55a2.33,2.33,0,0,1-3.38-2.45L712,477.42a5.86,5.86,0,0,0-1.68-5.19l-14.7-14.32a2.33,2.33,0,0,1,1.29-4L717.22,451a5.81,5.81,0,0,0,4.41-3.21l9.09-18.4a2.32,2.32,0,0,1,4.17,0L744,447.78a5.82,5.82,0,0,0,4.41,3.2l20.31,2.95a2.33,2.33,0,0,1,1.29,4L755.3,472.23A5.84,5.84,0,0,0,753.61,477.42ZM695,615.56a2.36,2.36,0,0,1,1.88-1.59l20.31-3a5.89,5.89,0,0,0,4.42-3.21l9.08-18.4a2.33,2.33,0,0,1,4.18,0l9.08,18.4a5.89,5.89,0,0,0,4.42,3.21l20.31,3a2.33,2.33,0,0,1,1.29,4l-14.7,14.32a5.89,5.89,0,0,0-1.69,5.19L757,657.69a2.33,2.33,0,0,1-3.38,2.45l-18.16-9.55a5.86,5.86,0,0,0-5.46,0l-18.16,9.55a2.33,2.33,0,0,1-3.38-2.45L712,637.46a5.89,5.89,0,0,0-1.69-5.19L695.56,618A2.35,2.35,0,0,1,695,615.56Zm75.19,82.23-14.7,14.33a5.84,5.84,0,0,0-1.68,5.19l3.46,20.22a2.32,2.32,0,0,1-3.37,2.45l-18.17-9.54a5.86,5.86,0,0,0-5.46,0L712.08,740a2.33,2.33,0,0,1-3.38-2.45l3.47-20.22a5.85,5.85,0,0,0-1.69-5.19l-14.69-14.33a2.33,2.33,0,0,1,1.29-4l20.31-3a5.86,5.86,0,0,0,4.41-3.21l9.08-18.4a2.33,2.33,0,0,1,4.18,0l9.08,18.4a5.89,5.89,0,0,0,4.42,3.21l20.31,3a2.33,2.33,0,0,1,1.29,4ZM772,571.56a2.36,2.36,0,0,1,1.88-1.59l20.31-3a5.89,5.89,0,0,0,4.42-3.21l9.08-18.4a2.33,2.33,0,0,1,4.18,0l9.08,18.4a5.89,5.89,0,0,0,4.42,3.21l20.31,3a2.33,2.33,0,0,1,1.29,4l-14.7,14.32a5.89,5.89,0,0,0-1.69,5.19L834,613.69a2.33,2.33,0,0,1-3.38,2.45l-18.16-9.55a5.86,5.86,0,0,0-5.46,0l-18.16,9.55a2.33,2.33,0,0,1-3.38-2.45L789,593.46a5.89,5.89,0,0,0-1.69-5.19L772.56,574A2.35,2.35,0,0,1,772,571.56Zm58.64-138.14,3.47,20.23a2.33,2.33,0,0,1-3.38,2.45l-18.17-9.55a5.9,5.9,0,0,0-5.45,0l-18.17,9.55a2.33,2.33,0,0,1-3.38-2.45L789,433.42a5.86,5.86,0,0,0-1.68-5.19l-14.7-14.32a2.33,2.33,0,0,1,1.29-4L794.22,407a5.81,5.81,0,0,0,4.41-3.21l9.09-18.4a2.32,2.32,0,0,1,4.17,0L821,403.78a5.82,5.82,0,0,0,4.41,3.2l20.31,2.95a2.33,2.33,0,0,1,1.29,4L832.3,428.23A5.84,5.84,0,0,0,830.61,433.42Zm16.55,220.37-14.7,14.33a5.84,5.84,0,0,0-1.68,5.19l3.46,20.22a2.32,2.32,0,0,1-3.37,2.45l-18.17-9.54a5.86,5.86,0,0,0-5.46,0L789.08,696a2.33,2.33,0,0,1-3.38-2.45l3.47-20.22a5.85,5.85,0,0,0-1.69-5.19l-14.69-14.33a2.33,2.33,0,0,1,1.29-4l20.31-3a5.86,5.86,0,0,0,4.41-3.21l9.08-18.4a2.33,2.33,0,0,1,4.18,0l9.08,18.4a5.89,5.89,0,0,0,4.42,3.21l20.31,3a2.33,2.33,0,0,1,1.29,4Zm60.45-176.37,3.47,20.23a2.33,2.33,0,0,1-3.38,2.45l-18.17-9.55a5.9,5.9,0,0,0-5.45,0l-18.17,9.55a2.33,2.33,0,0,1-3.38-2.45L866,477.42a5.86,5.86,0,0,0-1.68-5.19l-14.7-14.32a2.33,2.33,0,0,1,1.29-4L871.22,451a5.81,5.81,0,0,0,4.41-3.21l9.09-18.4a2.32,2.32,0,0,1,4.17,0L898,447.78a5.82,5.82,0,0,0,4.41,3.2l20.31,2.95a2.33,2.33,0,0,1,1.29,4L909.3,472.23A5.84,5.84,0,0,0,907.61,477.42ZM849,615.56a2.36,2.36,0,0,1,1.88-1.59l20.31-3a5.89,5.89,0,0,0,4.42-3.21l9.08-18.4a2.33,2.33,0,0,1,4.18,0l9.08,18.4a5.89,5.89,0,0,0,4.42,3.21l20.31,3a2.33,2.33,0,0,1,1.29,4l-14.7,14.32a5.89,5.89,0,0,0-1.69,5.19L911,657.69a2.33,2.33,0,0,1-3.38,2.45l-18.16-9.55a5.86,5.86,0,0,0-5.46,0l-18.16,9.55a2.33,2.33,0,0,1-3.38-2.45L866,637.46a5.89,5.89,0,0,0-1.69-5.19L849.56,618A2.35,2.35,0,0,1,849,615.56Zm75.19,82.23-14.7,14.33a5.84,5.84,0,0,0-1.68,5.19l3.46,20.22a2.32,2.32,0,0,1-3.37,2.45l-18.17-9.54a5.86,5.86,0,0,0-5.46,0L866.08,740a2.33,2.33,0,0,1-3.38-2.45l3.47-20.22a5.85,5.85,0,0,0-1.69-5.19l-14.69-14.33a2.33,2.33,0,0,1,1.29-4l20.31-3a5.86,5.86,0,0,0,4.41-3.21l9.08-18.4a2.33,2.33,0,0,1,4.18,0l9.08,18.4a5.89,5.89,0,0,0,4.42,3.21l20.31,3a2.33,2.33,0,0,1,1.29,4ZM926,579.56a2.36,2.36,0,0,1,1.88-1.59l20.31-3a5.89,5.89,0,0,0,4.42-3.21l9.08-18.4a2.33,2.33,0,0,1,4.18,0l9.08,18.4a5.89,5.89,0,0,0,4.42,3.21l20.31,3a2.33,2.33,0,0,1,1.29,4l-14.7,14.32a5.89,5.89,0,0,0-1.69,5.19L988,621.69a2.33,2.33,0,0,1-3.38,2.45l-18.16-9.55a5.86,5.86,0,0,0-5.46,0l-18.16,9.55a2.33,2.33,0,0,1-3.38-2.45L943,601.46a5.89,5.89,0,0,0-1.69-5.19L926.56,582A2.35,2.35,0,0,1,926,579.56Zm58.64-138.14,3.47,20.23a2.33,2.33,0,0,1-3.38,2.45l-18.17-9.55a5.9,5.9,0,0,0-5.45,0l-18.17,9.55a2.33,2.33,0,0,1-3.38-2.45L943,441.42a5.86,5.86,0,0,0-1.68-5.19l-14.7-14.32a2.33,2.33,0,0,1,1.29-4L948.22,415a5.81,5.81,0,0,0,4.41-3.21l9.09-18.4a2.32,2.32,0,0,1,4.17,0L975,411.78a5.82,5.82,0,0,0,4.41,3.2l20.31,2.95a2.33,2.33,0,0,1,1.29,4L986.3,436.23A5.84,5.84,0,0,0,984.61,441.42Zm16.55,220.37-14.7,14.33a5.84,5.84,0,0,0-1.68,5.19l3.46,20.22a2.32,2.32,0,0,1-3.37,2.45l-18.17-9.54a5.86,5.86,0,0,0-5.46,0L943.08,704a2.33,2.33,0,0,1-3.38-2.45l3.47-20.22a5.85,5.85,0,0,0-1.69-5.19l-14.69-14.33a2.33,2.33,0,0,1,1.29-4l20.31-3a5.86,5.86,0,0,0,4.41-3.21l9.08-18.4a2.33,2.33,0,0,1,4.18,0l9.08,18.4a5.89,5.89,0,0,0,4.42,3.21l20.31,3a2.33,2.33,0,0,1,1.29,4Zm60.67-96.52,3.47,20.22a2.33,2.33,0,0,1-3.38,2.46l-18.16-9.55a5.86,5.86,0,0,0-5.46,0l-18.17,9.54a2.32,2.32,0,0,1-3.37-2.45l3.46-20.22a5.84,5.84,0,0,0-1.68-5.19l-14.7-14.33a2.33,2.33,0,0,1,1.29-4l20.31-2.95a5.89,5.89,0,0,0,4.42-3.21l9.08-18.4a2.33,2.33,0,0,1,4.18,0l9.08,18.4a5.86,5.86,0,0,0,4.41,3.21l20.31,2.95a2.33,2.33,0,0,1,1.29,4l-14.69,14.33A5.87,5.87,0,0,0,1061.83,565.27Zm-.22-79.85,3.47,20.23a2.33,2.33,0,0,1-3.38,2.45l-18.17-9.55a5.9,5.9,0,0,0-5.45,0l-18.17,9.55a2.33,2.33,0,0,1-3.38-2.45l3.47-20.23a5.86,5.86,0,0,0-1.68-5.19l-14.7-14.32a2.33,2.33,0,0,1,1.29-4l20.31-2.95a5.81,5.81,0,0,0,4.41-3.21l9.09-18.4a2.32,2.32,0,0,1,4.17,0l9.09,18.41a5.82,5.82,0,0,0,4.41,3.2l20.31,2.95a2.33,2.33,0,0,1,1.29,4l-14.69,14.32A5.84,5.84,0,0,0,1061.61,485.42Zm16.49-99.59-14.69,14.32a5.89,5.89,0,0,0-1.69,5.19l3.47,20.23a2.33,2.33,0,0,1-3.38,2.45l-18.17-9.55a5.87,5.87,0,0,0-5.45,0L1020,428a2.31,2.31,0,0,1-2.45-.17,2.34,2.34,0,0,1-.93-2.28l3.47-20.22a5.87,5.87,0,0,0-1.68-5.2l-14.7-14.32a2.35,2.35,0,0,1-.59-2.39,2.32,2.32,0,0,1,1.88-1.58l20.31-3a5.86,5.86,0,0,0,4.42-3.2l9.08-18.41a2.33,2.33,0,0,1,4.17,0l9.09,18.41a5.82,5.82,0,0,0,4.41,3.2l20.31,3a2.33,2.33,0,0,1,1.29,4Zm-.22-79.84-14.69,14.32a5.84,5.84,0,0,0-1.69,5.19l3.47,20.23a2.33,2.33,0,0,1-3.38,2.45l-18.17-9.55a5.86,5.86,0,0,0-5.46,0l-18.16,9.55a2.33,2.33,0,0,1-3.38-2.46l3.47-20.22a5.84,5.84,0,0,0-1.69-5.19L1003.51,306a2.33,2.33,0,0,1,1.29-4l20.31-2.95a5.86,5.86,0,0,0,4.41-3.21l9.08-18.4a2.33,2.33,0,0,1,4.18,0l9.09,18.4a5.86,5.86,0,0,0,4.41,3.21l20.31,2.95a2.33,2.33,0,0,1,1.29,4ZM1003,623.56a2.36,2.36,0,0,1,1.88-1.59l20.31-3a5.89,5.89,0,0,0,4.42-3.21l9.08-18.4a2.33,2.33,0,0,1,4.18,0l9.08,18.4a5.89,5.89,0,0,0,4.42,3.21l20.31,3a2.33,2.33,0,0,1,1.29,4l-14.7,14.32a5.89,5.89,0,0,0-1.69,5.19l3.47,20.23a2.33,2.33,0,0,1-3.38,2.45l-18.16-9.55a5.86,5.86,0,0,0-5.46,0l-18.16,9.55a2.33,2.33,0,0,1-3.38-2.45l3.47-20.23a5.89,5.89,0,0,0-1.69-5.19L1003.56,626A2.35,2.35,0,0,1,1003,623.56Zm75.19,82.23-14.7,14.33a5.84,5.84,0,0,0-1.68,5.19l3.46,20.22a2.32,2.32,0,0,1-3.37,2.45l-18.17-9.54a5.86,5.86,0,0,0-5.46,0L1020.08,748a2.33,2.33,0,0,1-3.38-2.45l3.47-20.22a5.85,5.85,0,0,0-1.69-5.19l-14.69-14.33a2.33,2.33,0,0,1,1.29-4l20.31-3a5.86,5.86,0,0,0,4.41-3.21l9.08-18.4a2.33,2.33,0,0,1,4.18,0l9.08,18.4a5.89,5.89,0,0,0,4.42,3.21l20.31,3a2.33,2.33,0,0,1,1.29,4Zm.81-125.23a2.36,2.36,0,0,1,1.88-1.59l20.31-3a5.89,5.89,0,0,0,4.42-3.21l9.08-18.4a2.33,2.33,0,0,1,4.18,0l9.08,18.4a5.89,5.89,0,0,0,4.42,3.21l20.31,3a2.33,2.33,0,0,1,1.29,4l-14.7,14.32a5.89,5.89,0,0,0-1.69,5.19l3.47,20.23a2.33,2.33,0,0,1-3.38,2.45l-18.16-9.55a5.86,5.86,0,0,0-5.46,0l-18.16,9.55a2.33,2.33,0,0,1-3.38-2.45l3.47-20.23a5.89,5.89,0,0,0-1.69-5.19L1079.56,583A2.35,2.35,0,0,1,1079,580.56Zm58.64-138.14,3.47,20.23a2.33,2.33,0,0,1-3.38,2.45l-18.17-9.55a5.9,5.9,0,0,0-5.45,0l-18.17,9.55a2.33,2.33,0,0,1-3.38-2.45l3.47-20.23a5.86,5.86,0,0,0-1.68-5.19l-14.7-14.32a2.33,2.33,0,0,1,1.29-4l20.31-2.95a5.81,5.81,0,0,0,4.41-3.21l9.09-18.4a2.32,2.32,0,0,1,4.17,0l9.09,18.41a5.82,5.82,0,0,0,4.41,3.2l20.31,2.95a2.33,2.33,0,0,1,1.29,4l-14.69,14.32A5.84,5.84,0,0,0,1137.61,442.42Zm16.55,220.37-14.7,14.33a5.84,5.84,0,0,0-1.68,5.19l3.46,20.22a2.32,2.32,0,0,1-3.37,2.45l-18.17-9.54a5.86,5.86,0,0,0-5.46,0L1096.08,705a2.33,2.33,0,0,1-3.38-2.45l3.47-20.22a5.85,5.85,0,0,0-1.69-5.19l-14.69-14.33a2.33,2.33,0,0,1,1.29-4l20.31-3a5.86,5.86,0,0,0,4.41-3.21l9.08-18.4a2.33,2.33,0,0,1,4.18,0l9.08,18.4a5.89,5.89,0,0,0,4.42,3.21l20.31,3a2.33,2.33,0,0,1,1.29,4Zm60.45-177.37,3.47,20.23a2.33,2.33,0,0,1-3.38,2.45l-18.17-9.55a5.9,5.9,0,0,0-5.45,0l-18.17,9.55a2.33,2.33,0,0,1-3.38-2.45l3.47-20.23a5.86,5.86,0,0,0-1.68-5.19l-14.7-14.32a2.33,2.33,0,0,1,1.29-4l20.31-2.95a5.81,5.81,0,0,0,4.41-3.21l9.09-18.4a2.32,2.32,0,0,1,4.17,0l9.09,18.41a5.82,5.82,0,0,0,4.41,3.2l20.31,2.95a2.33,2.33,0,0,1,1.29,4l-14.69,14.32A5.84,5.84,0,0,0,1214.61,485.42ZM1156,623.56a2.36,2.36,0,0,1,1.88-1.59l20.31-3a5.89,5.89,0,0,0,4.42-3.21l9.08-18.4a2.33,2.33,0,0,1,4.18,0l9.08,18.4a5.89,5.89,0,0,0,4.42,3.21l20.31,3a2.33,2.33,0,0,1,1.29,4l-14.7,14.32a5.89,5.89,0,0,0-1.69,5.19l3.47,20.23a2.33,2.33,0,0,1-3.38,2.45l-18.16-9.55a5.86,5.86,0,0,0-5.46,0l-18.16,9.55a2.33,2.33,0,0,1-3.38-2.45l3.47-20.23a5.89,5.89,0,0,0-1.69-5.19L1156.56,626A2.35,2.35,0,0,1,1156,623.56Zm75.19,82.23-14.7,14.33a5.84,5.84,0,0,0-1.68,5.19l3.46,20.22a2.32,2.32,0,0,1-3.37,2.45l-18.17-9.54a5.86,5.86,0,0,0-5.46,0L1173.08,748a2.33,2.33,0,0,1-3.38-2.45l3.47-20.22a5.85,5.85,0,0,0-1.69-5.19l-14.69-14.33a2.33,2.33,0,0,1,1.29-4l20.31-3a5.86,5.86,0,0,0,4.41-3.21l9.08-18.4a2.33,2.33,0,0,1,4.18,0l9.08,18.4a5.89,5.89,0,0,0,4.42,3.21l20.31,3a2.33,2.33,0,0,1,1.29,4ZM1233,587.56a2.36,2.36,0,0,1,1.88-1.59l20.31-3a5.89,5.89,0,0,0,4.42-3.21l9.08-18.4a2.33,2.33,0,0,1,4.18,0l9.08,18.4a5.89,5.89,0,0,0,4.42,3.21l20.31,3a2.33,2.33,0,0,1,1.29,4l-14.7,14.32a5.89,5.89,0,0,0-1.69,5.19l3.47,20.23a2.33,2.33,0,0,1-3.38,2.45l-18.16-9.55a5.86,5.86,0,0,0-5.46,0l-18.16,9.55a2.33,2.33,0,0,1-3.38-2.45l3.47-20.23a5.89,5.89,0,0,0-1.69-5.19L1233.56,590A2.35,2.35,0,0,1,1233,587.56Zm58.64-138.14,3.47,20.23a2.33,2.33,0,0,1-3.38,2.45l-18.17-9.55a5.9,5.9,0,0,0-5.45,0l-18.17,9.55a2.33,2.33,0,0,1-3.38-2.45l3.47-20.23a5.86,5.86,0,0,0-1.68-5.19l-14.7-14.32a2.33,2.33,0,0,1,1.29-4l20.31-2.95a5.81,5.81,0,0,0,4.41-3.21l9.09-18.4a2.32,2.32,0,0,1,4.17,0l9.09,18.41a5.82,5.82,0,0,0,4.41,3.2l20.31,2.95a2.33,2.33,0,0,1,1.29,4l-14.69,14.32A5.84,5.84,0,0,0,1291.61,449.42Zm16.55,220.37-14.7,14.33a5.84,5.84,0,0,0-1.68,5.19l3.46,20.22a2.32,2.32,0,0,1-3.37,2.45l-18.17-9.54a5.86,5.86,0,0,0-5.46,0L1250.08,712a2.33,2.33,0,0,1-3.38-2.45l3.47-20.22a5.85,5.85,0,0,0-1.69-5.19l-14.69-14.33a2.33,2.33,0,0,1,1.29-4l20.31-3a5.86,5.86,0,0,0,4.41-3.21l9.08-18.4a2.33,2.33,0,0,1,4.18,0l9.08,18.4a5.89,5.89,0,0,0,4.42,3.21l20.31,3a2.33,2.33,0,0,1,1.29,4Zm0-160-14.69,14.33a5.87,5.87,0,0,0-1.69,5.19l3.47,20.22a2.33,2.33,0,0,1-3.38,2.46l-18.16-9.55a5.86,5.86,0,0,0-5.46,0l-18.17,9.54a2.32,2.32,0,0,1-3.37-2.45l3.46-20.22a5.84,5.84,0,0,0-1.68-5.19l-14.7-14.33a2.33,2.33,0,0,1,1.29-4l20.31-2.95a5.89,5.89,0,0,0,4.42-3.21l9.08-18.4a2.33,2.33,0,0,1,4.18,0l9.08,18.4a5.86,5.86,0,0,0,4.41,3.21l20.31,2.95a2.33,2.33,0,0,1,1.29,4Zm-.11-159.92-14.69,14.32a5.89,5.89,0,0,0-1.69,5.19l3.47,20.23a2.33,2.33,0,0,1-3.38,2.45l-18.17-9.55a5.87,5.87,0,0,0-5.45,0L1250,392a2.31,2.31,0,0,1-2.45-.17,2.34,2.34,0,0,1-.93-2.28l3.47-20.22a5.87,5.87,0,0,0-1.68-5.2l-14.7-14.32a2.35,2.35,0,0,1-.59-2.39,2.32,2.32,0,0,1,1.88-1.58l20.31-3a5.86,5.86,0,0,0,4.42-3.2l9.08-18.41a2.33,2.33,0,0,1,4.17,0l9.09,18.41a5.82,5.82,0,0,0,4.41,3.2l20.31,3a2.33,2.33,0,0,1,1.29,4Zm-.22-79.84-14.69,14.32a5.84,5.84,0,0,0-1.69,5.19l3.47,20.23a2.33,2.33,0,0,1-3.38,2.45l-18.17-9.55a5.86,5.86,0,0,0-5.46,0l-18.16,9.55a2.33,2.33,0,0,1-3.38-2.46l3.47-20.22a5.84,5.84,0,0,0-1.69-5.19L1233.51,270a2.33,2.33,0,0,1,1.29-4l20.31-2.95a5.86,5.86,0,0,0,4.41-3.21l9.08-18.4a2.33,2.33,0,0,1,4.18,0l9.09,18.4a5.86,5.86,0,0,0,4.41,3.21l20.31,2.95a2.33,2.33,0,0,1,1.29,4Zm-.06-80.2-14.69,14.33a5.87,5.87,0,0,0-1.69,5.19l3.47,20.22a2.33,2.33,0,0,1-3.38,2.45l-18.16-9.54a5.86,5.86,0,0,0-5.46,0L1249.75,232a2.32,2.32,0,0,1-3.38-2.45l3.47-20.22a5.87,5.87,0,0,0-1.69-5.19l-14.7-14.33a2.33,2.33,0,0,1,1.29-4l20.31-2.95a5.89,5.89,0,0,0,4.42-3.21l9.08-18.4a2.33,2.33,0,0,1,4.18,0l9.08,18.4a5.88,5.88,0,0,0,4.41,3.21l20.31,2.95a2.33,2.33,0,0,1,1.29,4ZM1232.75,27.48a2.33,2.33,0,0,1,1.88-1.58l20.31-3a5.86,5.86,0,0,0,4.42-3.2l9.08-18.41a2.34,2.34,0,0,1,4.18,0l9.08,18.41a5.82,5.82,0,0,0,4.41,3.2l20.31,3a2.33,2.33,0,0,1,1.29,4L1293,44.19a5.89,5.89,0,0,0-1.69,5.19l3.47,20.23a2.33,2.33,0,0,1-3.38,2.45l-18.16-9.55a5.92,5.92,0,0,0-5.46,0l-18.17,9.55a2.32,2.32,0,0,1-3.37-2.45l3.46-20.23a5.86,5.86,0,0,0-1.68-5.19l-14.7-14.32A2.35,2.35,0,0,1,1232.75,27.48Zm-.11,80.08a2.35,2.35,0,0,1,1.88-1.59l20.31-3a5.89,5.89,0,0,0,4.42-3.21l9.08-18.4a2.32,2.32,0,0,1,4.17,0l9.09,18.4A5.86,5.86,0,0,0,1286,103l20.31,3a2.33,2.33,0,0,1,1.29,4l-14.69,14.32a5.89,5.89,0,0,0-1.69,5.19l3.47,20.23a2.33,2.33,0,0,1-3.38,2.45l-18.17-9.55a5.84,5.84,0,0,0-5.45,0l-18.17,9.55a2.33,2.33,0,0,1-3.38-2.45l3.47-20.23a5.86,5.86,0,0,0-1.68-5.19L1233.23,110A2.35,2.35,0,0,1,1232.64,107.56Zm-1.43,438.19-14.69,14.33a5.87,5.87,0,0,0-1.69,5.19l3.47,20.22a2.33,2.33,0,0,1-3.38,2.46l-18.16-9.55a5.86,5.86,0,0,0-5.46,0l-18.17,9.54a2.32,2.32,0,0,1-3.37-2.45l3.46-20.22a5.84,5.84,0,0,0-1.68-5.19l-14.7-14.33a2.33,2.33,0,0,1,1.29-4l20.31-2.95a5.89,5.89,0,0,0,4.42-3.21l9.08-18.4a2.33,2.33,0,0,1,4.18,0l9.08,18.4a5.86,5.86,0,0,0,4.41,3.21l20.31,2.95a2.33,2.33,0,0,1,1.29,4Zm-.11-159.92-14.69,14.32a5.89,5.89,0,0,0-1.69,5.19l3.47,20.23a2.33,2.33,0,0,1-3.38,2.45l-18.17-9.55a5.87,5.87,0,0,0-5.45,0L1173,428a2.31,2.31,0,0,1-2.45-.17,2.34,2.34,0,0,1-.93-2.28l3.47-20.22a5.87,5.87,0,0,0-1.68-5.2l-14.7-14.32a2.35,2.35,0,0,1-.59-2.39,2.32,2.32,0,0,1,1.88-1.58l20.31-3a5.86,5.86,0,0,0,4.42-3.2l9.08-18.41a2.33,2.33,0,0,1,4.17,0l9.09,18.41a5.82,5.82,0,0,0,4.41,3.2l20.31,3a2.33,2.33,0,0,1,1.29,4Zm-.22-79.84-14.69,14.32a5.84,5.84,0,0,0-1.69,5.19l3.47,20.23a2.33,2.33,0,0,1-3.38,2.45l-18.17-9.55a5.86,5.86,0,0,0-5.46,0l-18.16,9.55a2.33,2.33,0,0,1-3.38-2.46l3.47-20.22a5.84,5.84,0,0,0-1.69-5.19L1156.51,306a2.33,2.33,0,0,1,1.29-4l20.31-2.95a5.86,5.86,0,0,0,4.41-3.21l9.08-18.4a2.33,2.33,0,0,1,4.18,0l9.09,18.4a5.86,5.86,0,0,0,4.41,3.21l20.31,2.95a2.33,2.33,0,0,1,1.29,4Zm-.06-80.2-14.69,14.33a5.87,5.87,0,0,0-1.69,5.19l3.47,20.22a2.33,2.33,0,0,1-3.38,2.45l-18.16-9.54a5.86,5.86,0,0,0-5.46,0L1172.75,268a2.32,2.32,0,0,1-3.38-2.45l3.47-20.22a5.87,5.87,0,0,0-1.69-5.19l-14.7-14.33a2.33,2.33,0,0,1,1.29-4l20.31-2.95a5.89,5.89,0,0,0,4.42-3.21l9.08-18.4a2.33,2.33,0,0,1,4.18,0l9.08,18.4a5.88,5.88,0,0,0,4.41,3.21l20.31,2.95a2.33,2.33,0,0,1,1.29,4ZM1155.75,63.48a2.33,2.33,0,0,1,1.88-1.58l20.31-3a5.86,5.86,0,0,0,4.42-3.2l9.08-18.41a2.34,2.34,0,0,1,4.18,0l9.08,18.41a5.82,5.82,0,0,0,4.41,3.2l20.31,3a2.33,2.33,0,0,1,1.29,4L1216,80.19a5.89,5.89,0,0,0-1.69,5.19l3.47,20.23a2.33,2.33,0,0,1-3.38,2.45l-18.16-9.55a5.92,5.92,0,0,0-5.46,0l-18.17,9.55a2.32,2.32,0,0,1-3.37-2.45l3.46-20.23a5.86,5.86,0,0,0-1.68-5.19l-14.7-14.32A2.35,2.35,0,0,1,1155.75,63.48Zm-.11,80.08a2.35,2.35,0,0,1,1.88-1.59l20.31-2.95a5.89,5.89,0,0,0,4.42-3.21l9.08-18.4a2.32,2.32,0,0,1,4.17,0l9.09,18.4A5.86,5.86,0,0,0,1209,139l20.31,2.95a2.33,2.33,0,0,1,1.29,4l-14.69,14.32a5.89,5.89,0,0,0-1.69,5.19l3.47,20.23a2.33,2.33,0,0,1-3.38,2.45l-18.17-9.55a5.84,5.84,0,0,0-5.45,0l-18.17,9.55a2.33,2.33,0,0,1-3.38-2.45l3.47-20.23a5.86,5.86,0,0,0-1.68-5.19L1156.23,146A2.35,2.35,0,0,1,1155.64,143.56Zm-1.43,359.19-14.69,14.33a5.87,5.87,0,0,0-1.69,5.19l3.47,20.22a2.33,2.33,0,0,1-3.38,2.46l-18.16-9.55a5.86,5.86,0,0,0-5.46,0l-18.17,9.54a2.32,2.32,0,0,1-3.37-2.45l3.46-20.22a5.84,5.84,0,0,0-1.68-5.19l-14.7-14.33a2.33,2.33,0,0,1,1.29-4l20.31-2.95a5.89,5.89,0,0,0,4.42-3.21l9.08-18.4a2.33,2.33,0,0,1,4.18,0l9.08,18.4a5.86,5.86,0,0,0,4.41,3.21l20.31,2.95a2.33,2.33,0,0,1,1.29,4Zm-.11-159.92-14.69,14.32a5.89,5.89,0,0,0-1.69,5.19l3.47,20.23a2.33,2.33,0,0,1-3.38,2.45l-18.17-9.55a5.87,5.87,0,0,0-5.45,0L1096,385a2.31,2.31,0,0,1-2.45-.17,2.34,2.34,0,0,1-.93-2.28l3.47-20.22a5.87,5.87,0,0,0-1.68-5.2l-14.7-14.32a2.35,2.35,0,0,1-.59-2.39,2.32,2.32,0,0,1,1.88-1.58l20.31-3a5.86,5.86,0,0,0,4.42-3.2l9.08-18.41a2.33,2.33,0,0,1,4.17,0l9.09,18.41a5.82,5.82,0,0,0,4.41,3.2l20.31,3a2.33,2.33,0,0,1,1.29,4Zm-.22-79.84-14.69,14.32a5.84,5.84,0,0,0-1.69,5.19l3.47,20.23a2.33,2.33,0,0,1-3.38,2.45l-18.17-9.55a5.86,5.86,0,0,0-5.46,0l-18.16,9.55a2.33,2.33,0,0,1-3.38-2.46l3.47-20.22a5.84,5.84,0,0,0-1.69-5.19L1079.51,263a2.33,2.33,0,0,1,1.29-4l20.31-2.95a5.86,5.86,0,0,0,4.41-3.21l9.08-18.4a2.33,2.33,0,0,1,4.18,0l9.09,18.4a5.86,5.86,0,0,0,4.41,3.21l20.31,2.95a2.33,2.33,0,0,1,1.29,4Zm-.06-80.2-14.69,14.33a5.87,5.87,0,0,0-1.69,5.19l3.47,20.22a2.33,2.33,0,0,1-3.38,2.45l-18.16-9.54a5.86,5.86,0,0,0-5.46,0L1095.75,225a2.32,2.32,0,0,1-3.38-2.45l3.47-20.22a5.87,5.87,0,0,0-1.69-5.19l-14.7-14.33a2.33,2.33,0,0,1,1.29-4l20.31-2.95a5.89,5.89,0,0,0,4.42-3.21l9.08-18.4a2.33,2.33,0,0,1,4.18,0l9.08,18.4a5.88,5.88,0,0,0,4.41,3.21l20.31,2.95a2.33,2.33,0,0,1,1.29,4Zm-75.18-82.23a2.35,2.35,0,0,1,1.88-1.59l20.31-3a5.89,5.89,0,0,0,4.42-3.21l9.08-18.4a2.32,2.32,0,0,1,4.17,0l9.09,18.4A5.86,5.86,0,0,0,1132,96l20.31,3a2.33,2.33,0,0,1,1.29,4l-14.69,14.32a5.89,5.89,0,0,0-1.69,5.19l3.47,20.23a2.33,2.33,0,0,1-3.38,2.45l-18.17-9.55a5.84,5.84,0,0,0-5.45,0l-18.17,9.55a2.33,2.33,0,0,1-3.38-2.45l3.47-20.23a5.86,5.86,0,0,0-1.68-5.19L1079.23,103A2.35,2.35,0,0,1,1078.64,100.56Zm-.82,125.23-14.69,14.33a5.87,5.87,0,0,0-1.69,5.19l3.47,20.22a2.33,2.33,0,0,1-3.38,2.45l-18.16-9.54a5.86,5.86,0,0,0-5.46,0L1019.75,268a2.32,2.32,0,0,1-3.38-2.45l3.47-20.22a5.87,5.87,0,0,0-1.69-5.19l-14.7-14.33a2.33,2.33,0,0,1,1.29-4l20.31-2.95a5.89,5.89,0,0,0,4.42-3.21l9.08-18.4a2.33,2.33,0,0,1,4.18,0l9.08,18.4a5.88,5.88,0,0,0,4.41,3.21l20.31,2.95a2.33,2.33,0,0,1,1.29,4ZM1002.75,63.48a2.33,2.33,0,0,1,1.88-1.58l20.31-3a5.86,5.86,0,0,0,4.42-3.2l9.08-18.41a2.34,2.34,0,0,1,4.18,0l9.08,18.41a5.82,5.82,0,0,0,4.41,3.2l20.31,3a2.33,2.33,0,0,1,1.29,4L1063,80.19a5.89,5.89,0,0,0-1.69,5.19l3.47,20.23a2.33,2.33,0,0,1-3.38,2.45l-18.16-9.55a5.92,5.92,0,0,0-5.46,0l-18.17,9.55a2.32,2.32,0,0,1-3.37-2.45l3.46-20.23a5.86,5.86,0,0,0-1.68-5.19l-14.7-14.32A2.35,2.35,0,0,1,1002.75,63.48Zm-.11,80.08a2.35,2.35,0,0,1,1.88-1.59l20.31-2.95a5.89,5.89,0,0,0,4.42-3.21l9.08-18.4a2.32,2.32,0,0,1,4.17,0l9.09,18.4A5.86,5.86,0,0,0,1056,139l20.31,2.95a2.33,2.33,0,0,1,1.29,4l-14.69,14.32a5.89,5.89,0,0,0-1.69,5.19l3.47,20.23a2.33,2.33,0,0,1-3.38,2.45l-18.17-9.55a5.84,5.84,0,0,0-5.45,0l-18.17,9.55a2.33,2.33,0,0,1-3.38-2.45l3.47-20.23a5.86,5.86,0,0,0-1.68-5.19L1003.23,146A2.35,2.35,0,0,1,1002.64,143.56Zm-1.43,358.19-14.69,14.33a5.87,5.87,0,0,0-1.69,5.19l3.47,20.22a2.33,2.33,0,0,1-3.38,2.46l-18.16-9.55a5.86,5.86,0,0,0-5.46,0l-18.17,9.54a2.32,2.32,0,0,1-3.37-2.45l3.46-20.22a5.84,5.84,0,0,0-1.68-5.19l-14.7-14.33a2.33,2.33,0,0,1,1.29-4l20.31-2.95a5.89,5.89,0,0,0,4.42-3.21l9.08-18.4a2.33,2.33,0,0,1,4.18,0l9.08,18.4a5.86,5.86,0,0,0,4.41,3.21l20.31,2.95a2.33,2.33,0,0,1,1.29,4Zm-.11-159.92-14.69,14.32a5.89,5.89,0,0,0-1.69,5.19l3.47,20.23a2.33,2.33,0,0,1-3.38,2.45l-18.17-9.55a5.87,5.87,0,0,0-5.45,0L943,384a2.31,2.31,0,0,1-2.45-.17,2.34,2.34,0,0,1-.93-2.28l3.47-20.22a5.87,5.87,0,0,0-1.68-5.2l-14.7-14.32a2.35,2.35,0,0,1-.59-2.39,2.32,2.32,0,0,1,1.88-1.58l20.31-3a5.86,5.86,0,0,0,4.42-3.2l9.08-18.41a2.33,2.33,0,0,1,4.17,0l9.09,18.41a5.82,5.82,0,0,0,4.41,3.2l20.31,3a2.33,2.33,0,0,1,1.29,4Zm-.22-79.84-14.69,14.32a5.84,5.84,0,0,0-1.69,5.19L988,301.73a2.33,2.33,0,0,1-3.38,2.45l-18.17-9.55a5.86,5.86,0,0,0-5.46,0l-18.16,9.55a2.33,2.33,0,0,1-3.38-2.46l3.47-20.22a5.84,5.84,0,0,0-1.69-5.19L926.51,262a2.33,2.33,0,0,1,1.29-4l20.31-2.95a5.86,5.86,0,0,0,4.41-3.21l9.08-18.4a2.33,2.33,0,0,1,4.18,0l9.09,18.4a5.86,5.86,0,0,0,4.41,3.21L999.59,258a2.33,2.33,0,0,1,1.29,4Zm0-80.2-14.7,14.33a5.87,5.87,0,0,0-1.69,5.19l3.47,20.22a2.33,2.33,0,0,1-3.38,2.45l-18.16-9.54a5.86,5.86,0,0,0-5.46,0L942.75,224a2.32,2.32,0,0,1-3.38-2.45l3.47-20.22a5.87,5.87,0,0,0-1.69-5.19l-14.7-14.33a2.33,2.33,0,0,1,1.29-4l20.31-2.95a5.89,5.89,0,0,0,4.42-3.21l9.08-18.4a2.33,2.33,0,0,1,4.18,0l9.08,18.4a5.88,5.88,0,0,0,4.41,3.21l20.31,2.95a2.33,2.33,0,0,1,1.3,4ZM925.64,99.56A2.35,2.35,0,0,1,927.52,98l20.31-3a5.89,5.89,0,0,0,4.42-3.21l9.08-18.4a2.32,2.32,0,0,1,4.17,0l9.09,18.4A5.86,5.86,0,0,0,979,95l20.31,3a2.33,2.33,0,0,1,1.29,4l-14.69,14.32a5.89,5.89,0,0,0-1.69,5.19l3.47,20.23a2.33,2.33,0,0,1-3.38,2.45l-18.17-9.55a5.84,5.84,0,0,0-5.45,0l-18.17,9.55a2.33,2.33,0,0,1-3.38-2.45l3.47-20.23a5.86,5.86,0,0,0-1.68-5.19L926.23,102A2.35,2.35,0,0,1,925.64,99.56Zm-1.43,438.19-14.69,14.33a5.87,5.87,0,0,0-1.69,5.19l3.47,20.22a2.33,2.33,0,0,1-3.38,2.46l-18.16-9.55a5.86,5.86,0,0,0-5.46,0l-18.17,9.54a2.32,2.32,0,0,1-3.37-2.45l3.46-20.22a5.84,5.84,0,0,0-1.68-5.19l-14.7-14.33a2.33,2.33,0,0,1,1.29-4l20.31-2.95a5.89,5.89,0,0,0,4.42-3.21l9.08-18.4a2.33,2.33,0,0,1,4.18,0l9.08,18.4a5.86,5.86,0,0,0,4.41,3.21l20.31,2.95a2.33,2.33,0,0,1,1.29,4Zm-.11-159.92-14.69,14.32a5.89,5.89,0,0,0-1.69,5.19l3.47,20.23a2.33,2.33,0,0,1-3.38,2.45l-18.17-9.55a5.87,5.87,0,0,0-5.45,0L866,420a2.31,2.31,0,0,1-2.45-.17,2.34,2.34,0,0,1-.93-2.28l3.47-20.22a5.87,5.87,0,0,0-1.68-5.2l-14.7-14.32a2.35,2.35,0,0,1-.59-2.39,2.32,2.32,0,0,1,1.88-1.58l20.31-3a5.86,5.86,0,0,0,4.42-3.2l9.08-18.41a2.33,2.33,0,0,1,4.17,0l9.09,18.41a5.82,5.82,0,0,0,4.41,3.2l20.31,3a2.33,2.33,0,0,1,1.29,4ZM923.88,298l-14.69,14.32a5.84,5.84,0,0,0-1.69,5.19L911,337.73a2.33,2.33,0,0,1-3.38,2.45l-18.17-9.55a5.86,5.86,0,0,0-5.46,0l-18.16,9.55a2.33,2.33,0,0,1-3.38-2.46l3.47-20.22a5.84,5.84,0,0,0-1.69-5.19L849.51,298a2.33,2.33,0,0,1,1.29-4l20.31-2.95a5.86,5.86,0,0,0,4.41-3.21l9.08-18.4a2.33,2.33,0,0,1,4.18,0l9.09,18.4a5.86,5.86,0,0,0,4.41,3.21L922.59,294a2.33,2.33,0,0,1,1.29,4Zm0-80.2-14.7,14.33a5.87,5.87,0,0,0-1.69,5.19l3.47,20.22a2.33,2.33,0,0,1-3.38,2.45l-18.16-9.54a5.86,5.86,0,0,0-5.46,0L865.75,260a2.32,2.32,0,0,1-3.38-2.45l3.47-20.22a5.87,5.87,0,0,0-1.69-5.19l-14.7-14.33a2.33,2.33,0,0,1,1.29-4l20.31-2.95a5.89,5.89,0,0,0,4.42-3.21l9.08-18.4a2.33,2.33,0,0,1,4.18,0l9.08,18.4a5.88,5.88,0,0,0,4.41,3.21l20.31,2.95a2.33,2.33,0,0,1,1.3,4ZM848.75,55.48a2.33,2.33,0,0,1,1.88-1.58l20.31-3a5.86,5.86,0,0,0,4.42-3.2l9.08-18.41a2.34,2.34,0,0,1,4.18,0l9.08,18.41a5.82,5.82,0,0,0,4.41,3.2l20.31,3a2.33,2.33,0,0,1,1.29,4L909,72.19a5.89,5.89,0,0,0-1.69,5.19l3.47,20.23a2.33,2.33,0,0,1-3.38,2.45l-18.16-9.55a5.92,5.92,0,0,0-5.46,0l-18.17,9.55a2.32,2.32,0,0,1-3.37-2.45l3.46-20.23A5.86,5.86,0,0,0,864,72.19l-14.7-14.32A2.35,2.35,0,0,1,848.75,55.48Zm-.11,80.08a2.35,2.35,0,0,1,1.88-1.59L870.83,131a5.89,5.89,0,0,0,4.42-3.21l9.08-18.4a2.32,2.32,0,0,1,4.17,0l9.09,18.4A5.86,5.86,0,0,0,902,131L922.31,134a2.33,2.33,0,0,1,1.29,4l-14.69,14.32a5.89,5.89,0,0,0-1.69,5.19l3.47,20.23a2.33,2.33,0,0,1-3.38,2.45l-18.17-9.55a5.84,5.84,0,0,0-5.45,0l-18.17,9.55a2.33,2.33,0,0,1-3.38-2.45l3.47-20.23a5.86,5.86,0,0,0-1.68-5.19L849.23,138A2.35,2.35,0,0,1,848.64,135.56Zm-1.43,358.19-14.69,14.33a5.87,5.87,0,0,0-1.69,5.19l3.47,20.22a2.33,2.33,0,0,1-3.38,2.46l-18.16-9.55a5.86,5.86,0,0,0-5.46,0l-18.17,9.54a2.32,2.32,0,0,1-3.37-2.45l3.46-20.22a5.84,5.84,0,0,0-1.68-5.19l-14.7-14.33a2.33,2.33,0,0,1,1.29-4l20.31-2.95a5.89,5.89,0,0,0,4.42-3.21l9.08-18.4a2.33,2.33,0,0,1,4.18,0l9.08,18.4a5.86,5.86,0,0,0,4.41,3.21l20.31,2.95a2.33,2.33,0,0,1,1.29,4Zm-.11-159.92-14.69,14.32a5.89,5.89,0,0,0-1.69,5.19l3.47,20.23a2.33,2.33,0,0,1-3.38,2.45l-18.17-9.55a5.87,5.87,0,0,0-5.45,0L789,376a2.31,2.31,0,0,1-2.45-.17,2.34,2.34,0,0,1-.93-2.28l3.47-20.22a5.87,5.87,0,0,0-1.68-5.2l-14.7-14.32a2.35,2.35,0,0,1-.59-2.39,2.32,2.32,0,0,1,1.88-1.58l20.31-3a5.86,5.86,0,0,0,4.42-3.2l9.08-18.41a2.33,2.33,0,0,1,4.17,0l9.09,18.41a5.82,5.82,0,0,0,4.41,3.2l20.31,3a2.33,2.33,0,0,1,1.29,4ZM846.88,254l-14.69,14.32a5.84,5.84,0,0,0-1.69,5.19L834,293.73a2.33,2.33,0,0,1-3.38,2.45l-18.17-9.55a5.86,5.86,0,0,0-5.46,0l-18.16,9.55a2.33,2.33,0,0,1-3.38-2.46l3.47-20.22a5.84,5.84,0,0,0-1.69-5.19L772.51,254a2.33,2.33,0,0,1,1.29-4l20.31-2.95a5.86,5.86,0,0,0,4.41-3.21l9.08-18.4a2.33,2.33,0,0,1,4.18,0l9.09,18.4a5.86,5.86,0,0,0,4.41,3.21L845.59,250a2.33,2.33,0,0,1,1.29,4Zm0-80.2-14.7,14.33a5.87,5.87,0,0,0-1.69,5.19l3.47,20.22a2.33,2.33,0,0,1-3.38,2.45l-18.16-9.54a5.86,5.86,0,0,0-5.46,0L788.75,216a2.32,2.32,0,0,1-3.38-2.45l3.47-20.22a5.87,5.87,0,0,0-1.69-5.19l-14.7-14.33a2.33,2.33,0,0,1,1.29-4l20.31-2.95a5.89,5.89,0,0,0,4.42-3.21l9.08-18.4a2.33,2.33,0,0,1,4.18,0l9.08,18.4a5.88,5.88,0,0,0,4.41,3.21l20.31,2.95a2.33,2.33,0,0,1,1.3,4ZM771.64,91.56A2.35,2.35,0,0,1,773.52,90l20.31-3a5.89,5.89,0,0,0,4.42-3.21l9.08-18.4a2.32,2.32,0,0,1,4.17,0l9.09,18.4A5.86,5.86,0,0,0,825,87l20.31,3a2.33,2.33,0,0,1,1.29,4l-14.69,14.32a5.89,5.89,0,0,0-1.69,5.19l3.47,20.23a2.33,2.33,0,0,1-3.38,2.45l-18.17-9.55a5.84,5.84,0,0,0-5.45,0l-18.17,9.55a2.33,2.33,0,0,1-3.38-2.45l3.47-20.23a5.86,5.86,0,0,0-1.68-5.19L772.23,94A2.35,2.35,0,0,1,771.64,91.56Zm-1.43,446.19-14.69,14.33a5.87,5.87,0,0,0-1.69,5.19l3.47,20.22a2.33,2.33,0,0,1-3.38,2.46l-18.16-9.55a5.86,5.86,0,0,0-5.46,0l-18.17,9.54a2.32,2.32,0,0,1-3.37-2.45l3.46-20.22a5.84,5.84,0,0,0-1.68-5.19l-14.7-14.33a2.33,2.33,0,0,1,1.29-4l20.31-2.95a5.89,5.89,0,0,0,4.42-3.21l9.08-18.4a2.33,2.33,0,0,1,4.18,0l9.08,18.4a5.86,5.86,0,0,0,4.41,3.21l20.31,2.95a2.33,2.33,0,0,1,1.29,4Zm-.11-159.92-14.69,14.32a5.89,5.89,0,0,0-1.69,5.19l3.47,20.23a2.33,2.33,0,0,1-3.38,2.45l-18.17-9.55a5.87,5.87,0,0,0-5.45,0L712,420a2.31,2.31,0,0,1-2.45-.17,2.34,2.34,0,0,1-.93-2.28l3.47-20.22a5.87,5.87,0,0,0-1.68-5.2l-14.7-14.32a2.35,2.35,0,0,1-.59-2.39,2.32,2.32,0,0,1,1.88-1.58l20.31-3a5.86,5.86,0,0,0,4.42-3.2l9.08-18.41a2.33,2.33,0,0,1,4.17,0l9.09,18.41a5.82,5.82,0,0,0,4.41,3.2l20.31,3a2.33,2.33,0,0,1,1.29,4ZM769.88,298l-14.69,14.32a5.84,5.84,0,0,0-1.69,5.19L757,337.73a2.33,2.33,0,0,1-3.38,2.45l-18.17-9.55a5.86,5.86,0,0,0-5.46,0l-18.16,9.55a2.33,2.33,0,0,1-3.38-2.46l3.47-20.22a5.84,5.84,0,0,0-1.69-5.19L695.51,298a2.33,2.33,0,0,1,1.29-4l20.31-2.95a5.86,5.86,0,0,0,4.41-3.21l9.08-18.4a2.33,2.33,0,0,1,4.18,0l9.09,18.4a5.86,5.86,0,0,0,4.41,3.21L768.59,294a2.33,2.33,0,0,1,1.29,4Zm0-80.2-14.7,14.33a5.87,5.87,0,0,0-1.69,5.19l3.47,20.22a2.33,2.33,0,0,1-3.38,2.45l-18.16-9.54a5.86,5.86,0,0,0-5.46,0L711.75,260a2.32,2.32,0,0,1-3.38-2.45l3.47-20.22a5.87,5.87,0,0,0-1.69-5.19l-14.7-14.33a2.33,2.33,0,0,1,1.29-4l20.31-2.95a5.89,5.89,0,0,0,4.42-3.21l9.08-18.4a2.33,2.33,0,0,1,4.18,0l9.08,18.4a5.88,5.88,0,0,0,4.41,3.21l20.31,2.95a2.33,2.33,0,0,1,1.3,4ZM694.75,55.48a2.33,2.33,0,0,1,1.88-1.58l20.31-3a5.86,5.86,0,0,0,4.42-3.2l9.08-18.41a2.34,2.34,0,0,1,4.18,0l9.08,18.41a5.82,5.82,0,0,0,4.41,3.2l20.31,3a2.33,2.33,0,0,1,1.29,4L755,72.19a5.89,5.89,0,0,0-1.69,5.19l3.47,20.23a2.33,2.33,0,0,1-3.38,2.45l-18.16-9.55a5.92,5.92,0,0,0-5.46,0l-18.17,9.55a2.32,2.32,0,0,1-3.37-2.45l3.46-20.23A5.86,5.86,0,0,0,710,72.19l-14.7-14.32A2.35,2.35,0,0,1,694.75,55.48Zm-.11,80.08a2.35,2.35,0,0,1,1.88-1.59L716.83,131a5.89,5.89,0,0,0,4.42-3.21l9.08-18.4a2.32,2.32,0,0,1,4.17,0l9.09,18.4A5.86,5.86,0,0,0,748,131L768.31,134a2.33,2.33,0,0,1,1.29,4l-14.69,14.32a5.89,5.89,0,0,0-1.69,5.19l3.47,20.23a2.33,2.33,0,0,1-3.38,2.45l-18.17-9.55a5.84,5.84,0,0,0-5.45,0l-18.17,9.55a2.33,2.33,0,0,1-3.38-2.45l3.47-20.23a5.86,5.86,0,0,0-1.68-5.19L695.23,138A2.35,2.35,0,0,1,694.64,135.56Zm-6.43,367.19-14.69,14.33a5.87,5.87,0,0,0-1.69,5.19l3.47,20.22a2.33,2.33,0,0,1-3.38,2.46l-18.16-9.55a5.86,5.86,0,0,0-5.46,0l-18.17,9.54a2.32,2.32,0,0,1-3.37-2.45l3.46-20.22a5.84,5.84,0,0,0-1.68-5.19l-14.7-14.33a2.33,2.33,0,0,1,1.29-4l20.31-2.95a5.89,5.89,0,0,0,4.42-3.21l9.08-18.4a2.33,2.33,0,0,1,4.18,0l9.08,18.4a5.86,5.86,0,0,0,4.41,3.21l20.31,2.95a2.33,2.33,0,0,1,1.29,4Zm-.11-159.92-14.69,14.32a5.89,5.89,0,0,0-1.69,5.19l3.47,20.23a2.33,2.33,0,0,1-3.38,2.45l-18.17-9.55a5.87,5.87,0,0,0-5.45,0L630,385a2.31,2.31,0,0,1-2.45-.17,2.34,2.34,0,0,1-.93-2.28l3.47-20.22a5.87,5.87,0,0,0-1.68-5.2l-14.7-14.32a2.35,2.35,0,0,1-.59-2.39,2.32,2.32,0,0,1,1.88-1.58l20.31-3a5.86,5.86,0,0,0,4.42-3.2l9.08-18.41a2.33,2.33,0,0,1,4.17,0l9.09,18.41a5.82,5.82,0,0,0,4.41,3.2l20.31,3a2.33,2.33,0,0,1,1.29,4ZM687.88,263l-14.69,14.32a5.84,5.84,0,0,0-1.69,5.19L675,302.73a2.33,2.33,0,0,1-3.38,2.45l-18.17-9.55a5.86,5.86,0,0,0-5.46,0l-18.16,9.55a2.33,2.33,0,0,1-3.38-2.46l3.47-20.22a5.84,5.84,0,0,0-1.69-5.19L613.51,263a2.33,2.33,0,0,1,1.29-4l20.31-2.95a5.86,5.86,0,0,0,4.41-3.21l9.08-18.4a2.33,2.33,0,0,1,4.18,0l9.09,18.4a5.86,5.86,0,0,0,4.41,3.21L686.59,259a2.33,2.33,0,0,1,1.29,4Zm0-80.2-14.7,14.33a5.87,5.87,0,0,0-1.69,5.19l3.47,20.22a2.33,2.33,0,0,1-3.38,2.45l-18.16-9.54a5.86,5.86,0,0,0-5.46,0L629.75,225a2.32,2.32,0,0,1-3.38-2.45l3.47-20.22a5.87,5.87,0,0,0-1.69-5.19l-14.7-14.33a2.33,2.33,0,0,1,1.29-4l20.31-2.95a5.89,5.89,0,0,0,4.42-3.21l9.08-18.4a2.33,2.33,0,0,1,4.18,0l9.08,18.4a5.88,5.88,0,0,0,4.41,3.21l20.31,2.95a2.33,2.33,0,0,1,1.3,4Zm-75.19-82.23A2.35,2.35,0,0,1,614.52,99l20.31-3a5.89,5.89,0,0,0,4.42-3.21l9.08-18.4a2.32,2.32,0,0,1,4.17,0l9.09,18.4A5.86,5.86,0,0,0,666,96l20.31,3a2.33,2.33,0,0,1,1.29,4l-14.69,14.32a5.89,5.89,0,0,0-1.69,5.19l3.47,20.23a2.33,2.33,0,0,1-3.38,2.45l-18.17-9.55a5.84,5.84,0,0,0-5.45,0l-18.17,9.55a2.33,2.33,0,0,1-3.38-2.45l3.47-20.23a5.86,5.86,0,0,0-1.68-5.19L613.23,103A2.35,2.35,0,0,1,612.64,100.56Zm-1.43,438.19-14.69,14.33a5.87,5.87,0,0,0-1.69,5.19l3.47,20.22a2.33,2.33,0,0,1-3.38,2.46l-18.16-9.55a5.86,5.86,0,0,0-5.46,0l-18.17,9.54a2.32,2.32,0,0,1-3.37-2.45l3.46-20.22a5.84,5.84,0,0,0-1.68-5.19l-14.7-14.33a2.33,2.33,0,0,1,1.29-4l20.31-2.95a5.89,5.89,0,0,0,4.42-3.21l9.08-18.4a2.33,2.33,0,0,1,4.18,0l9.08,18.4a5.86,5.86,0,0,0,4.41,3.21l20.31,2.95a2.33,2.33,0,0,1,1.29,4Zm-.11-159.92-14.69,14.32a5.89,5.89,0,0,0-1.69,5.19l3.47,20.23a2.33,2.33,0,0,1-3.38,2.45l-18.17-9.55a5.87,5.87,0,0,0-5.45,0L553,421a2.31,2.31,0,0,1-2.45-.17,2.34,2.34,0,0,1-.93-2.28l3.47-20.22a5.87,5.87,0,0,0-1.68-5.2l-14.7-14.32a2.35,2.35,0,0,1-.59-2.39,2.32,2.32,0,0,1,1.88-1.58l20.31-3a5.86,5.86,0,0,0,4.42-3.2l9.08-18.41a2.33,2.33,0,0,1,4.17,0l9.09,18.41a5.82,5.82,0,0,0,4.41,3.2l20.31,3a2.33,2.33,0,0,1,1.29,4ZM610.88,299l-14.69,14.32a5.84,5.84,0,0,0-1.69,5.19L598,338.73a2.33,2.33,0,0,1-3.38,2.45l-18.17-9.55a5.86,5.86,0,0,0-5.46,0l-18.16,9.55a2.33,2.33,0,0,1-3.38-2.46l3.47-20.22a5.84,5.84,0,0,0-1.69-5.19L536.51,299a2.33,2.33,0,0,1,1.29-4l20.31-2.95a5.86,5.86,0,0,0,4.41-3.21l9.08-18.4a2.33,2.33,0,0,1,4.18,0l9.09,18.4a5.86,5.86,0,0,0,4.41,3.21L609.59,295a2.33,2.33,0,0,1,1.29,4Zm0-80.2-14.7,14.33a5.87,5.87,0,0,0-1.69,5.19l3.47,20.22a2.33,2.33,0,0,1-3.38,2.45l-18.16-9.54a5.86,5.86,0,0,0-5.46,0L552.75,261a2.32,2.32,0,0,1-3.38-2.45l3.47-20.22a5.87,5.87,0,0,0-1.69-5.19l-14.7-14.33a2.33,2.33,0,0,1,1.29-4l20.31-2.95a5.89,5.89,0,0,0,4.42-3.21l9.08-18.4a2.33,2.33,0,0,1,4.18,0l9.08,18.4a5.88,5.88,0,0,0,4.41,3.21l20.31,2.95a2.33,2.33,0,0,1,1.3,4ZM535.75,56.48a2.33,2.33,0,0,1,1.88-1.58l20.31-3a5.86,5.86,0,0,0,4.42-3.2l9.08-18.41a2.34,2.34,0,0,1,4.18,0l9.08,18.41a5.82,5.82,0,0,0,4.41,3.2l20.31,3a2.33,2.33,0,0,1,1.29,4L596,73.19a5.89,5.89,0,0,0-1.69,5.19l3.47,20.23a2.33,2.33,0,0,1-3.38,2.45l-18.16-9.55a5.92,5.92,0,0,0-5.46,0l-18.17,9.55a2.32,2.32,0,0,1-3.37-2.45l3.46-20.23A5.86,5.86,0,0,0,551,73.19l-14.7-14.32A2.35,2.35,0,0,1,535.75,56.48Zm-.11,80.08a2.35,2.35,0,0,1,1.88-1.59L557.83,132a5.89,5.89,0,0,0,4.42-3.21l9.08-18.4a2.32,2.32,0,0,1,4.17,0l9.09,18.4A5.86,5.86,0,0,0,589,132L609.31,135a2.33,2.33,0,0,1,1.29,4l-14.69,14.32a5.89,5.89,0,0,0-1.69,5.19l3.47,20.23a2.33,2.33,0,0,1-3.38,2.45l-18.17-9.55a5.84,5.84,0,0,0-5.45,0l-18.17,9.55a2.33,2.33,0,0,1-3.38-2.45l3.47-20.23a5.86,5.86,0,0,0-1.68-5.19L536.23,139A2.35,2.35,0,0,1,535.64,136.56Zm-.81,117.23-14.7,14.33a5.87,5.87,0,0,0-1.69,5.19l3.47,20.22a2.33,2.33,0,0,1-3.38,2.45l-18.16-9.54a5.86,5.86,0,0,0-5.46,0L476.75,296a2.32,2.32,0,0,1-3.38-2.45l3.47-20.22a5.87,5.87,0,0,0-1.69-5.19l-14.7-14.33a2.33,2.33,0,0,1,1.29-4l20.31-2.95a5.89,5.89,0,0,0,4.42-3.21l9.08-18.4a2.33,2.33,0,0,1,4.18,0l9.08,18.4a5.88,5.88,0,0,0,4.41,3.21l20.31,2.95a2.33,2.33,0,0,1,1.3,4ZM459.75,91.48a2.33,2.33,0,0,1,1.88-1.58l20.31-3a5.86,5.86,0,0,0,4.42-3.2l9.08-18.41a2.34,2.34,0,0,1,4.18,0l9.08,18.41a5.82,5.82,0,0,0,4.41,3.2l20.31,3a2.33,2.33,0,0,1,1.29,4L520,108.19a5.89,5.89,0,0,0-1.69,5.19l3.47,20.23a2.33,2.33,0,0,1-3.38,2.45l-18.16-9.55a5.92,5.92,0,0,0-5.46,0l-18.17,9.55a2.32,2.32,0,0,1-3.37-2.45l3.46-20.23a5.86,5.86,0,0,0-1.68-5.19l-14.7-14.32A2.35,2.35,0,0,1,459.75,91.48Zm-.11,80.08a2.35,2.35,0,0,1,1.88-1.59L481.83,167a5.89,5.89,0,0,0,4.42-3.21l9.08-18.4a2.32,2.32,0,0,1,4.17,0l9.09,18.4A5.86,5.86,0,0,0,513,167L533.31,170a2.33,2.33,0,0,1,1.29,4l-14.69,14.32a5.89,5.89,0,0,0-1.69,5.19l3.47,20.23a2.33,2.33,0,0,1-3.38,2.45l-18.17-9.55a5.84,5.84,0,0,0-5.45,0l-18.17,9.55a2.33,2.33,0,0,1-3.38-2.45l3.47-20.23a5.86,5.86,0,0,0-1.68-5.19L460.23,174A2.35,2.35,0,0,1,459.64,171.56Zm-94,341.86,3.47,20.23a2.33,2.33,0,0,1-3.38,2.45l-18.17-9.55a5.9,5.9,0,0,0-5.45,0l-18.17,9.55a2.33,2.33,0,0,1-3.38-2.45L324,513.42a5.86,5.86,0,0,0-1.68-5.19l-14.7-14.32a2.33,2.33,0,0,1,1.29-4L329.22,487a5.81,5.81,0,0,0,4.41-3.21l9.09-18.4a2.32,2.32,0,0,1,4.17,0L356,483.78a5.82,5.82,0,0,0,4.41,3.2l20.31,2.95a2.33,2.33,0,0,1,1.29,4L367.3,508.23A5.84,5.84,0,0,0,365.61,513.42Zm16.49-99.59-14.69,14.32a5.89,5.89,0,0,0-1.69,5.19l3.47,20.23a2.33,2.33,0,0,1-3.38,2.45l-18.17-9.55a5.87,5.87,0,0,0-5.45,0L324,456a2.31,2.31,0,0,1-2.45-.17,2.34,2.34,0,0,1-.93-2.28l3.47-20.22a5.87,5.87,0,0,0-1.68-5.2l-14.7-14.32a2.35,2.35,0,0,1-.59-2.39,2.32,2.32,0,0,1,1.88-1.58l20.31-3a5.86,5.86,0,0,0,4.42-3.2l9.08-18.41a2.33,2.33,0,0,1,4.17,0l9.09,18.41a5.82,5.82,0,0,0,4.41,3.2l20.31,3a2.33,2.33,0,0,1,1.29,4ZM381.88,334l-14.69,14.32a5.84,5.84,0,0,0-1.69,5.19L369,373.73a2.33,2.33,0,0,1-3.38,2.45l-18.17-9.55a5.86,5.86,0,0,0-5.46,0l-18.16,9.55a2.33,2.33,0,0,1-3.38-2.46l3.47-20.22a5.84,5.84,0,0,0-1.69-5.19L307.51,334a2.33,2.33,0,0,1,1.29-4l20.31-2.95a5.86,5.86,0,0,0,4.41-3.21l9.08-18.4a2.33,2.33,0,0,1,4.18,0l9.09,18.4a5.86,5.86,0,0,0,4.41,3.21L380.59,330a2.33,2.33,0,0,1,1.29,4Zm.06,320-14.7,14.32a5.89,5.89,0,0,0-1.69,5.19L369,693.69a2.33,2.33,0,0,1-3.38,2.45l-18.16-9.55a5.86,5.86,0,0,0-5.46,0l-18.16,9.55a2.33,2.33,0,0,1-3.38-2.45L324,673.46a5.89,5.89,0,0,0-1.69-5.19L307.56,654a2.33,2.33,0,0,1,1.29-4l20.31-3a5.89,5.89,0,0,0,4.42-3.21l9.08-18.4a2.33,2.33,0,0,1,4.18,0l9.08,18.4a5.89,5.89,0,0,0,4.42,3.21l20.31,3a2.33,2.33,0,0,1,1.29,4Zm.27-80.2-14.69,14.33a5.87,5.87,0,0,0-1.69,5.19l3.47,20.22a2.33,2.33,0,0,1-3.38,2.46l-18.16-9.55a5.86,5.86,0,0,0-5.46,0l-18.17,9.54a2.32,2.32,0,0,1-3.37-2.45l3.46-20.22a5.84,5.84,0,0,0-1.68-5.19l-14.7-14.33a2.33,2.33,0,0,1,1.29-4l20.31-2.95a5.89,5.89,0,0,0,4.42-3.21l9.08-18.4a2.33,2.33,0,0,1,4.18,0l9.08,18.4a5.86,5.86,0,0,0,4.41,3.21l20.31,2.95a2.33,2.33,0,0,1,1.29,4Zm.76,41.81a2.36,2.36,0,0,1,1.88-1.59l20.31-3a5.89,5.89,0,0,0,4.42-3.21l9.08-18.4a2.33,2.33,0,0,1,4.18,0l9.08,18.4a5.89,5.89,0,0,0,4.42,3.21l20.31,3a2.33,2.33,0,0,1,1.29,4l-14.7,14.32a5.89,5.89,0,0,0-1.69,5.19L445,657.69a2.33,2.33,0,0,1-3.38,2.45l-18.16-9.55a5.86,5.86,0,0,0-5.46,0l-18.16,9.55a2.33,2.33,0,0,1-3.38-2.45L400,637.46a5.89,5.89,0,0,0-1.69-5.19L383.56,618A2.35,2.35,0,0,1,383,615.56Zm58.64-138.14,3.47,20.23a2.33,2.33,0,0,1-3.38,2.45l-18.17-9.55a5.9,5.9,0,0,0-5.45,0l-18.17,9.55a2.33,2.33,0,0,1-3.38-2.45L400,477.42a5.86,5.86,0,0,0-1.68-5.19l-14.7-14.32a2.33,2.33,0,0,1,1.29-4L405.22,451a5.81,5.81,0,0,0,4.41-3.21l9.09-18.4a2.32,2.32,0,0,1,4.17,0L432,447.78a5.82,5.82,0,0,0,4.41,3.2l20.31,2.95a2.33,2.33,0,0,1,1.29,4L443.3,472.23A5.84,5.84,0,0,0,441.61,477.42Zm16.55,220.37-14.7,14.33a5.84,5.84,0,0,0-1.68,5.19l3.46,20.22a2.32,2.32,0,0,1-3.37,2.45l-18.17-9.54a5.86,5.86,0,0,0-5.46,0L400.08,740a2.33,2.33,0,0,1-3.38-2.45l3.47-20.22a5.85,5.85,0,0,0-1.69-5.19l-14.69-14.33a2.33,2.33,0,0,1,1.29-4l20.31-3a5.86,5.86,0,0,0,4.41-3.21l9.08-18.4a2.33,2.33,0,0,1,4.18,0l9.08,18.4a5.89,5.89,0,0,0,4.42,3.21l20.31,3a2.33,2.33,0,0,1,1.29,4Zm0-160-14.69,14.33a5.87,5.87,0,0,0-1.69,5.19l3.47,20.22a2.33,2.33,0,0,1-3.38,2.46l-18.16-9.55a5.86,5.86,0,0,0-5.46,0l-18.17,9.54a2.32,2.32,0,0,1-3.37-2.45l3.46-20.22a5.84,5.84,0,0,0-1.68-5.19l-14.7-14.33a2.33,2.33,0,0,1,1.29-4l20.31-2.95a5.89,5.89,0,0,0,4.42-3.21l9.08-18.4a2.33,2.33,0,0,1,4.18,0l9.08,18.4a5.86,5.86,0,0,0,4.41,3.21l20.31,2.95a2.33,2.33,0,0,1,1.29,4Zm-.11-159.92-14.69,14.32a5.89,5.89,0,0,0-1.69,5.19l3.47,20.23a2.33,2.33,0,0,1-3.38,2.45l-18.17-9.55a5.87,5.87,0,0,0-5.45,0L400,420a2.31,2.31,0,0,1-2.45-.17,2.34,2.34,0,0,1-.93-2.28l3.47-20.22a5.87,5.87,0,0,0-1.68-5.2l-14.7-14.32a2.35,2.35,0,0,1-.59-2.39,2.32,2.32,0,0,1,1.88-1.58l20.31-3a5.86,5.86,0,0,0,4.42-3.2l9.08-18.41a2.33,2.33,0,0,1,4.17,0l9.09,18.41a5.82,5.82,0,0,0,4.41,3.2l20.31,3a2.33,2.33,0,0,1,1.29,4ZM457.88,298l-14.69,14.32a5.84,5.84,0,0,0-1.69,5.19L445,337.73a2.33,2.33,0,0,1-3.38,2.45l-18.17-9.55a5.86,5.86,0,0,0-5.46,0l-18.16,9.55a2.33,2.33,0,0,1-3.38-2.46l3.47-20.22a5.84,5.84,0,0,0-1.69-5.19L383.51,298a2.33,2.33,0,0,1,1.29-4l20.31-2.95a5.86,5.86,0,0,0,4.41-3.21l9.08-18.4a2.33,2.33,0,0,1,4.18,0l9.09,18.4a5.86,5.86,0,0,0,4.41,3.21L456.59,294a2.33,2.33,0,0,1,1.29,4Zm-.05-80.2-14.7,14.33a5.87,5.87,0,0,0-1.69,5.19l3.47,20.22a2.33,2.33,0,0,1-3.38,2.45l-18.16-9.54a5.86,5.86,0,0,0-5.46,0L399.75,260a2.32,2.32,0,0,1-3.38-2.45l3.47-20.22a5.87,5.87,0,0,0-1.69-5.19l-14.7-14.33a2.33,2.33,0,0,1,1.29-4l20.31-2.95a5.89,5.89,0,0,0,4.42-3.21l9.08-18.4a2.33,2.33,0,0,1,4.18,0l9.08,18.4a5.88,5.88,0,0,0,4.41,3.21l20.31,2.95a2.33,2.33,0,0,1,1.3,4ZM382.75,55.48a2.33,2.33,0,0,1,1.88-1.58l20.31-3a5.86,5.86,0,0,0,4.42-3.2l9.08-18.41a2.34,2.34,0,0,1,4.18,0l9.08,18.41a5.82,5.82,0,0,0,4.41,3.2l20.31,3a2.33,2.33,0,0,1,1.29,4L443,72.19a5.89,5.89,0,0,0-1.69,5.19l3.47,20.23a2.33,2.33,0,0,1-3.38,2.45l-18.16-9.55a5.92,5.92,0,0,0-5.46,0l-18.17,9.55a2.32,2.32,0,0,1-3.37-2.45l3.46-20.23A5.86,5.86,0,0,0,398,72.19l-14.7-14.32A2.35,2.35,0,0,1,382.75,55.48Zm-.11,80.08a2.35,2.35,0,0,1,1.88-1.59L404.83,131a5.89,5.89,0,0,0,4.42-3.21l9.08-18.4a2.32,2.32,0,0,1,4.17,0l9.09,18.4A5.86,5.86,0,0,0,436,131L456.31,134a2.33,2.33,0,0,1,1.29,4l-14.69,14.32a5.89,5.89,0,0,0-1.69,5.19l3.47,20.23a2.33,2.33,0,0,1-3.38,2.45l-18.17-9.55a5.84,5.84,0,0,0-5.45,0l-18.17,9.55a2.33,2.33,0,0,1-3.38-2.45l3.47-20.23a5.86,5.86,0,0,0-1.68-5.19L383.23,138A2.35,2.35,0,0,1,382.64,135.56Zm-.81,118.23-14.7,14.33a5.87,5.87,0,0,0-1.69,5.19l3.47,20.22a2.33,2.33,0,0,1-3.38,2.45l-18.16-9.54a5.86,5.86,0,0,0-5.46,0L323.75,296a2.32,2.32,0,0,1-3.38-2.45l3.47-20.22a5.87,5.87,0,0,0-1.69-5.19l-14.7-14.33a2.33,2.33,0,0,1,1.29-4l20.31-2.95a5.89,5.89,0,0,0,4.42-3.21l9.08-18.4a2.33,2.33,0,0,1,4.18,0l9.08,18.4a5.88,5.88,0,0,0,4.41,3.21l20.31,2.95a2.33,2.33,0,0,1,1.3,4ZM306.75,91.48a2.33,2.33,0,0,1,1.88-1.58l20.31-3a5.86,5.86,0,0,0,4.42-3.2l9.08-18.41a2.34,2.34,0,0,1,4.18,0l9.08,18.41a5.82,5.82,0,0,0,4.41,3.2l20.31,3a2.33,2.33,0,0,1,1.29,4L367,108.19a5.89,5.89,0,0,0-1.69,5.19l3.47,20.23a2.33,2.33,0,0,1-3.38,2.45l-18.16-9.55a5.92,5.92,0,0,0-5.46,0l-18.17,9.55a2.32,2.32,0,0,1-3.37-2.45l3.46-20.23a5.86,5.86,0,0,0-1.68-5.19l-14.7-14.32A2.35,2.35,0,0,1,306.75,91.48Zm-.11,80.08a2.35,2.35,0,0,1,1.88-1.59L328.83,167a5.89,5.89,0,0,0,4.42-3.21l9.08-18.4a2.32,2.32,0,0,1,4.17,0l9.09,18.4A5.86,5.86,0,0,0,360,167L380.31,170a2.33,2.33,0,0,1,1.29,4l-14.69,14.32a5.89,5.89,0,0,0-1.69,5.19l3.47,20.23a2.33,2.33,0,0,1-3.38,2.45l-18.17-9.55a5.84,5.84,0,0,0-5.45,0l-18.17,9.55a2.33,2.33,0,0,1-3.38-2.45l3.47-20.23a5.86,5.86,0,0,0-1.68-5.19L307.23,174A2.35,2.35,0,0,1,306.64,171.56Zm-94,350.86,3.47,20.23a2.33,2.33,0,0,1-3.38,2.45l-18.17-9.55a5.9,5.9,0,0,0-5.45,0l-18.17,9.55a2.33,2.33,0,0,1-3.38-2.45L171,522.42a5.86,5.86,0,0,0-1.68-5.19l-14.7-14.32a2.33,2.33,0,0,1,1.29-4L176.22,496a5.81,5.81,0,0,0,4.41-3.21l9.09-18.4a2.32,2.32,0,0,1,4.17,0L203,492.78a5.82,5.82,0,0,0,4.41,3.2l20.31,2.95a2.33,2.33,0,0,1,1.29,4L214.3,517.23A5.84,5.84,0,0,0,212.61,522.42Zm16.49-99.59-14.69,14.32a5.89,5.89,0,0,0-1.69,5.19l3.47,20.23a2.33,2.33,0,0,1-3.38,2.45l-18.17-9.55a5.87,5.87,0,0,0-5.45,0L171,465a2.31,2.31,0,0,1-2.45-.17,2.34,2.34,0,0,1-.93-2.28l3.47-20.22a5.87,5.87,0,0,0-1.68-5.2l-14.7-14.32a2.35,2.35,0,0,1-.59-2.39,2.32,2.32,0,0,1,1.88-1.58l20.31-3a5.86,5.86,0,0,0,4.42-3.2l9.08-18.41a2.33,2.33,0,0,1,4.17,0l9.09,18.41a5.82,5.82,0,0,0,4.41,3.2l20.31,3a2.33,2.33,0,0,1,1.29,4ZM228.88,343l-14.69,14.32a5.84,5.84,0,0,0-1.69,5.19L216,382.73a2.33,2.33,0,0,1-3.38,2.45l-18.17-9.55a5.86,5.86,0,0,0-5.46,0l-18.16,9.55a2.33,2.33,0,0,1-3.38-2.46l3.47-20.22a5.84,5.84,0,0,0-1.69-5.19L154.51,343a2.33,2.33,0,0,1,1.29-4l20.31-2.95a5.86,5.86,0,0,0,4.41-3.21l9.08-18.4a2.33,2.33,0,0,1,4.18,0l9.09,18.4a5.86,5.86,0,0,0,4.41,3.21L227.59,339a2.33,2.33,0,0,1,1.29,4Zm.06,320-14.7,14.32a5.89,5.89,0,0,0-1.69,5.19L216,702.69a2.33,2.33,0,0,1-3.38,2.45l-18.16-9.55a5.86,5.86,0,0,0-5.46,0l-18.16,9.55a2.33,2.33,0,0,1-3.38-2.45L171,682.46a5.89,5.89,0,0,0-1.69-5.19L154.56,663a2.33,2.33,0,0,1,1.29-4l20.31-3a5.89,5.89,0,0,0,4.42-3.21l9.08-18.4a2.33,2.33,0,0,1,4.18,0l9.08,18.4a5.89,5.89,0,0,0,4.42,3.21l20.31,3a2.33,2.33,0,0,1,1.29,4Zm.27-80.2-14.69,14.33a5.87,5.87,0,0,0-1.69,5.19l3.47,20.22a2.33,2.33,0,0,1-3.38,2.46l-18.16-9.55a5.86,5.86,0,0,0-5.46,0l-18.17,9.54a2.32,2.32,0,0,1-3.37-2.45l3.46-20.22a5.84,5.84,0,0,0-1.68-5.19l-14.7-14.33a2.33,2.33,0,0,1,1.29-4l20.31-2.95a5.89,5.89,0,0,0,4.42-3.21l9.08-18.4a2.33,2.33,0,0,1,4.18,0l9.08,18.4a5.86,5.86,0,0,0,4.41,3.21l20.31,2.95a2.33,2.33,0,0,1,1.29,4Zm.76,32.81a2.36,2.36,0,0,1,1.88-1.59l20.31-3a5.89,5.89,0,0,0,4.42-3.21l9.08-18.4a2.33,2.33,0,0,1,4.18,0l9.08,18.4a5.89,5.89,0,0,0,4.42,3.21l20.31,3a2.33,2.33,0,0,1,1.29,4l-14.7,14.32a5.89,5.89,0,0,0-1.69,5.19L292,657.69a2.33,2.33,0,0,1-3.38,2.45l-18.16-9.55a5.86,5.86,0,0,0-5.46,0l-18.16,9.55a2.33,2.33,0,0,1-3.38-2.45L247,637.46a5.89,5.89,0,0,0-1.69-5.19L230.56,618A2.35,2.35,0,0,1,230,615.56Zm58.64-138.14,3.47,20.23a2.33,2.33,0,0,1-3.38,2.45l-18.17-9.55a5.9,5.9,0,0,0-5.45,0l-18.17,9.55a2.33,2.33,0,0,1-3.38-2.45L247,477.42a5.86,5.86,0,0,0-1.68-5.19l-14.7-14.32a2.33,2.33,0,0,1,1.29-4L252.22,451a5.81,5.81,0,0,0,4.41-3.21l9.09-18.4a2.32,2.32,0,0,1,4.17,0L279,447.78a5.82,5.82,0,0,0,4.41,3.2l20.31,2.95a2.33,2.33,0,0,1,1.29,4L290.3,472.23A5.84,5.84,0,0,0,288.61,477.42Zm16.55,220.37-14.7,14.33a5.84,5.84,0,0,0-1.68,5.19l3.46,20.22a2.32,2.32,0,0,1-3.37,2.45l-18.17-9.54a5.86,5.86,0,0,0-5.46,0L247.08,740a2.33,2.33,0,0,1-3.38-2.45l3.47-20.22a5.85,5.85,0,0,0-1.69-5.19l-14.69-14.33a2.33,2.33,0,0,1,1.29-4l20.31-3a5.86,5.86,0,0,0,4.41-3.21l9.08-18.4a2.33,2.33,0,0,1,4.18,0l9.08,18.4a5.89,5.89,0,0,0,4.42,3.21l20.31,3a2.33,2.33,0,0,1,1.29,4Zm0-160-14.69,14.33a5.87,5.87,0,0,0-1.69,5.19l3.47,20.22a2.33,2.33,0,0,1-3.38,2.46l-18.16-9.55a5.86,5.86,0,0,0-5.46,0l-18.17,9.54a2.32,2.32,0,0,1-3.37-2.45l3.46-20.22a5.84,5.84,0,0,0-1.68-5.19l-14.7-14.33a2.33,2.33,0,0,1,1.29-4l20.31-2.95a5.89,5.89,0,0,0,4.42-3.21l9.08-18.4a2.33,2.33,0,0,1,4.18,0l9.08,18.4a5.86,5.86,0,0,0,4.41,3.21l20.31,2.95a2.33,2.33,0,0,1,1.29,4Zm-.11-159.92-14.69,14.32a5.89,5.89,0,0,0-1.69,5.19l3.47,20.23a2.33,2.33,0,0,1-3.38,2.45l-18.17-9.55a5.87,5.87,0,0,0-5.45,0L247,420a2.31,2.31,0,0,1-2.45-.17,2.34,2.34,0,0,1-.93-2.28l3.47-20.22a5.87,5.87,0,0,0-1.68-5.2l-14.7-14.32a2.35,2.35,0,0,1-.59-2.39,2.32,2.32,0,0,1,1.88-1.58l20.31-3a5.86,5.86,0,0,0,4.42-3.2l9.08-18.41a2.33,2.33,0,0,1,4.17,0l9.09,18.41a5.82,5.82,0,0,0,4.41,3.2l20.31,3a2.33,2.33,0,0,1,1.29,4ZM304.88,298l-14.69,14.32a5.84,5.84,0,0,0-1.69,5.19L292,337.73a2.33,2.33,0,0,1-3.38,2.45l-18.17-9.55a5.86,5.86,0,0,0-5.46,0l-18.16,9.55a2.33,2.33,0,0,1-3.38-2.46l3.47-20.22a5.84,5.84,0,0,0-1.69-5.19L230.51,298a2.33,2.33,0,0,1,1.29-4l20.31-2.95a5.86,5.86,0,0,0,4.41-3.21l9.08-18.4a2.33,2.33,0,0,1,4.18,0l9.09,18.4a5.86,5.86,0,0,0,4.41,3.21L303.59,294a2.33,2.33,0,0,1,1.29,4Zm-.05-80.2-14.7,14.33a5.87,5.87,0,0,0-1.69,5.19l3.47,20.22a2.33,2.33,0,0,1-3.38,2.45l-18.16-9.54a5.86,5.86,0,0,0-5.46,0L246.75,260a2.32,2.32,0,0,1-3.38-2.45l3.47-20.22a5.87,5.87,0,0,0-1.69-5.19l-14.7-14.33a2.33,2.33,0,0,1,1.29-4l20.31-2.95a5.89,5.89,0,0,0,4.42-3.21l9.08-18.4a2.33,2.33,0,0,1,4.18,0l9.08,18.4a5.88,5.88,0,0,0,4.41,3.21l20.31,2.95a2.33,2.33,0,0,1,1.3,4ZM229.75,55.48a2.33,2.33,0,0,1,1.88-1.58l20.31-3a5.86,5.86,0,0,0,4.42-3.2l9.08-18.41a2.34,2.34,0,0,1,4.18,0l9.08,18.41a5.82,5.82,0,0,0,4.41,3.2l20.31,3a2.33,2.33,0,0,1,1.29,4L290,72.19a5.89,5.89,0,0,0-1.69,5.19l3.47,20.23a2.33,2.33,0,0,1-3.38,2.45l-18.16-9.55a5.92,5.92,0,0,0-5.46,0l-18.17,9.55a2.32,2.32,0,0,1-3.37-2.45l3.46-20.23A5.86,5.86,0,0,0,245,72.19l-14.7-14.32A2.35,2.35,0,0,1,229.75,55.48Zm-.11,80.08a2.35,2.35,0,0,1,1.88-1.59L251.83,131a5.89,5.89,0,0,0,4.42-3.21l9.08-18.4a2.32,2.32,0,0,1,4.17,0l9.09,18.4A5.86,5.86,0,0,0,283,131L303.31,134a2.33,2.33,0,0,1,1.29,4l-14.69,14.32a5.89,5.89,0,0,0-1.69,5.19l3.47,20.23a2.33,2.33,0,0,1-3.38,2.45l-18.17-9.55a5.84,5.84,0,0,0-5.45,0l-18.17,9.55a2.33,2.33,0,0,1-3.38-2.45l3.47-20.23a5.86,5.86,0,0,0-1.68-5.19L230.23,138A2.35,2.35,0,0,1,229.64,135.56Zm-.81,127.23-14.7,14.33a5.87,5.87,0,0,0-1.69,5.19l3.47,20.22a2.33,2.33,0,0,1-3.38,2.45l-18.16-9.54a5.86,5.86,0,0,0-5.46,0L170.75,305a2.32,2.32,0,0,1-3.38-2.45l3.47-20.22a5.87,5.87,0,0,0-1.69-5.19l-14.7-14.33a2.33,2.33,0,0,1,1.29-4l20.31-2.95a5.89,5.89,0,0,0,4.42-3.21l9.08-18.4a2.33,2.33,0,0,1,4.18,0l9.08,18.4a5.88,5.88,0,0,0,4.41,3.21l20.31,2.95a2.33,2.33,0,0,1,1.3,4ZM153.75,100.48a2.33,2.33,0,0,1,1.88-1.58l20.31-3a5.86,5.86,0,0,0,4.42-3.2l9.08-18.41a2.34,2.34,0,0,1,4.18,0l9.08,18.41a5.82,5.82,0,0,0,4.41,3.2l20.31,3a2.33,2.33,0,0,1,1.29,4L214,117.19a5.89,5.89,0,0,0-1.69,5.19l3.47,20.23a2.33,2.33,0,0,1-3.38,2.45l-18.16-9.55a5.92,5.92,0,0,0-5.46,0l-18.17,9.55a2.32,2.32,0,0,1-3.37-2.45l3.46-20.23a5.86,5.86,0,0,0-1.68-5.19l-14.7-14.32A2.35,2.35,0,0,1,153.75,100.48Zm-.11,80.08a2.35,2.35,0,0,1,1.88-1.59L175.83,176a5.89,5.89,0,0,0,4.42-3.21l9.08-18.4a2.32,2.32,0,0,1,4.17,0l9.09,18.4A5.86,5.86,0,0,0,207,176L227.31,179a2.33,2.33,0,0,1,1.29,4l-14.69,14.32a5.89,5.89,0,0,0-1.69,5.19l3.47,20.23a2.33,2.33,0,0,1-3.38,2.45l-18.17-9.55a5.84,5.84,0,0,0-5.45,0l-18.17,9.55a2.33,2.33,0,0,1-3.38-2.45l3.47-20.23a5.86,5.86,0,0,0-1.68-5.19L154.23,183A2.35,2.35,0,0,1,153.64,180.56ZM76,582.83l-14.7,14.32a5.86,5.86,0,0,0-1.68,5.19l3.47,20.23A2.33,2.33,0,0,1,59.73,625l-18.17-9.55a5.89,5.89,0,0,0-5.46,0L17.94,625a2.31,2.31,0,0,1-2.45-.17,2.34,2.34,0,0,1-.93-2.28L18,602.35a5.85,5.85,0,0,0-1.69-5.2L1.65,582.83a2.33,2.33,0,0,1,1.29-4l20.31-3a5.82,5.82,0,0,0,4.41-3.2l9.08-18.41a2.34,2.34,0,0,1,4.18,0L50,572.7a5.86,5.86,0,0,0,4.42,3.2l20.31,3a2.32,2.32,0,0,1,1.88,1.58A2.35,2.35,0,0,1,76,582.83ZM59.42,522.5l3.46,20.23a2.33,2.33,0,0,1-3.38,2.45l-18.16-9.55a5.86,5.86,0,0,0-5.46,0l-18.16,9.55a2.33,2.33,0,0,1-3.38-2.46l3.47-20.22a5.89,5.89,0,0,0-1.69-5.19L1.43,503a2.33,2.33,0,0,1,1.29-4L23,496.06a5.87,5.87,0,0,0,4.42-3.21l9.08-18.4a2.33,2.33,0,0,1,4.18,0l9.08,18.4a5.89,5.89,0,0,0,4.42,3.21L74.51,499a2.33,2.33,0,0,1,1.29,4L61.1,517.31A5.86,5.86,0,0,0,59.42,522.5Zm76.19-45.08,3.47,20.23a2.33,2.33,0,0,1-3.38,2.45l-18.17-9.55a5.9,5.9,0,0,0-5.45,0L93.91,500.1a2.33,2.33,0,0,1-3.38-2.45L94,477.42a5.86,5.86,0,0,0-1.68-5.19l-14.7-14.32a2.33,2.33,0,0,1,1.29-4L99.22,451a5.81,5.81,0,0,0,4.41-3.21l9.09-18.4a2.32,2.32,0,0,1,4.17,0L126,447.78a5.82,5.82,0,0,0,4.41,3.2l20.31,2.95a2.33,2.33,0,0,1,1.29,4L137.3,472.23A5.84,5.84,0,0,0,135.61,477.42ZM77,615.56A2.36,2.36,0,0,1,78.85,614l20.31-3a5.89,5.89,0,0,0,4.42-3.21l9.08-18.4a2.33,2.33,0,0,1,4.18,0l9.08,18.4a5.89,5.89,0,0,0,4.42,3.21l20.31,3a2.33,2.33,0,0,1,1.29,4l-14.7,14.32a5.89,5.89,0,0,0-1.69,5.19L139,657.69a2.33,2.33,0,0,1-3.38,2.45l-18.16-9.55a5.86,5.86,0,0,0-5.46,0l-18.16,9.55a2.33,2.33,0,0,1-3.38-2.45L94,637.46a5.89,5.89,0,0,0-1.69-5.19L77.56,618A2.35,2.35,0,0,1,77,615.56Zm75.19,82.23-14.7,14.33a5.84,5.84,0,0,0-1.68,5.19l3.46,20.22a2.32,2.32,0,0,1-3.37,2.45l-18.17-9.54a5.86,5.86,0,0,0-5.46,0L94.08,740a2.33,2.33,0,0,1-3.38-2.45l3.47-20.22a5.85,5.85,0,0,0-1.69-5.19L77.79,697.79a2.33,2.33,0,0,1,1.29-4l20.31-3a5.86,5.86,0,0,0,4.41-3.21l9.08-18.4a2.33,2.33,0,0,1,4.18,0l9.08,18.4a5.89,5.89,0,0,0,4.42,3.21l20.31,3a2.33,2.33,0,0,1,1.29,4Zm.05-160-14.69,14.33a5.87,5.87,0,0,0-1.69,5.19l3.47,20.22a2.33,2.33,0,0,1-3.38,2.46l-18.16-9.55a5.86,5.86,0,0,0-5.46,0l-18.17,9.54a2.32,2.32,0,0,1-3.37-2.45l3.46-20.22a5.84,5.84,0,0,0-1.68-5.19l-14.7-14.33a2.33,2.33,0,0,1,1.29-4l20.31-2.95a5.89,5.89,0,0,0,4.42-3.21l9.08-18.4a2.33,2.33,0,0,1,4.18,0l9.08,18.4a5.86,5.86,0,0,0,4.41,3.21l20.31,2.95a2.33,2.33,0,0,1,1.29,4Zm-.11-159.92-14.69,14.32a5.89,5.89,0,0,0-1.69,5.19l3.47,20.23a2.33,2.33,0,0,1-3.38,2.45l-18.17-9.55a5.87,5.87,0,0,0-5.45,0L94,420a2.31,2.31,0,0,1-2.45-.17,2.34,2.34,0,0,1-.93-2.28l3.47-20.22a5.87,5.87,0,0,0-1.68-5.2l-14.7-14.32a2.35,2.35,0,0,1-.59-2.39A2.32,2.32,0,0,1,79,373.86l20.31-3a5.86,5.86,0,0,0,4.42-3.2l9.08-18.41a2.33,2.33,0,0,1,4.17,0l9.09,18.41a5.82,5.82,0,0,0,4.41,3.2l20.31,3a2.33,2.33,0,0,1,1.29,4ZM151.88,298l-14.69,14.32a5.84,5.84,0,0,0-1.69,5.19L139,337.73a2.33,2.33,0,0,1-3.38,2.45l-18.17-9.55a5.86,5.86,0,0,0-5.46,0L93.8,340.18a2.33,2.33,0,0,1-3.38-2.46l3.47-20.22a5.84,5.84,0,0,0-1.69-5.19L77.51,298a2.33,2.33,0,0,1,1.29-4l20.31-2.95a5.86,5.86,0,0,0,4.41-3.21l9.08-18.4a2.33,2.33,0,0,1,4.18,0l9.09,18.4a5.86,5.86,0,0,0,4.41,3.21L150.59,294a2.33,2.33,0,0,1,1.29,4Zm0-80.2-14.7,14.33a5.87,5.87,0,0,0-1.69,5.19l3.47,20.22a2.33,2.33,0,0,1-3.38,2.45l-18.16-9.54a5.86,5.86,0,0,0-5.46,0L93.75,260a2.32,2.32,0,0,1-3.38-2.45l3.47-20.22a5.87,5.87,0,0,0-1.69-5.19l-14.7-14.33a2.33,2.33,0,0,1,1.29-4l20.31-2.95a5.89,5.89,0,0,0,4.42-3.21l9.08-18.4a2.33,2.33,0,0,1,4.18,0l9.08,18.4a5.88,5.88,0,0,0,4.41,3.21l20.31,2.95a2.33,2.33,0,0,1,1.3,4ZM76.75,55.48a2.33,2.33,0,0,1,1.88-1.58l20.31-3a5.86,5.86,0,0,0,4.42-3.2l9.08-18.41a2.34,2.34,0,0,1,4.18,0l9.08,18.41a5.82,5.82,0,0,0,4.41,3.2l20.31,3a2.33,2.33,0,0,1,1.29,4L137,72.19a5.89,5.89,0,0,0-1.69,5.19l3.47,20.23a2.33,2.33,0,0,1-3.38,2.45l-18.16-9.55a5.92,5.92,0,0,0-5.46,0l-18.17,9.55a2.32,2.32,0,0,1-3.37-2.45l3.46-20.23A5.86,5.86,0,0,0,92,72.19L77.34,57.87A2.35,2.35,0,0,1,76.75,55.48Zm-.11,80.08A2.35,2.35,0,0,1,78.52,134L98.83,131a5.89,5.89,0,0,0,4.42-3.21l9.08-18.4a2.32,2.32,0,0,1,4.17,0l9.09,18.4A5.86,5.86,0,0,0,130,131L150.31,134a2.33,2.33,0,0,1,1.29,4l-14.69,14.32a5.89,5.89,0,0,0-1.69,5.19l3.47,20.23a2.33,2.33,0,0,1-3.38,2.45l-18.17-9.55a5.84,5.84,0,0,0-5.45,0l-18.17,9.55a2.33,2.33,0,0,1-3.38-2.45l3.47-20.23a5.86,5.86,0,0,0-1.68-5.19L77.23,138A2.35,2.35,0,0,1,76.64,135.56Zm-.73,287.35-14.7,14.32a5.86,5.86,0,0,0-1.68,5.19L63,462.65a2.32,2.32,0,0,1-3.37,2.45l-18.17-9.55a5.92,5.92,0,0,0-5.46,0L17.83,465.1a2.33,2.33,0,0,1-3.38-2.45l3.47-20.23a5.87,5.87,0,0,0-1.69-5.19L1.54,422.91a2.33,2.33,0,0,1,1.29-4L23.14,416a5.81,5.81,0,0,0,4.41-3.21l9.08-18.4a2.33,2.33,0,0,1,4.18,0l9.08,18.41a5.86,5.86,0,0,0,4.42,3.2l20.31,2.95a2.33,2.33,0,0,1,1.29,4ZM.56,100.56A2.33,2.33,0,0,1,2.44,99l20.31-3a5.86,5.86,0,0,0,4.41-3.21l9.08-18.4a2.33,2.33,0,0,1,4.18,0l9.08,18.4A5.89,5.89,0,0,0,53.92,96l20.31,3a2.33,2.33,0,0,1,1.29,4l-14.7,14.32a5.86,5.86,0,0,0-1.68,5.19l3.47,20.23a2.33,2.33,0,0,1-3.38,2.45l-18.17-9.55a5.86,5.86,0,0,0-5.46,0l-18.16,9.55a2.33,2.33,0,0,1-3.38-2.45l3.47-20.23a5.84,5.84,0,0,0-1.69-5.19L1.15,103A2.31,2.31,0,0,1,.56,100.56ZM.45,180.64a2.32,2.32,0,0,1,1.88-1.59l20.31-3a5.86,5.86,0,0,0,4.41-3.21l9.08-18.4a2.35,2.35,0,0,1,2.09-1.3,2.32,2.32,0,0,1,2.09,1.3l9.08,18.4a5.89,5.89,0,0,0,4.42,3.21l20.31,3a2.33,2.33,0,0,1,1.29,4l-14.7,14.33A5.86,5.86,0,0,0,59,202.54l3.46,20.22a2.32,2.32,0,0,1-3.37,2.46L41,215.67a5.86,5.86,0,0,0-5.46,0l-18.16,9.55A2.33,2.33,0,0,1,14,222.76l3.47-20.22a5.89,5.89,0,0,0-1.69-5.19L1,183A2.29,2.29,0,0,1,.45,180.64Zm.22,79.84a2.31,2.31,0,0,1,1.88-1.58l20.31-3a5.82,5.82,0,0,0,4.41-3.2l9.09-18.41a2.33,2.33,0,0,1,4.17,0l9.09,18.41a5.82,5.82,0,0,0,4.41,3.2l20.31,3a2.31,2.31,0,0,1,1.88,1.58,2.33,2.33,0,0,1-.59,2.39L60.94,277.19a5.84,5.84,0,0,0-1.69,5.19l3.47,20.23a2.33,2.33,0,0,1-3.38,2.45l-18.17-9.55a5.9,5.9,0,0,0-5.45,0l-18.17,9.55a2.33,2.33,0,0,1-3.38-2.45l3.47-20.23A5.84,5.84,0,0,0,16,277.19L1.26,262.87A2.33,2.33,0,0,1,.67,260.48Zm0,80.2a2.35,2.35,0,0,1,1.88-1.59l20.31-2.95a5.89,5.89,0,0,0,4.42-3.21l9.08-18.4a2.33,2.33,0,0,1,4.18,0l9.08,18.4a5.87,5.87,0,0,0,4.42,3.21l20.3,2.95a2.33,2.33,0,0,1,1.3,4L61,357.39a5.89,5.89,0,0,0-1.69,5.19l3.47,20.22a2.33,2.33,0,0,1-3.38,2.46l-18.16-9.55a5.86,5.86,0,0,0-5.46,0l-18.16,9.55a2.33,2.33,0,0,1-3.38-2.46l3.47-20.22A5.89,5.89,0,0,0,16,357.39L1.31,343.06A2.34,2.34,0,0,1,.72,340.68Zm.06,320a2.32,2.32,0,0,1,1.88-1.59L23,656.1a5.86,5.86,0,0,0,4.41-3.21l9.09-18.4a2.32,2.32,0,0,1,4.17,0l9.09,18.4a5.86,5.86,0,0,0,4.41,3.21l20.31,2.95a2.33,2.33,0,0,1,1.29,4L61.05,677.35a5.84,5.84,0,0,0-1.69,5.19l3.47,20.22a2.33,2.33,0,0,1-3.38,2.46l-18.17-9.55a5.84,5.84,0,0,0-5.45,0l-18.17,9.55a2.33,2.33,0,0,1-3.38-2.46l3.47-20.22a5.86,5.86,0,0,0-1.68-5.19L1.37,663A2.33,2.33,0,0,1,.78,660.64Z"/><path d="M347.7,766.44a5.86,5.86,0,0,0-5.46,0l-3,1.56h11.41Z"/><path d="M500.7,766.44a5.86,5.86,0,0,0-5.46,0l-3,1.56h11.41Z"/></svg>