<svg id="Layer_1" data-name="Layer 1" xmlns="http://www.w3.org/2000/svg" viewBox="0 0 1366 768"><path d="M1149.8,299.6a1.82,1.82,0,0,0,1.82-1.82,12.61,12.61,0,0,1,3.73-9l10.91-10.91a1.82,1.82,0,0,0-2.58-2.57l-10.9,10.91a16.22,16.22,0,0,0-4.8,11.57A1.81,1.81,0,0,0,1149.8,299.6Z"/><path d="M1208.64,450.63a16.37,16.37,0,0,0-23.14-23.15l-15.08,15.08,23.14,23.14Z"/><path d="M1208.64,537.63a16.37,16.37,0,0,0-23.14-23.15l-15.08,15.08,23.14,23.14Z"/><path d="M1208.64,276.63a16.37,16.37,0,0,0-23.14-23.15l-15.08,15.08,23.14,23.14Z"/><path d="M1149.8,473.6a1.82,1.82,0,0,0,1.82-1.82,12.61,12.61,0,0,1,3.73-9l10.91-10.91a1.82,1.82,0,0,0-2.58-2.57l-10.9,10.91a16.22,16.22,0,0,0-4.8,11.57A1.81,1.81,0,0,0,1149.8,473.6Z"/><path d="M1230.05,136.77a1.83,1.83,0,0,0,1.82-1.82,12.61,12.61,0,0,1,3.73-9L1246.51,115a1.82,1.82,0,0,0-2.58-2.57L1233,123.38a16.26,16.26,0,0,0-4.79,11.57A1.82,1.82,0,0,0,1230.05,136.77Z"/><path d="M1149.8,560.6a1.82,1.82,0,0,0,1.82-1.82,12.61,12.61,0,0,1,3.73-9l10.91-10.91a1.82,1.82,0,0,0-2.58-2.57l-10.9,10.91a16.22,16.22,0,0,0-4.8,11.57A1.81,1.81,0,0,0,1149.8,560.6Z"/><path d="M1149.8,212.6a1.82,1.82,0,0,0,1.82-1.82,12.61,12.61,0,0,1,3.73-9l10.91-10.91a1.82,1.82,0,1,0-2.58-2.57l-10.9,10.91a16.22,16.22,0,0,0-4.8,11.57A1.81,1.81,0,0,0,1149.8,212.6Z"/><path d="M1209,102.63a16.36,16.36,0,1,0-23.13-23.15l-15.08,15.08,23.14,23.14Z"/><path d="M1150.13,125.6a1.81,1.81,0,0,0,1.82-1.82,12.66,12.66,0,0,1,3.73-9l10.91-10.91a1.82,1.82,0,0,0-2.57-2.57l-10.91,10.91a16.26,16.26,0,0,0-4.8,11.57A1.82,1.82,0,0,0,1150.13,125.6Z"/><path d="M1208.64,189.63a16.37,16.37,0,0,0-23.14-23.15l-15.08,15.08,23.14,23.14Z"/><path d="M1288.89,113.79a16.36,16.36,0,0,0-23.14-23.14l-15.08,15.08,23.14,23.14Z"/><path d="M1127.64,440.63a16.37,16.37,0,0,0-23.14-23.15l-15.08,15.08,23.14,23.14Z"/><path d="M1068.8,463.6a1.82,1.82,0,0,0,1.82-1.82,12.61,12.61,0,0,1,3.73-9l10.91-10.91a1.82,1.82,0,0,0-2.58-2.57l-10.9,10.91a16.22,16.22,0,0,0-4.8,11.57A1.81,1.81,0,0,0,1068.8,463.6Z"/><path d="M1128,92.63a16.36,16.36,0,1,0-23.13-23.15l-15.08,15.08,23.14,23.14Z"/><path d="M1068.8,550.6a1.82,1.82,0,0,0,1.82-1.82,12.61,12.61,0,0,1,3.73-9l10.91-10.91a1.82,1.82,0,0,0-2.58-2.57l-10.9,10.91a16.22,16.22,0,0,0-4.8,11.57A1.81,1.81,0,0,0,1068.8,550.6Z"/><path d="M1068.8,289.6a1.82,1.82,0,0,0,1.82-1.82,12.61,12.61,0,0,1,3.73-9l10.91-10.91a1.82,1.82,0,0,0-2.58-2.57l-10.9,10.91a16.22,16.22,0,0,0-4.8,11.57A1.81,1.81,0,0,0,1068.8,289.6Z"/><path d="M1127.64,527.63a16.37,16.37,0,0,0-23.14-23.15l-15.08,15.08,23.14,23.14Z"/><path d="M1069.13,115.6a1.81,1.81,0,0,0,1.82-1.82,12.66,12.66,0,0,1,3.73-9l10.91-10.91A1.82,1.82,0,0,0,1083,91.3l-10.91,10.91a16.26,16.26,0,0,0-4.8,11.57A1.82,1.82,0,0,0,1069.13,115.6Z"/><path d="M1127.64,179.63a16.37,16.37,0,0,0-23.14-23.15l-15.08,15.08,23.14,23.14Z"/><path d="M1068.8,202.6a1.82,1.82,0,0,0,1.82-1.82,12.61,12.61,0,0,1,3.73-9l10.91-10.91a1.82,1.82,0,1,0-2.58-2.57l-10.9,10.91a16.22,16.22,0,0,0-4.8,11.57A1.81,1.81,0,0,0,1068.8,202.6Z"/><path d="M1127.64,266.63a16.37,16.37,0,0,0-23.14-23.15l-15.08,15.08,23.14,23.14Z"/><path d="M1243.77,373.47l-10.91,10.91a16.26,16.26,0,0,0-4.8,11.57,1.82,1.82,0,1,0,3.64,0,12.66,12.66,0,0,1,3.73-9L1246.34,376a1.82,1.82,0,0,0-2.57-2.57Z"/><path d="M1277.16,259.86a16.24,16.24,0,0,0-11.57,4.79l-15.08,15.08,23.14,23.14,15.08-15.08a16.36,16.36,0,0,0-11.57-27.93Z"/><path d="M722.64,299.63a16.37,16.37,0,0,0-23.14-23.15l-15.08,15.08,23.14,23.14Z"/><path d="M1288.73,548.79a16.36,16.36,0,0,0-23.14-23.14l-15.08,15.08,23.14,23.14Z"/><path d="M1197.41,335.69a16.24,16.24,0,0,0-11.57,4.79l-15.08,15.08,23.14,23.14L1209,363.63a16.36,16.36,0,0,0-11.56-27.94Z"/><path d="M1277.49,172.86a16.26,16.26,0,0,0-11.57,4.79l-15.08,15.08L1274,215.87l15.08-15.08a16.36,16.36,0,0,0-11.57-27.93Z"/><path d="M1277.16,346.86a16.24,16.24,0,0,0-11.57,4.79l-15.08,15.08,23.14,23.14,15.08-15.08a16.36,16.36,0,0,0-11.57-27.93Z"/><path d="M1083,352.3l-10.91,10.91a16.26,16.26,0,0,0-4.8,11.57,1.82,1.82,0,1,0,3.64,0,12.66,12.66,0,0,1,3.73-9l10.91-10.91a1.82,1.82,0,0,0-2.57-2.57Z"/><path d="M1243.77,286.47l-10.91,10.91a16.26,16.26,0,0,0-4.8,11.57,1.82,1.82,0,1,0,3.64,0,12.66,12.66,0,0,1,3.73-9L1246.34,289a1.82,1.82,0,0,0-2.57-2.57Z"/><path d="M1116.41,325.69a16.24,16.24,0,0,0-11.57,4.79l-15.08,15.08,23.14,23.14L1128,353.63a16.36,16.36,0,0,0-11.56-27.94Z"/><path d="M1163.85,710l-10.91,10.91a16.26,16.26,0,0,0-4.79,11.57,1.82,1.82,0,1,0,3.63,0,12.66,12.66,0,0,1,3.73-9l10.91-10.91a1.82,1.82,0,1,0-2.57-2.57Z"/><path d="M1197.24,683.36a16.26,16.26,0,0,0-11.57,4.79l-15.08,15.08,23.14,23.14,15.08-15.08a16.36,16.36,0,0,0-11.57-27.93Z"/><path d="M1164,362.3l-10.91,10.91a16.26,16.26,0,0,0-4.8,11.57,1.82,1.82,0,1,0,3.64,0,12.66,12.66,0,0,1,3.73-9l10.91-10.91a1.82,1.82,0,0,0-2.57-2.57Z"/><path d="M1244.1,460.47l-10.91,10.91A16.26,16.26,0,0,0,1228.4,483a1.82,1.82,0,1,0,3.63,0,12.66,12.66,0,0,1,3.73-9L1246.67,463a1.82,1.82,0,1,0-2.57-2.57Z"/><path d="M1277.32,694.86a16.26,16.26,0,0,0-11.57,4.79l-15.08,15.08,23.14,23.14,15.08-15.08a16.36,16.36,0,0,0-11.57-27.93Z"/><path d="M1244.1,199.47l-10.91,10.91A16.26,16.26,0,0,0,1228.4,222a1.82,1.82,0,1,0,3.63,0,12.66,12.66,0,0,1,3.73-9L1246.67,202a1.82,1.82,0,0,0-2.57-2.57Z"/><path d="M1277.49,433.86a16.26,16.26,0,0,0-11.57,4.79l-15.08,15.08L1274,476.87l15.08-15.08a16.36,16.36,0,0,0-11.57-27.93Z"/><path d="M1243.93,721.47,1233,732.38a16.26,16.26,0,0,0-4.79,11.57,1.82,1.82,0,0,0,3.64,0,12.61,12.61,0,0,1,3.73-9L1246.51,724a1.82,1.82,0,0,0-2.58-2.57Z"/><path d="M1229.88,571.77a1.82,1.82,0,0,0,1.82-1.82,12.66,12.66,0,0,1,3.73-9L1246.34,550a1.82,1.82,0,0,0-2.57-2.57l-10.91,10.91a16.26,16.26,0,0,0-4.8,11.57A1.83,1.83,0,0,0,1229.88,571.77Z"/><path d="M1197.24,596.69a16.26,16.26,0,0,0-11.57,4.79l-15.08,15.08,23.14,23.14,15.08-15.07a16.37,16.37,0,0,0-11.57-27.94Z"/><path d="M1243.77,634.47l-10.91,10.91a16.26,16.26,0,0,0-4.8,11.57,1.82,1.82,0,0,0,3.64,0,12.66,12.66,0,0,1,3.73-9L1246.34,637a1.82,1.82,0,0,0-2.57-2.57Z"/><path d="M1277.16,607.86a16.24,16.24,0,0,0-11.57,4.79l-15.08,15.08,23.14,23.14,15.08-15.08a16.36,16.36,0,0,0-11.57-27.93Z"/><path d="M1163.85,623.3l-10.91,10.91a16.26,16.26,0,0,0-4.79,11.57,1.82,1.82,0,1,0,3.63,0,12.66,12.66,0,0,1,3.73-9l10.91-10.91a1.82,1.82,0,0,0-2.57-2.57Z"/><path d="M663.8,235.6a1.82,1.82,0,0,0,1.82-1.82,12.61,12.61,0,0,1,3.73-9l10.91-10.91a1.82,1.82,0,1,0-2.58-2.57l-10.9,10.91a16.22,16.22,0,0,0-4.8,11.57A1.81,1.81,0,0,0,663.8,235.6Z"/><path d="M746.05,161.77a1.83,1.83,0,0,0,1.82-1.82,12.61,12.61,0,0,1,3.73-9L762.51,140a1.82,1.82,0,0,0-2.58-2.57L749,148.38A16.26,16.26,0,0,0,744.23,160,1.82,1.82,0,0,0,746.05,161.77Z"/><path d="M804.73,312.79a16.36,16.36,0,0,0-23.14-23.14l-15.08,15.08,23.14,23.14Z"/><path d="M804.73,399.79a16.36,16.36,0,0,0-23.14-23.14l-15.08,15.08,23.14,23.14Z"/><path d="M804.89,138.79a16.36,16.36,0,0,0-23.14-23.14l-15.08,15.08,23.14,23.14Z"/><path d="M745.88,335.77A1.82,1.82,0,0,0,747.7,334a12.66,12.66,0,0,1,3.73-9L762.34,314a1.82,1.82,0,1,0-2.57-2.57l-10.91,10.91a16.26,16.26,0,0,0-4.8,11.57A1.83,1.83,0,0,0,745.88,335.77Z"/><path d="M745.88,422.77A1.82,1.82,0,0,0,747.7,421a12.66,12.66,0,0,1,3.73-9L762.34,401a1.82,1.82,0,1,0-2.57-2.57l-10.91,10.91a16.26,16.26,0,0,0-4.8,11.57A1.83,1.83,0,0,0,745.88,422.77Z"/><path d="M760.1,224.47l-10.91,10.91A16.26,16.26,0,0,0,744.4,247a1.82,1.82,0,1,0,3.63,0,12.66,12.66,0,0,1,3.73-9L762.67,227a1.82,1.82,0,0,0-2.57-2.57Z"/><path d="M826.8,607.6a1.82,1.82,0,0,0,1.82-1.82,12.61,12.61,0,0,1,3.73-9l10.91-10.91a1.82,1.82,0,0,0-2.58-2.57l-10.9,10.91a16.22,16.22,0,0,0-4.8,11.57A1.81,1.81,0,0,0,826.8,607.6Z"/><path d="M793.49,197.86a16.26,16.26,0,0,0-11.57,4.79l-15.08,15.08L790,240.87l15.08-15.08a16.36,16.36,0,0,0-11.57-27.93Z"/><path d="M804.89,51.79a16.36,16.36,0,0,0-23.14-23.14L766.67,43.73l23.14,23.14Z"/><path d="M746.05,74.77A1.83,1.83,0,0,0,747.87,73a12.61,12.61,0,0,1,3.73-9L762.51,53a1.82,1.82,0,0,0-2.58-2.57L749,61.38A16.26,16.26,0,0,0,744.23,73,1.82,1.82,0,0,0,746.05,74.77Z"/><path d="M722.81,38.63a16.37,16.37,0,0,0-23.14-23.15L684.59,30.56,707.73,53.7Z"/><path d="M804.73,573.79a16.36,16.36,0,0,0-23.14-23.14l-15.08,15.08,23.14,23.14Z"/><path d="M664,61.6a1.81,1.81,0,0,0,1.81-1.82,12.66,12.66,0,0,1,3.73-9l10.91-10.91a1.82,1.82,0,1,0-2.57-2.57L666.94,48.21a16.26,16.26,0,0,0-4.79,11.57A1.81,1.81,0,0,0,664,61.6Z"/><path d="M885.64,584.63a16.37,16.37,0,0,0-23.14-23.15l-15.08,15.08,23.14,23.14Z"/><path d="M722.64,212.63a16.37,16.37,0,0,0-23.14-23.15l-15.08,15.08,23.14,23.14Z"/><path d="M1116.24,586.69a16.26,16.26,0,0,0-11.57,4.79l-15.08,15.08,23.14,23.14,15.08-15.07a16.37,16.37,0,0,0-11.57-27.94Z"/><path d="M1035.49,140.86a16.26,16.26,0,0,0-11.57,4.79l-15.08,15.08L1032,183.87l15.08-15.08a16.36,16.36,0,0,0-11.57-27.93Z"/><path d="M745.88,596.77A1.82,1.82,0,0,0,747.7,595a12.66,12.66,0,0,1,3.73-9L762.34,575a1.82,1.82,0,1,0-2.57-2.57l-10.91,10.91a16.26,16.26,0,0,0-4.8,11.57A1.83,1.83,0,0,0,745.88,596.77Z"/><path d="M804.73,660.79a16.36,16.36,0,0,0-23.14-23.14l-15.08,15.08,23.14,23.14Z"/><path d="M745.88,683.77A1.82,1.82,0,0,0,747.7,682a12.66,12.66,0,0,1,3.73-9L762.34,662a1.82,1.82,0,1,0-2.57-2.57l-10.91,10.91a16.26,16.26,0,0,0-4.8,11.57A1.83,1.83,0,0,0,745.88,683.77Z"/><path d="M678,124.3l-10.91,10.91a16.26,16.26,0,0,0-4.8,11.57,1.82,1.82,0,0,0,3.64,0,12.66,12.66,0,0,1,3.73-9l10.91-10.91A1.82,1.82,0,1,0,678,124.3Z"/><path d="M711.41,97.69a16.24,16.24,0,0,0-11.57,4.79l-15.08,15.08L707.9,140.7,723,125.63a16.36,16.36,0,0,0-11.56-27.94Z"/><path d="M907.8,356.6a1.82,1.82,0,0,0,1.82-1.82,12.61,12.61,0,0,1,3.73-9l10.91-10.91a1.82,1.82,0,1,0-2.58-2.57l-10.9,10.91a16.22,16.22,0,0,0-4.8,11.57A1.81,1.81,0,0,0,907.8,356.6Z"/><path d="M966.64,333.63a16.37,16.37,0,0,0-23.14-23.15l-15.08,15.08,23.14,23.14Z"/><path d="M907.8,269.6a1.82,1.82,0,0,0,1.82-1.82,12.61,12.61,0,0,1,3.73-9l10.91-10.91a1.82,1.82,0,1,0-2.58-2.57l-10.9,10.91a16.22,16.22,0,0,0-4.8,11.57A1.81,1.81,0,0,0,907.8,269.6Z"/><path d="M966.64,507.63a16.37,16.37,0,0,0-23.14-23.15l-15.08,15.08,23.14,23.14Z"/><path d="M907.8,530.6a1.82,1.82,0,0,0,1.82-1.82,12.61,12.61,0,0,1,3.73-9l10.91-10.91a1.82,1.82,0,1,0-2.58-2.57l-10.9,10.91a16.22,16.22,0,0,0-4.8,11.57A1.81,1.81,0,0,0,907.8,530.6Z"/><path d="M966.81,72.63a16.37,16.37,0,0,0-23.14-23.15L928.59,64.56,951.73,87.7Z"/><path d="M966.64,246.63a16.37,16.37,0,0,0-23.14-23.15l-15.08,15.08,23.14,23.14Z"/><path d="M988.05,104.77a1.83,1.83,0,0,0,1.82-1.82,12.61,12.61,0,0,1,3.73-9L1004.51,83a1.82,1.82,0,0,0-2.58-2.57L991,91.38A16.26,16.26,0,0,0,986.23,103,1.82,1.82,0,0,0,988.05,104.77Z"/><path d="M1046.89,81.79a16.36,16.36,0,0,0-23.14-23.14l-15.08,15.08,23.14,23.14Z"/><path d="M908,95.6a1.81,1.81,0,0,0,1.81-1.82,12.66,12.66,0,0,1,3.73-9l10.91-10.91a1.82,1.82,0,0,0-2.57-2.57L910.94,82.21a16.26,16.26,0,0,0-4.79,11.57A1.81,1.81,0,0,0,908,95.6Z"/><path d="M966.64,594.63a16.37,16.37,0,0,0-23.14-23.15l-15.08,15.08,23.14,23.14Z"/><path d="M885.81,62.63a16.37,16.37,0,0,0-23.14-23.15L847.59,54.56,870.73,77.7Z"/><path d="M885.64,323.63a16.37,16.37,0,0,0-23.14-23.15l-15.08,15.08,23.14,23.14Z"/><path d="M826.8,259.6a1.82,1.82,0,0,0,1.82-1.82,12.61,12.61,0,0,1,3.73-9l10.91-10.91a1.82,1.82,0,1,0-2.58-2.57l-10.9,10.91a16.22,16.22,0,0,0-4.8,11.57A1.81,1.81,0,0,0,826.8,259.6Z"/><path d="M885.64,236.63a16.37,16.37,0,0,0-23.14-23.15l-15.08,15.08,23.14,23.14Z"/><path d="M885.64,497.63a16.37,16.37,0,0,0-23.14-23.15l-15.08,15.08,23.14,23.14Z"/><path d="M826.8,346.6a1.82,1.82,0,0,0,1.82-1.82,12.61,12.61,0,0,1,3.73-9l10.91-10.91a1.82,1.82,0,1,0-2.58-2.57l-10.9,10.91a16.22,16.22,0,0,0-4.8,11.57A1.81,1.81,0,0,0,826.8,346.6Z"/><path d="M827,85.6a1.81,1.81,0,0,0,1.81-1.82,12.66,12.66,0,0,1,3.73-9l10.91-10.91a1.82,1.82,0,1,0-2.57-2.57L829.94,72.21a16.26,16.26,0,0,0-4.79,11.57A1.81,1.81,0,0,0,827,85.6Z"/><path d="M907.8,617.6a1.82,1.82,0,0,0,1.82-1.82,12.61,12.61,0,0,1,3.73-9l10.91-10.91a1.82,1.82,0,0,0-2.58-2.57l-10.9,10.91a16.22,16.22,0,0,0-4.8,11.57A1.81,1.81,0,0,0,907.8,617.6Z"/><path d="M874.41,121.69a16.24,16.24,0,0,0-11.57,4.79l-15.08,15.08L870.9,164.7,886,149.63a16.36,16.36,0,0,0-11.56-27.94Z"/><path d="M841,148.3l-10.91,10.91a16.26,16.26,0,0,0-4.8,11.57,1.82,1.82,0,1,0,3.64,0,12.66,12.66,0,0,1,3.73-9l10.91-10.91A1.82,1.82,0,1,0,841,148.3Z"/><path d="M826.8,520.6a1.82,1.82,0,0,0,1.82-1.82,12.61,12.61,0,0,1,3.73-9l10.91-10.91a1.82,1.82,0,1,0-2.58-2.57l-10.9,10.91a16.22,16.22,0,0,0-4.8,11.57A1.81,1.81,0,0,0,826.8,520.6Z"/><path d="M1002.1,167.47l-10.91,10.91A16.26,16.26,0,0,0,986.4,190a1.82,1.82,0,1,0,3.63,0,12.66,12.66,0,0,1,3.73-9L1004.67,170a1.82,1.82,0,0,0-2.57-2.57Z"/><path d="M268.77,679.47l-10.91,10.91a16.26,16.26,0,0,0-4.8,11.57,1.82,1.82,0,1,0,3.64,0,12.66,12.66,0,0,1,3.73-9L271.34,682a1.82,1.82,0,0,0-2.57-2.57Z"/><path d="M1082.85,613.3l-10.91,10.91a16.26,16.26,0,0,0-4.79,11.57,1.82,1.82,0,1,0,3.63,0,12.66,12.66,0,0,1,3.73-9l10.91-10.91a1.82,1.82,0,0,0-2.57-2.57Z"/><path d="M222.45,207.11a16.26,16.26,0,0,0-11.57,4.79L195.8,227l23.14,23.14L234,235a16.36,16.36,0,0,0-11.57-27.93Z"/><path d="M141.45,458.11a16.26,16.26,0,0,0-11.57,4.79L114.8,478l23.14,23.14L153,486a16.36,16.36,0,0,0-11.57-27.93Z"/><path d="M189.06,233.72l-10.91,10.91a16.26,16.26,0,0,0-4.79,11.57,1.82,1.82,0,1,0,3.63,0,12.66,12.66,0,0,1,3.73-9l10.91-10.91a1.82,1.82,0,0,0-2.57-2.57Z"/><polygon points="390.43 0 369.03 0 379.73 10.7 390.43 0"/><path d="M336,18.6a1.81,1.81,0,0,0,1.81-1.82,12.66,12.66,0,0,1,3.73-9L349.29,0h-5.14l-5.21,5.21a16.26,16.26,0,0,0-4.79,11.57A1.81,1.81,0,0,0,336,18.6Z"/><path d="M313.73,332.79a16.36,16.36,0,0,0-23.14-23.14l-15.08,15.08,23.14,23.14Z"/><path d="M255.38,7.77A1.82,1.82,0,0,0,257.2,6,12.66,12.66,0,0,1,258.67,0h-4a16.35,16.35,0,0,0-1.13,6A1.83,1.83,0,0,0,255.38,7.77Z"/><path d="M383.24,663.69a16.26,16.26,0,0,0-11.57,4.79l-15.08,15.08,23.14,23.14,15.08-15.07a16.37,16.37,0,0,0-11.57-27.94Z"/><path d="M27.14,299.88,16.23,310.79a16.26,16.26,0,0,0-4.79,11.57,1.82,1.82,0,0,0,3.64,0,12.68,12.68,0,0,1,3.72-9l10.91-10.9a1.82,1.82,0,1,0-2.57-2.58Z"/><path d="M108.06,484.72,97.15,495.63a16.26,16.26,0,0,0-4.79,11.57,1.82,1.82,0,1,0,3.63,0,12.66,12.66,0,0,1,3.73-9l10.91-10.91a1.82,1.82,0,1,0-2.57-2.57Z"/><path d="M302.16,565.86a16.24,16.24,0,0,0-11.57,4.79l-15.08,15.08,23.14,23.14,15.08-15.08a16.36,16.36,0,0,0-11.57-27.93Z"/><path d="M269.1,505.47l-10.91,10.91A16.26,16.26,0,0,0,253.4,528a1.82,1.82,0,1,0,3.63,0,12.66,12.66,0,0,1,3.73-9L271.67,508a1.82,1.82,0,0,0-2.57-2.57Z"/><path d="M349.85,690.3l-10.91,10.91a16.26,16.26,0,0,0-4.79,11.57,1.82,1.82,0,1,0,3.63,0,12.66,12.66,0,0,1,3.73-9l10.91-10.91a1.82,1.82,0,0,0-2.57-2.57Z"/><path d="M254.88,355.77A1.82,1.82,0,0,0,256.7,354a12.66,12.66,0,0,1,3.73-9L271.34,334a1.82,1.82,0,0,0-2.57-2.57l-10.91,10.91a16.26,16.26,0,0,0-4.8,11.57A1.83,1.83,0,0,0,254.88,355.77Z"/><path d="M268.77,592.47l-10.91,10.91a16.26,16.26,0,0,0-4.8,11.57,1.82,1.82,0,1,0,3.64,0,12.66,12.66,0,0,1,3.73-9L271.34,595a1.82,1.82,0,0,0-2.57-2.57Z"/><path d="M302.49,478.86a16.26,16.26,0,0,0-11.57,4.79l-15.08,15.08L299,521.87l15.08-15.08a16.36,16.36,0,0,0-11.57-27.93Z"/><path d="M254.88,442.77A1.82,1.82,0,0,0,256.7,441a12.66,12.66,0,0,1,3.73-9L271.34,421a1.82,1.82,0,0,0-2.57-2.57l-10.91,10.91a16.26,16.26,0,0,0-4.8,11.57A1.83,1.83,0,0,0,254.88,442.77Z"/><path d="M313.73,419.79a16.36,16.36,0,0,0-23.14-23.14l-15.08,15.08,23.14,23.14Z"/><path d="M189.06,494.72l-10.91,10.91a16.26,16.26,0,0,0-4.79,11.57,1.82,1.82,0,1,0,3.63,0,12.66,12.66,0,0,1,3.73-9l10.91-10.91a1.82,1.82,0,1,0-2.57-2.57Z"/><path d="M222.45,468.11a16.26,16.26,0,0,0-11.57,4.79L195.8,488l23.14,23.14L234,496a16.36,16.36,0,0,0-11.57-27.93Z"/><path d="M60.53,273.27A16.26,16.26,0,0,0,49,278.06L33.88,293.14,57,316.29,72.1,301.21a16.37,16.37,0,0,0-11.57-27.94Z"/><path d="M1346.5,449.48l-15.08,15.08,23.14,23.14L1366,476.27V446.75a16.34,16.34,0,0,0-19.5,2.73Z"/><path d="M1346.5,275.48l-15.08,15.08,23.14,23.14L1366,302.27V272.75a16.34,16.34,0,0,0-19.5,2.73Z"/><path d="M1346.84,362.48l-15.08,15.08,23.14,23.14,11.1-11.1v-30a16.33,16.33,0,0,0-19.16,2.91Z"/><path d="M1346.67,623.48l-15.08,15.08,23.14,23.14L1366,650.43V620.65a16.36,16.36,0,0,0-19.33,2.83Z"/><path d="M1346.5,536.48l-15.08,15.08,23.14,23.14L1366,563.27V533.75a16.34,16.34,0,0,0-19.5,2.73Z"/><path d="M1346.5,188.48l-15.08,15.08,23.14,23.14L1366,215.27V185.75a16.34,16.34,0,0,0-19.5,2.73Z"/><path d="M1346.67,710.15l-15.08,15.08,23.14,23.14L1366,737.1V707.32a16.36,16.36,0,0,0-19.33,2.83Z"/><path d="M1312.78,754.45a12.66,12.66,0,0,1,3.73-9l10.91-10.91a1.82,1.82,0,1,0-2.57-2.57l-10.91,10.91a16.26,16.26,0,0,0-4.79,11.57,1.82,1.82,0,1,0,3.63,0Z"/><path d="M1346.67,14.48l-15.08,15.08,23.14,23.14L1366,41.43V11.65a16.36,16.36,0,0,0-19.33,2.83Z"/><path d="M1265.75,3.65l-15.08,15.08,23.14,23.14,15.08-15.08A16.34,16.34,0,0,0,1283.29,0h-12A16.31,16.31,0,0,0,1265.75,3.65Z"/><path d="M1346.84,101.48l-15.08,15.08,23.14,23.14,11.1-11.1v-30a16.33,16.33,0,0,0-19.16,2.91Z"/><path d="M1170.59,7.56l23.14,23.14,15.08-15.07a16.3,16.3,0,0,0,4.79-11.58,16,16,0,0,0-.53-4h-34.92Z"/><polygon points="952.43 0 951.03 0 951.73 0.7 952.43 0"/><path d="M908,8.6a1.81,1.81,0,0,0,1.81-1.82,12.66,12.66,0,0,1,2-6.78h-4.12a16.28,16.28,0,0,0-1.48,6.78A1.81,1.81,0,0,0,908,8.6Z"/><path d="M603.59,20.56,626.73,43.7l15.08-15.07A16.37,16.37,0,0,0,618.67,5.48Z"/><path d="M430.85,4.3,419.94,15.21a16.26,16.26,0,0,0-4.79,11.57,1.82,1.82,0,1,0,3.63,0,12.66,12.66,0,0,1,3.73-9L433.42,6.87a1.82,1.82,0,0,0-2.57-2.57Z"/><path d="M475.81,5.63A16.32,16.32,0,0,0,479.48,0H440l20.7,20.7Z"/><path d="M522.67,9.73l23.14,23.14,15.08-15.08A16.3,16.3,0,0,0,564.45,0H532.4Z"/><path d="M1082.85,4.3l-10.91,10.91a16.26,16.26,0,0,0-4.79,11.57,1.82,1.82,0,1,0,3.63,0,12.66,12.66,0,0,1,3.73-9l10.91-10.91a1.82,1.82,0,1,0-2.57-2.57Z"/><polygon points="1041.68 0 1021.95 0 1031.81 9.87 1041.68 0"/><path d="M1127.81,5.63A16.32,16.32,0,0,0,1131.48,0H1092l20.7,20.7Z"/><path d="M988.05,17.77A1.83,1.83,0,0,0,989.87,16a12.61,12.61,0,0,1,3.73-9L1000.54,0H995.4L991,4.38A16.26,16.26,0,0,0,986.23,16,1.82,1.82,0,0,0,988.05,17.77Z"/><path d="M302.16,652.86a16.24,16.24,0,0,0-11.57,4.79l-15.08,15.08,23.14,23.14,15.08-15.08a16.36,16.36,0,0,0-11.57-27.93Z"/><path d="M987.88,278.77A1.82,1.82,0,0,0,989.7,277a12.66,12.66,0,0,1,3.73-9L1004.34,257a1.82,1.82,0,1,0-2.57-2.57l-10.91,10.91a16.26,16.26,0,0,0-4.8,11.57A1.83,1.83,0,0,0,987.88,278.77Z"/><path d="M1046.73,255.79a16.36,16.36,0,0,0-23.14-23.14l-15.08,15.08,23.14,23.14Z"/><path d="M1046.73,342.79a16.36,16.36,0,0,0-23.14-23.14l-15.08,15.08,23.14,23.14Z"/><path d="M922,419.3l-10.91,10.91a16.26,16.26,0,0,0-4.8,11.57,1.82,1.82,0,1,0,3.64,0,12.66,12.66,0,0,1,3.73-9l10.91-10.91A1.82,1.82,0,1,0,922,419.3Z"/><path d="M987.88,365.77A1.82,1.82,0,0,0,989.7,364a12.66,12.66,0,0,1,3.73-9L1004.34,344a1.82,1.82,0,1,0-2.57-2.57l-10.91,10.91a16.26,16.26,0,0,0-4.8,11.57A1.83,1.83,0,0,0,987.88,365.77Z"/><path d="M922,158.3l-10.91,10.91a16.26,16.26,0,0,0-4.8,11.57,1.82,1.82,0,1,0,3.64,0,12.66,12.66,0,0,1,3.73-9l10.91-10.91A1.82,1.82,0,1,0,922,158.3Z"/><path d="M921.85,680.3l-10.91,10.91a16.26,16.26,0,0,0-4.79,11.57,1.82,1.82,0,1,0,3.63,0,12.66,12.66,0,0,1,3.73-9l10.91-10.91a1.82,1.82,0,0,0-2.57-2.57Z"/><path d="M350,429.3l-10.91,10.91a16.26,16.26,0,0,0-4.8,11.57,1.82,1.82,0,0,0,3.64,0,12.66,12.66,0,0,1,3.73-9l10.91-10.91A1.82,1.82,0,0,0,350,429.3Z"/><path d="M955.24,653.69a16.26,16.26,0,0,0-11.57,4.79l-15.08,15.08,23.14,23.14,15.08-15.07a16.37,16.37,0,0,0-11.57-27.94Z"/><path d="M955.41,131.69a16.24,16.24,0,0,0-11.57,4.79l-15.08,15.08L951.9,174.7,967,159.63a16.36,16.36,0,0,0-11.56-27.94Z"/><path d="M955.41,392.69a16.24,16.24,0,0,0-11.57,4.79l-15.08,15.08L951.9,435.7,967,420.63a16.36,16.36,0,0,0-11.56-27.94Z"/><path d="M1001.93,689.47,991,700.38A16.26,16.26,0,0,0,986.23,712a1.82,1.82,0,0,0,3.64,0,12.61,12.61,0,0,1,3.73-9L1004.51,692a1.82,1.82,0,0,0-2.58-2.57Z"/><path d="M1002.1,428.47l-10.91,10.91A16.26,16.26,0,0,0,986.4,451a1.82,1.82,0,1,0,3.63,0,12.66,12.66,0,0,1,3.73-9L1004.67,431a1.82,1.82,0,1,0-2.57-2.57Z"/><path d="M1035.49,401.86a16.26,16.26,0,0,0-11.57,4.79l-15.08,15.08L1032,444.87l15.08-15.08a16.36,16.36,0,0,0-11.57-27.93Z"/><path d="M1035.32,662.86a16.26,16.26,0,0,0-11.57,4.79l-15.08,15.08,23.14,23.14,15.08-15.08a16.36,16.36,0,0,0-11.57-27.93Z"/><path d="M1116.24,673.36a16.26,16.26,0,0,0-11.57,4.79l-15.08,15.08,23.14,23.14,15.08-15.08a16.36,16.36,0,0,0-11.57-27.93Z"/><path d="M1082.85,700l-10.91,10.91a16.26,16.26,0,0,0-4.79,11.57,1.82,1.82,0,1,0,3.63,0,12.66,12.66,0,0,1,3.73-9l10.91-10.91a1.82,1.82,0,1,0-2.57-2.57Z"/><path d="M1046.73,516.79a16.36,16.36,0,0,0-23.14-23.14l-15.08,15.08,23.14,23.14Z"/><path d="M987.88,539.77A1.82,1.82,0,0,0,989.7,538a12.66,12.66,0,0,1,3.73-9L1004.34,518a1.82,1.82,0,1,0-2.57-2.57l-10.91,10.91a16.26,16.26,0,0,0-4.8,11.57A1.83,1.83,0,0,0,987.88,539.77Z"/><path d="M841,409.3l-10.91,10.91a16.26,16.26,0,0,0-4.8,11.57,1.82,1.82,0,1,0,3.64,0,12.66,12.66,0,0,1,3.73-9l10.91-10.91A1.82,1.82,0,1,0,841,409.3Z"/><path d="M1046.73,603.79a16.36,16.36,0,0,0-23.14-23.14l-15.08,15.08,23.14,23.14Z"/><path d="M987.88,626.77A1.82,1.82,0,0,0,989.7,625a12.66,12.66,0,0,1,3.73-9L1004.34,605a1.82,1.82,0,1,0-2.57-2.57l-10.91,10.91a16.26,16.26,0,0,0-4.8,11.57A1.83,1.83,0,0,0,987.88,626.77Z"/><path d="M874.41,382.69a16.24,16.24,0,0,0-11.57,4.79l-15.08,15.08L870.9,425.7,886,410.63a16.36,16.36,0,0,0-11.56-27.94Z"/><path d="M515.93,712.47,505,723.38A16.26,16.26,0,0,0,500.23,735a1.82,1.82,0,1,0,3.64,0,12.61,12.61,0,0,1,3.73-9L518.51,715a1.82,1.82,0,0,0-2.58-2.57Z"/><path d="M464.41,412.69a16.24,16.24,0,0,0-11.57,4.79l-15.08,15.08L460.9,455.7,476,440.63a16.36,16.36,0,0,0-11.56-27.94Z"/><path d="M549.32,685.86a16.26,16.26,0,0,0-11.57,4.79l-15.08,15.08,23.14,23.14,15.08-15.08a16.36,16.36,0,0,0-11.57-27.93Z"/><path d="M596.85,636.3l-10.91,10.91a16.26,16.26,0,0,0-4.79,11.57,1.82,1.82,0,1,0,3.63,0,12.66,12.66,0,0,1,3.73-9l10.91-10.91a1.82,1.82,0,0,0-2.57-2.57Z"/><path d="M516.1,451.47l-10.91,10.91A16.26,16.26,0,0,0,500.4,474a1.82,1.82,0,1,0,3.63,0,12.66,12.66,0,0,1,3.73-9L518.67,454a1.82,1.82,0,1,0-2.57-2.57Z"/><path d="M549.49,424.86a16.26,16.26,0,0,0-11.57,4.79l-15.08,15.08L546,467.87l15.08-15.08a16.36,16.36,0,0,0-11.57-27.93Z"/><path d="M430.85,700.3l-10.91,10.91a16.26,16.26,0,0,0-4.79,11.57,1.82,1.82,0,1,0,3.63,0,12.66,12.66,0,0,1,3.73-9l10.91-10.91a1.82,1.82,0,0,0-2.57-2.57Z"/><path d="M383.41,402.69a16.24,16.24,0,0,0-11.57,4.79l-15.08,15.08L379.9,445.7,395,430.63a16.36,16.36,0,0,0-11.56-27.94Z"/><path d="M431,439.3l-10.91,10.91a16.26,16.26,0,0,0-4.8,11.57,1.82,1.82,0,0,0,3.64,0,12.66,12.66,0,0,1,3.73-9l10.91-10.91A1.82,1.82,0,0,0,431,439.3Z"/><path d="M464.24,673.69a16.26,16.26,0,0,0-11.57,4.79l-15.08,15.08,23.14,23.14,15.08-15.07a16.37,16.37,0,0,0-11.57-27.94Z"/><path d="M874.24,643.69a16.26,16.26,0,0,0-11.57,4.79l-15.08,15.08,23.14,23.14,15.08-15.07a16.37,16.37,0,0,0-11.57-27.94Z"/><path d="M678,385.3l-10.91,10.91a16.26,16.26,0,0,0-4.8,11.57,1.82,1.82,0,1,0,3.64,0,12.66,12.66,0,0,1,3.73-9l10.91-10.91A1.82,1.82,0,1,0,678,385.3Z"/><path d="M711.41,358.69a16.24,16.24,0,0,0-11.57,4.79l-15.08,15.08L707.9,401.7,723,386.63a16.36,16.36,0,0,0-11.56-27.94Z"/><path d="M760.1,485.47l-10.91,10.91A16.26,16.26,0,0,0,744.4,508a1.82,1.82,0,1,0,3.63,0,12.66,12.66,0,0,1,3.73-9L762.67,488a1.82,1.82,0,1,0-2.57-2.57Z"/><path d="M793.49,458.86a16.26,16.26,0,0,0-11.57,4.79l-15.08,15.08L790,501.87l15.08-15.08a16.36,16.36,0,0,0-11.57-27.93Z"/><path d="M840.85,670.3l-10.91,10.91a16.26,16.26,0,0,0-4.79,11.57,1.82,1.82,0,1,0,3.63,0,12.66,12.66,0,0,1,3.73-9l10.91-10.91a1.82,1.82,0,0,0-2.57-2.57Z"/><path d="M630.41,348.69a16.24,16.24,0,0,0-11.57,4.79l-15.08,15.08L626.9,391.7,642,376.63a16.36,16.36,0,0,0-11.56-27.94Z"/><path d="M597,375.3l-10.91,10.91a16.26,16.26,0,0,0-4.8,11.57,1.82,1.82,0,1,0,3.64,0,12.66,12.66,0,0,1,3.73-9l10.91-10.91A1.82,1.82,0,1,0,597,375.3Z"/><path d="M630.24,609.69a16.26,16.26,0,0,0-11.57,4.79l-15.08,15.08,23.14,23.14,15.08-15.07a16.37,16.37,0,0,0-11.57-27.94Z"/><path d="M711.24,619.69a16.26,16.26,0,0,0-11.57,4.79l-15.08,15.08,23.14,23.14,15.08-15.07a16.37,16.37,0,0,0-11.57-27.94Z"/><path d="M677.85,646.3l-10.91,10.91a16.26,16.26,0,0,0-4.79,11.57,1.82,1.82,0,1,0,3.63,0,12.66,12.66,0,0,1,3.73-9l10.91-10.91a1.82,1.82,0,0,0-2.57-2.57Z"/><path d="M27.14,560.88,16.23,571.79a16.26,16.26,0,0,0-4.79,11.57,1.82,1.82,0,0,0,3.64,0,12.68,12.68,0,0,1,3.72-9l10.91-10.9a1.82,1.82,0,0,0-2.57-2.58Z"/><path d="M394.81,82.63a16.37,16.37,0,0,0-23.14-23.15L356.59,74.56,379.73,97.7Z"/><path d="M71.77,388.21a16.37,16.37,0,0,0-23.14-23.15L33.55,380.14l23.14,23.15Z"/><path d="M394.64,256.63a16.37,16.37,0,0,0-23.14-23.15l-15.08,15.08,23.14,23.14Z"/><path d="M13.09,150.18a1.81,1.81,0,0,0,1.82-1.82,12.65,12.65,0,0,1,3.73-9l10.91-10.9A1.82,1.82,0,0,0,27,125.88L16.07,136.79a16.22,16.22,0,0,0-4.8,11.57A1.82,1.82,0,0,0,13.09,150.18Z"/><path d="M71.93,214.21a16.37,16.37,0,0,0-23.14-23.15L33.72,206.14l23.14,23.15Z"/><path d="M13.09,237.18a1.81,1.81,0,0,0,1.82-1.82,12.65,12.65,0,0,1,3.73-9l10.91-10.9A1.82,1.82,0,0,0,27,212.88L16.07,223.79a16.22,16.22,0,0,0-4.8,11.57A1.82,1.82,0,0,0,13.09,237.18Z"/><path d="M350,168.3l-10.91,10.91a16.26,16.26,0,0,0-4.8,11.57,1.82,1.82,0,1,0,3.64,0,12.66,12.66,0,0,1,3.73-9l10.91-10.91A1.82,1.82,0,0,0,350,168.3Z"/><path d="M383.41,141.69a16.24,16.24,0,0,0-11.57,4.79l-15.08,15.08L379.9,184.7,395,169.63a16.36,16.36,0,0,0-11.56-27.94Z"/><path d="M336,105.6a1.81,1.81,0,0,0,1.81-1.82,12.66,12.66,0,0,1,3.73-9l10.91-10.91a1.82,1.82,0,0,0-2.57-2.57L338.94,92.21a16.26,16.26,0,0,0-4.79,11.57A1.81,1.81,0,0,0,336,105.6Z"/><path d="M233.68,670a16.36,16.36,0,0,0-23.14-23.14L195.47,662l23.14,23.14Z"/><path d="M394.64,517.63a16.37,16.37,0,0,0-23.14-23.15l-15.08,15.08,23.14,23.14Z"/><path d="M335.8,366.6a1.82,1.82,0,0,0,1.82-1.82,12.61,12.61,0,0,1,3.73-9l10.91-10.91a1.82,1.82,0,0,0-2.58-2.57l-10.9,10.91a16.22,16.22,0,0,0-4.8,11.57A1.81,1.81,0,0,0,335.8,366.6Z"/><path d="M72.27,40.21A16.37,16.37,0,0,0,49.13,17.06L34.05,32.14,57.19,55.29Z"/><path d="M335.8,279.6a1.82,1.82,0,0,0,1.82-1.82,12.61,12.61,0,0,1,3.73-9l10.91-10.91a1.82,1.82,0,0,0-2.58-2.57l-10.9,10.91a16.22,16.22,0,0,0-4.8,11.57A1.81,1.81,0,0,0,335.8,279.6Z"/><path d="M394.64,343.63a16.37,16.37,0,0,0-23.14-23.15l-15.08,15.08,23.14,23.14Z"/><path d="M13.42,63.18a1.81,1.81,0,0,0,1.82-1.82,12.67,12.67,0,0,1,3.73-9l10.91-10.9a1.82,1.82,0,0,0-2.57-2.58L16.4,49.79a16.26,16.26,0,0,0-4.79,11.57A1.81,1.81,0,0,0,13.42,63.18Z"/><path d="M416.8,637.6a1.82,1.82,0,0,0,1.82-1.82,12.61,12.61,0,0,1,3.73-9l10.91-10.91a1.82,1.82,0,0,0-2.58-2.57l-10.9,10.91a16.22,16.22,0,0,0-4.8,11.57A1.81,1.81,0,0,0,416.8,637.6Z"/><path d="M475.81,92.63a16.37,16.37,0,0,0-23.14-23.15L437.59,84.56l23.14,23.14Z"/><path d="M416.8,289.6a1.82,1.82,0,0,0,1.82-1.82,12.61,12.61,0,0,1,3.73-9l10.91-10.91a1.82,1.82,0,0,0-2.58-2.57l-10.9,10.91a16.22,16.22,0,0,0-4.8,11.57A1.81,1.81,0,0,0,416.8,289.6Z"/><path d="M12.92,411.18a1.81,1.81,0,0,0,1.82-1.82,12.69,12.69,0,0,1,3.73-9l10.91-10.9a1.82,1.82,0,1,0-2.57-2.57L15.9,397.79a16.26,16.26,0,0,0-4.79,11.57A1.81,1.81,0,0,0,12.92,411.18Z"/><path d="M12.92,672.18a1.81,1.81,0,0,0,1.82-1.82,12.69,12.69,0,0,1,3.73-9l10.91-10.9a1.82,1.82,0,1,0-2.57-2.57L15.9,658.79a16.26,16.26,0,0,0-4.79,11.57A1.81,1.81,0,0,0,12.92,672.18Z"/><path d="M417,115.6a1.81,1.81,0,0,0,1.81-1.82,12.66,12.66,0,0,1,3.73-9l10.91-10.91a1.82,1.82,0,0,0-2.57-2.57l-10.91,10.91a16.26,16.26,0,0,0-4.79,11.57A1.81,1.81,0,0,0,417,115.6Z"/><path d="M416.8,376.6a1.82,1.82,0,0,0,1.82-1.82,12.61,12.61,0,0,1,3.73-9l10.91-10.91a1.82,1.82,0,0,0-2.58-2.57l-10.9,10.91a16.22,16.22,0,0,0-4.8,11.57A1.81,1.81,0,0,0,416.8,376.6Z"/><path d="M475.64,266.63a16.37,16.37,0,0,0-23.14-23.15l-15.08,15.08,23.14,23.14Z"/><path d="M3.83,757.36a23.47,23.47,0,0,1,6.93-16.71l32.73-32.73a23.64,23.64,0,0,1,33.42,33.43L50.26,768H84.92a23.48,23.48,0,0,1,6.92-16.52l32.73-32.72A23.63,23.63,0,1,1,158,752.18L142.18,768h26a23.55,23.55,0,0,1,4.62-6.52l32.73-32.72A23.63,23.63,0,1,1,239,762.18L233.18,768h23.94l28.49-28.49A23.64,23.64,0,0,1,322.82,768h25.71l18-18a23.63,23.63,0,0,1,40.35,16.71c0,.43,0,.86,0,1.28h32.69l8-8a23.62,23.62,0,0,1,38.67,8h52a23.66,23.66,0,0,1,22.14,0h30.06a23.63,23.63,0,0,1-9.63-39.27L613.53,696A23.63,23.63,0,1,1,647,729.43l-32.73,32.73a23.47,23.47,0,0,1-9.61,5.84H658.5a23.58,23.58,0,0,1,3.3-29.27L694.53,706A23.63,23.63,0,1,1,728,739.43L699.38,768H737a23.45,23.45,0,0,1,6.9-15.77l32.73-32.72A23.63,23.63,0,1,1,810,752.93L795,768h25.86a23.68,23.68,0,0,1,4-5.27L857.53,730A23.63,23.63,0,1,1,891,763.43L886.39,768h24.14l28-28A23.64,23.64,0,0,1,976,768h23.76l18.83-18.83A23.64,23.64,0,0,1,1059,765.89c0,.71,0,1.41-.1,2.11h32.05l8.74-8.74a23.62,23.62,0,0,1,39,8.74h167.55a23.6,23.6,0,0,1,2.64-30.27L1341.53,705A23.57,23.57,0,0,1,1366,699.4V660.72l-23.78,23.77a23.63,23.63,0,1,1-33.42-33.42l32.73-32.73a23.64,23.64,0,0,1,24.47-5.61V573.55l-23.94,23.94a23.64,23.64,0,0,1-33.43-33.42l32.73-32.73a23.64,23.64,0,0,1,24.64-5.55V486.55l-23.94,23.94a23.64,23.64,0,0,1-33.43-33.42l32.73-32.73a23.64,23.64,0,0,1,24.64-5.55V399.88l-23.61,23.61A23.63,23.63,0,1,1,1309,390.07l32.72-32.73a23.61,23.61,0,0,1,24.31-5.66V312.55l-23.94,23.94a23.64,23.64,0,0,1-33.43-33.42l32.73-32.73a23.64,23.64,0,0,1,24.64-5.55V225.55l-23.94,23.94a23.64,23.64,0,0,1-33.43-33.42l32.73-32.73a23.64,23.64,0,0,1,24.64-5.55V138.88l-23.61,23.61A23.63,23.63,0,1,1,1309,129.07l32.72-32.73A23.61,23.61,0,0,1,1366,90.68v-39l-23.78,23.77a23.63,23.63,0,1,1-33.42-33.42l32.73-32.73A23.64,23.64,0,0,1,1366,3.73V0h-70.61A23.6,23.6,0,0,1,1294,31.93l-32.72,32.73a23.64,23.64,0,0,1-33.43-33.43L1259.12,0h-38.6A23.52,23.52,0,0,1,1214,20.77l-32.73,32.72a23.63,23.63,0,1,1-33.42-33.42L1167.87,0h-28.75A23.46,23.46,0,0,1,1133,10.77l-32.73,32.72a23.63,23.63,0,1,1-33.42-33.42L1076.87,0H1052l-32.66,32.66a23.49,23.49,0,0,1-16.72,6.92A23.63,23.63,0,0,1,985.15,0H962.72l-23.5,23.49a23.44,23.44,0,0,1-16.71,6.93A23.65,23.65,0,0,1,899.86,0H871.72l-13.5,13.49a23.44,23.44,0,0,1-16.71,6.93A23.68,23.68,0,0,1,818.1,0H780.3l-2.66,2.66a23.47,23.47,0,0,1-16.71,6.92,23.6,23.6,0,0,1-19-9.58H646.58A23.6,23.6,0,0,1,647,33.77L614.22,66.49A23.63,23.63,0,1,1,580.8,33.07L613.53.34c.11-.12.23-.23.35-.34H572.12A23.57,23.57,0,0,1,566,22.93L533.31,55.66a23.64,23.64,0,0,1-33.43-33.43L522.12,0h-35A23.46,23.46,0,0,1,481,10.77L448.22,43.49A23.63,23.63,0,1,1,414.8,10.07L424.87,0H400.68c-.24.26-.48.52-.73.77L367.22,33.49a23.44,23.44,0,0,1-16.71,6.93A23.63,23.63,0,0,1,333.8.07l.07-.07H309.3L286.64,22.66a23.47,23.47,0,0,1-16.71,6.92A23.63,23.63,0,0,1,247.05,0H218.51L206.6,11.91a23.49,23.49,0,0,1-16.71,6.92A23.68,23.68,0,0,1,166.74,0H127.51L125.6,1.91a23.49,23.49,0,0,1-16.71,6.92A23.58,23.58,0,0,1,90.48,0H0V768H6.37A23.48,23.48,0,0,1,3.83,757.36Zm73.41-451L44.51,339.08a23.64,23.64,0,0,1-33.42-33.43l32.73-32.73a23.64,23.64,0,1,1,33.42,33.43Zm80.92,184.83-32.73,32.73A23.64,23.64,0,1,1,92,490.48l32.73-32.72a23.63,23.63,0,0,1,33.42,33.42ZM318.87,685.93l-32.73,32.73a23.64,23.64,0,1,1-33.42-33.43l32.72-32.72a23.64,23.64,0,0,1,33.43,33.42ZM239.16,240.18l-32.73,32.73A23.64,23.64,0,1,1,173,239.48l32.73-32.72a23.63,23.63,0,0,1,33.42,33.42Zm13.56,97.05,32.72-32.72a23.64,23.64,0,0,1,33.43,33.42l-32.73,32.73a23.64,23.64,0,1,1-33.42-33.43Zm0,87,32.72-32.72a23.64,23.64,0,0,1,33.43,33.42l-32.73,32.73a23.64,23.64,0,1,1-33.42-33.43Zm-6.64,60.24a23.45,23.45,0,0,1-6.92,16.71l-32.73,32.73A23.64,23.64,0,1,1,173,500.48l32.73-32.72a23.62,23.62,0,0,1,40.34,16.71Zm72.79,114.46-32.73,32.73a23.64,23.64,0,1,1-33.42-33.43l32.72-32.72a23.64,23.64,0,0,1,33.43,33.42Zm.33-87-32.73,32.73a23.64,23.64,0,1,1-33.42-33.43l32.73-32.72a23.44,23.44,0,0,1,16.71-6.93,23.63,23.63,0,0,1,16.71,40.35ZM400,696.77l-32.73,32.72a23.63,23.63,0,1,1-33.42-33.42l32.73-32.73A23.64,23.64,0,1,1,400,696.77Zm.17-261-32.73,32.72A23.63,23.63,0,1,1,334,435.07l32.72-32.73a23.64,23.64,0,0,1,33.43,33.43Zm80.83,271-32.73,32.72a23.63,23.63,0,1,1-33.42-33.42l32.73-32.73A23.64,23.64,0,1,1,481,706.77Zm.17-261-32.73,32.72A23.63,23.63,0,1,1,415,445.07l32.72-32.73a23.64,23.64,0,0,1,33.43,33.43ZM566,718.93l-32.72,32.73a23.64,23.64,0,0,1-33.43-33.43l32.73-32.72A23.63,23.63,0,1,1,566,718.93Zm.17-261-32.73,32.73a23.64,23.64,0,1,1-33.42-33.43l32.73-32.72a23.44,23.44,0,0,1,16.71-6.93,23.63,23.63,0,0,1,16.71,40.35ZM647,642.77l-32.73,32.72a23.63,23.63,0,1,1-33.42-33.42l32.73-32.73A23.64,23.64,0,1,1,647,642.77Zm.17-261-32.73,32.72A23.63,23.63,0,1,1,581,381.07l32.72-32.73a23.64,23.64,0,0,1,33.43,33.43Zm80.83,271-32.73,32.72a23.63,23.63,0,1,1-33.42-33.42l32.73-32.73A23.64,23.64,0,1,1,728,652.77Zm.17-261-32.73,32.72A23.63,23.63,0,1,1,662,391.07l32.72-32.73a23.64,23.64,0,0,1,33.43,33.43ZM810.2,491.93l-32.73,32.73a23.64,23.64,0,1,1-33.42-33.43l32.73-32.72a23.44,23.44,0,0,1,16.71-6.93,23.63,23.63,0,0,1,16.71,40.35ZM891,676.77l-32.73,32.72a23.63,23.63,0,1,1-33.42-33.42l32.73-32.73A23.64,23.64,0,1,1,891,676.77Zm.17-261-32.73,32.72A23.63,23.63,0,1,1,825,415.07l32.72-32.73a23.64,23.64,0,0,1,33.43,33.43Zm80.83,271-32.73,32.72a23.63,23.63,0,1,1-33.42-33.42l32.73-32.73A23.64,23.64,0,1,1,972,686.77Zm.17-522-32.73,32.72A23.63,23.63,0,1,1,906,164.07l32.72-32.73a23.64,23.64,0,0,1,33.43,33.43Zm13.6,95.46,32.72-32.72a23.64,23.64,0,0,1,33.43,33.42l-32.73,32.73a23.64,23.64,0,1,1-33.42-33.43Zm0,87,32.72-32.72a23.64,23.64,0,0,1,33.43,33.42l-32.73,32.73a23.64,23.64,0,1,1-33.42-33.43ZM979,409.05a23.51,23.51,0,0,1-6.92,16.72l-32.73,32.72A23.63,23.63,0,1,1,906,425.07l32.72-32.73A23.64,23.64,0,0,1,979,409.05Zm6.68,112.18,32.72-32.72a23.64,23.64,0,0,1,33.43,33.42l-32.73,32.73a23.64,23.64,0,1,1-33.42-33.43Zm0,87,32.72-32.72a23.64,23.64,0,0,1,33.43,33.42l-32.73,32.73a23.64,23.64,0,1,1-33.42-33.43Zm66.31,87.7-32.72,32.73a23.64,23.64,0,0,1-33.43-33.43l32.73-32.72A23.63,23.63,0,1,1,1052,695.93Zm.17-261-32.73,32.73a23.64,23.64,0,1,1-33.42-33.43l32.73-32.72a23.44,23.44,0,0,1,16.71-6.93,23.63,23.63,0,0,1,16.71,40.35ZM1133,706.43l-32.73,32.73a23.64,23.64,0,1,1-33.42-33.43L1099.53,673A23.63,23.63,0,1,1,1133,706.43Zm0-86.66-32.73,32.72a23.63,23.63,0,1,1-33.42-33.42l32.73-32.73A23.64,23.64,0,1,1,1133,619.77Zm.17-261-32.73,32.72A23.63,23.63,0,1,1,1067,358.07l32.72-32.73a23.64,23.64,0,0,1,33.43,33.43ZM1214,716.43l-32.73,32.73a23.64,23.64,0,1,1-33.42-33.43L1180.53,683A23.63,23.63,0,1,1,1214,716.43Zm79.92-423.5-32.73,32.73a23.64,23.64,0,1,1-33.42-33.43l32.72-32.72a23.64,23.64,0,0,1,33.43,33.42Zm6.92,70.29a23.49,23.49,0,0,1-6.92,16.71l-32.73,32.73a23.64,23.64,0,1,1-33.42-33.43l32.72-32.72a23.63,23.63,0,0,1,40.35,16.71ZM1221,352.05a23.51,23.51,0,0,1-6.92,16.72l-32.73,32.72A23.63,23.63,0,1,1,1148,368.07l32.72-32.73A23.64,23.64,0,0,1,1221,352.05Zm6.68,201.18,32.72-32.72a23.64,23.64,0,0,1,33.43,33.42l-32.73,32.73a23.64,23.64,0,1,1-33.42-33.43Zm73.07,71a23.49,23.49,0,0,1-6.92,16.71l-32.73,32.73a23.64,23.64,0,1,1-33.42-33.43l32.72-32.72a23.63,23.63,0,0,1,40.35,16.71Zm-79.91-11.17a23.48,23.48,0,0,1-6.93,16.72l-32.73,32.72a23.63,23.63,0,1,1-33.42-33.42l32.73-32.73a23.64,23.64,0,0,1,40.35,16.71ZM1294,727.93l-32.72,32.73a23.64,23.64,0,0,1-33.43-33.43l32.73-32.72A23.63,23.63,0,1,1,1294,727.93Zm.17-261-32.73,32.73a23.64,23.64,0,1,1-33.42-33.43l32.73-32.72a23.44,23.44,0,0,1,16.71-6.93,23.63,23.63,0,0,1,16.71,40.35Zm6.93-277.71a23.46,23.46,0,0,1-6.93,16.71l-32.73,32.73a23.64,23.64,0,1,1-33.42-33.43l32.73-32.72a23.44,23.44,0,0,1,16.71-6.93A23.68,23.68,0,0,1,1301.13,189.22ZM1260.61,85.51A23.63,23.63,0,1,1,1294,118.93l-32.72,32.73a23.64,23.64,0,0,1-33.43-33.43ZM1148,107.07l32.72-32.73a23.64,23.64,0,0,1,33.43,33.43l-32.73,32.72A23.63,23.63,0,1,1,1148,107.07Zm-.34,87,32.73-32.73a23.64,23.64,0,1,1,33.42,33.43l-32.72,32.72a23.64,23.64,0,0,1-33.43-33.42Zm0,87,32.73-32.73a23.64,23.64,0,1,1,33.42,33.43l-32.72,32.72a23.64,23.64,0,0,1-33.43-33.42Zm0,174,32.73-32.73a23.64,23.64,0,1,1,33.42,33.43l-32.72,32.72a23.64,23.64,0,0,1-33.43-33.42Zm0,87,32.73-32.73a23.64,23.64,0,1,1,33.42,33.43l-32.72,32.72a23.64,23.64,0,0,1-33.43-33.42ZM1067,97.07l32.72-32.73a23.64,23.64,0,0,1,33.43,33.43l-32.73,32.72A23.63,23.63,0,1,1,1067,97.07Zm-.34,87,32.73-32.73a23.64,23.64,0,1,1,33.42,33.43l-32.72,32.72a23.64,23.64,0,0,1-33.43-33.42Zm0,87,32.73-32.73a23.64,23.64,0,1,1,33.42,33.43l-32.72,32.72a23.64,23.64,0,0,1-33.43-33.42Zm0,174,32.73-32.73a23.64,23.64,0,1,1,33.42,33.43l-32.72,32.72a23.64,23.64,0,0,1-33.43-33.42Zm0,87,32.73-32.73a23.64,23.64,0,1,1,33.42,33.43l-32.72,32.72a23.64,23.64,0,0,1-33.43-33.42ZM1052.2,173.93l-32.73,32.73a23.64,23.64,0,1,1-33.42-33.43l32.73-32.72a23.44,23.44,0,0,1,16.71-6.93,23.63,23.63,0,0,1,16.71,40.35Zm-66.32-87.7,32.73-32.72A23.63,23.63,0,1,1,1052,86.93l-32.72,32.73a23.64,23.64,0,0,1-33.43-33.43ZM905.8,77.07l32.73-32.73A23.64,23.64,0,1,1,972,77.77l-32.73,32.72A23.63,23.63,0,1,1,905.8,77.07Zm-.17,174,32.73-32.73a23.64,23.64,0,1,1,33.42,33.43l-32.72,32.72a23.64,23.64,0,0,1-33.43-33.42Zm0,87,32.73-32.73a23.64,23.64,0,1,1,33.42,33.43l-32.72,32.72a23.64,23.64,0,0,1-33.43-33.42Zm0,174,32.73-32.73a23.64,23.64,0,1,1,33.42,33.43l-32.72,32.72a23.64,23.64,0,0,1-33.43-33.42Zm0,87,32.73-32.73a23.64,23.64,0,1,1,33.42,33.43l-32.72,32.72a23.64,23.64,0,0,1-33.43-33.42Zm-14.51-444.3-32.73,32.72A23.63,23.63,0,1,1,825,154.07l32.72-32.73a23.64,23.64,0,0,1,33.43,33.43ZM824.8,67.07l32.73-32.73A23.64,23.64,0,1,1,891,67.77l-32.73,32.72A23.63,23.63,0,1,1,824.8,67.07Zm-.17,174,32.73-32.73a23.64,23.64,0,1,1,33.42,33.43l-32.72,32.72a23.64,23.64,0,0,1-33.43-33.42Zm0,87,32.73-32.73a23.64,23.64,0,1,1,33.42,33.43l-32.72,32.72a23.64,23.64,0,0,1-33.43-33.42Zm0,174,32.73-32.73a23.64,23.64,0,1,1,33.42,33.43l-32.72,32.72a23.64,23.64,0,0,1-33.43-33.42Zm0,87,32.73-32.73a23.64,23.64,0,1,1,33.42,33.43l-32.72,32.72a23.64,23.64,0,0,1-33.43-33.42ZM810.2,230.93l-32.73,32.73a23.64,23.64,0,1,1-33.42-33.43l32.73-32.72a23.44,23.44,0,0,1,16.71-6.93,23.63,23.63,0,0,1,16.71,40.35ZM743.88,56.23l32.73-32.72A23.63,23.63,0,1,1,810,56.93L777.31,89.66a23.64,23.64,0,0,1-33.43-33.43Zm0,87,32.73-32.72A23.63,23.63,0,1,1,810,143.93l-32.72,32.73a23.64,23.64,0,0,1-33.43-33.43Zm-.16,174,32.72-32.72a23.64,23.64,0,0,1,33.43,33.42l-32.73,32.73a23.64,23.64,0,1,1-33.42-33.43Zm0,87,32.72-32.72a23.64,23.64,0,0,1,33.43,33.42l-32.73,32.73a23.64,23.64,0,1,1-33.42-33.43Zm0,174,32.72-32.72a23.64,23.64,0,0,1,33.43,33.42l-32.73,32.73a23.64,23.64,0,1,1-33.42-33.43Zm0,87,32.72-32.72a23.64,23.64,0,0,1,33.43,33.42l-32.73,32.73a23.64,23.64,0,1,1-33.42-33.43Zm-15.6-534.46-32.73,32.72A23.63,23.63,0,1,1,662,130.07l32.72-32.73a23.64,23.64,0,0,1,33.43,33.43ZM661.8,43.07l32.73-32.73A23.64,23.64,0,1,1,728,43.77L695.22,76.49A23.63,23.63,0,1,1,661.8,43.07Zm-.17,174,32.73-32.73a23.64,23.64,0,1,1,33.42,33.43l-32.72,32.72a23.64,23.64,0,0,1-33.43-33.42Zm0,87,32.73-32.73a23.64,23.64,0,1,1,33.42,33.43l-32.72,32.72a23.64,23.64,0,0,1-33.43-33.42Zm0,174,32.73-32.73a23.64,23.64,0,1,1,33.42,33.43l-32.72,32.72a23.64,23.64,0,0,1-33.43-33.42Zm0,87,32.73-32.73a23.64,23.64,0,1,1,33.42,33.43l-32.72,32.72a23.64,23.64,0,0,1-33.43-33.42ZM581,120.07l32.72-32.73a23.64,23.64,0,0,1,33.43,33.43l-32.73,32.72A23.63,23.63,0,1,1,581,120.07Zm-.34,87,32.73-32.73a23.64,23.64,0,1,1,33.42,33.43l-32.72,32.72a23.64,23.64,0,0,1-33.43-33.42Zm0,87,32.73-32.73a23.64,23.64,0,1,1,33.42,33.43l-32.72,32.72a23.64,23.64,0,0,1-33.43-33.42Zm0,174,32.73-32.73a23.64,23.64,0,1,1,33.42,33.43l-32.72,32.72a23.64,23.64,0,0,1-33.43-33.42Zm0,87,32.73-32.73a23.64,23.64,0,1,1,33.42,33.43l-32.72,32.72a23.64,23.64,0,0,1-33.43-33.42Zm-7.5-374.85a23.46,23.46,0,0,1-6.93,16.71l-32.73,32.73a23.64,23.64,0,1,1-33.42-33.43l32.73-32.72a23.44,23.44,0,0,1,16.71-6.93A23.68,23.68,0,0,1,573.13,180.22Zm-73.25-71,32.73-32.72A23.63,23.63,0,1,1,566,109.93l-32.72,32.73a23.64,23.64,0,0,1-33.43-33.43Zm-.16,174,32.72-32.72a23.64,23.64,0,0,1,33.43,33.42l-32.73,32.73a23.64,23.64,0,1,1-33.42-33.43Zm0,87,32.72-32.72a23.64,23.64,0,0,1,33.43,33.42l-32.73,32.73a23.64,23.64,0,1,1-33.42-33.43Zm0,174,32.72-32.72a23.64,23.64,0,0,1,33.43,33.42l-32.73,32.73a23.64,23.64,0,1,1-33.42-33.43Zm0,87,32.72-32.72a23.64,23.64,0,0,1,33.43,33.42l-32.73,32.73a23.64,23.64,0,1,1-33.42-33.43Zm-18.6-446.46-32.73,32.72A23.63,23.63,0,1,1,415,184.07l32.72-32.73a23.64,23.64,0,0,1,33.43,33.43ZM414.8,97.07l32.73-32.73A23.64,23.64,0,1,1,481,97.77l-32.73,32.72A23.63,23.63,0,1,1,414.8,97.07Zm-.17,174,32.73-32.73a23.64,23.64,0,1,1,33.42,33.43l-32.72,32.72a23.64,23.64,0,0,1-33.43-33.42Zm0,87,32.73-32.73a23.64,23.64,0,1,1,33.42,33.43l-32.72,32.72a23.64,23.64,0,0,1-33.43-33.42Zm0,174,32.73-32.73a23.64,23.64,0,1,1,33.42,33.43l-32.72,32.72a23.64,23.64,0,0,1-33.43-33.42Zm0,87,32.73-32.73a23.64,23.64,0,1,1,33.42,33.43l-32.72,32.72a23.64,23.64,0,0,1-33.43-33.42Zm-14.51-444.3-32.73,32.72A23.63,23.63,0,1,1,334,174.07l32.72-32.73a23.64,23.64,0,0,1,33.43,33.43ZM333.8,87.07l32.73-32.73A23.64,23.64,0,1,1,400,87.77l-32.73,32.72A23.63,23.63,0,1,1,333.8,87.07Zm-.17,174,32.73-32.73a23.64,23.64,0,1,1,33.42,33.43l-32.72,32.72a23.64,23.64,0,0,1-33.43-33.42Zm0,87,32.73-32.73a23.64,23.64,0,1,1,33.42,33.43l-32.72,32.72a23.64,23.64,0,0,1-33.43-33.42Zm0,174,32.73-32.73a23.64,23.64,0,1,1,33.42,33.43l-32.72,32.72a23.64,23.64,0,0,1-33.43-33.42Zm0,87,32.73-32.73a23.64,23.64,0,1,1,33.42,33.43l-32.72,32.72a23.64,23.64,0,0,1-33.43-33.42ZM319.2,250.93l-32.73,32.73a23.64,23.64,0,1,1-33.42-33.43l32.73-32.72a23.44,23.44,0,0,1,16.71-6.93,23.63,23.63,0,0,1,16.71,40.35ZM252.88,76.23l32.73-32.72A23.63,23.63,0,1,1,319,76.93l-32.72,32.73a23.64,23.64,0,0,1-33.43-33.43Zm0,87,32.73-32.72A23.63,23.63,0,1,1,319,163.93l-32.72,32.73a23.64,23.64,0,0,1-33.43-33.43Zm-80-97.75,32.73-32.72A23.63,23.63,0,1,1,239,66.18L206.26,98.91a23.64,23.64,0,0,1-33.42-33.43Zm0,87,32.73-32.72A23.63,23.63,0,1,1,239,153.18l-32.73,32.73a23.64,23.64,0,0,1-33.42-33.43Zm-.17,174,32.73-32.72a23.64,23.64,0,0,1,33.43,33.42L206.1,359.91a23.64,23.64,0,0,1-33.43-33.43Zm0,87,32.73-32.72a23.64,23.64,0,0,1,33.43,33.42L206.1,446.91a23.64,23.64,0,0,1-33.43-33.43Zm0,174,32.73-32.72a23.64,23.64,0,0,1,33.43,33.42L206.1,620.91a23.64,23.64,0,0,1-33.43-33.43Zm0,87,32.73-32.72a23.64,23.64,0,0,1,33.43,33.42L206.1,707.91a23.64,23.64,0,0,1-33.43-33.43Zm-14.51-444.3-32.73,32.73A23.64,23.64,0,1,1,92,229.48l32.73-32.72a23.63,23.63,0,0,1,33.42,33.42ZM91.84,55.48l32.73-32.72A23.63,23.63,0,1,1,158,56.18L125.26,88.91A23.64,23.64,0,0,1,91.84,55.48Zm0,87,32.73-32.72A23.63,23.63,0,1,1,158,143.18l-32.73,32.73a23.64,23.64,0,0,1-33.42-33.43Zm-.17,174,32.73-32.72a23.64,23.64,0,0,1,33.43,33.42L125.1,349.91a23.64,23.64,0,0,1-33.43-33.43Zm0,87,32.73-32.72a23.64,23.64,0,0,1,33.43,33.42L125.1,436.91a23.64,23.64,0,0,1-33.43-33.43Zm0,174,32.73-32.72a23.64,23.64,0,0,1,33.43,33.42L125.1,610.91a23.64,23.64,0,0,1-33.43-33.43Zm0,87,32.73-32.72a23.64,23.64,0,0,1,33.43,33.42L125.1,697.91a23.64,23.64,0,0,1-33.43-33.43ZM11.26,44.65,44,11.92A23.64,23.64,0,0,1,77.41,45.35L44.68,78.08A23.64,23.64,0,1,1,11.26,44.65Zm-.34,87L43.65,98.92a23.64,23.64,0,0,1,33.43,33.43L44.35,165.08a23.64,23.64,0,0,1-33.43-33.43Zm0,87,32.73-32.73a23.64,23.64,0,0,1,33.43,33.43L44.35,252.08a23.64,23.64,0,0,1-33.43-33.43Zm-.16,174,32.73-32.73a23.64,23.64,0,0,1,33.42,33.43L44.18,426.08a23.64,23.64,0,1,1-33.42-33.43Zm73.41,158a23.46,23.46,0,0,1-6.93,16.71L44.51,600.08a23.64,23.64,0,0,1-33.42-33.43l32.73-32.73a23.64,23.64,0,0,1,40.35,16.72Zm-73.41-71,32.73-32.73a23.64,23.64,0,0,1,33.42,33.43L44.18,513.08a23.64,23.64,0,1,1-33.42-33.43Zm0,174,32.73-32.73a23.64,23.64,0,0,1,33.42,33.43L44.18,687.08a23.64,23.64,0,1,1-33.42-33.43Z"/><path d="M475.64,353.63a16.37,16.37,0,0,0-23.14-23.15l-15.08,15.08,23.14,23.14Z"/><path d="M475.64,614.63a16.37,16.37,0,0,0-23.14-23.15l-15.08,15.08,23.14,23.14Z"/><path d="M93.84,683a1.82,1.82,0,0,0,1.82-1.82,12.61,12.61,0,0,1,3.73-9l10.91-10.91a1.82,1.82,0,0,0-2.57-2.57L96.82,669.63A16.22,16.22,0,0,0,92,681.2,1.83,1.83,0,0,0,93.84,683Z"/><path d="M60.53,534.27A16.26,16.26,0,0,0,49,539.06L33.88,554.14,57,577.29,72.1,562.21a16.37,16.37,0,0,0-11.57-27.94Z"/><path d="M71.77,475.21a16.37,16.37,0,0,0-23.14-23.15L33.55,467.14l23.14,23.15Z"/><path d="M416.8,550.6a1.82,1.82,0,0,0,1.82-1.82,12.61,12.61,0,0,1,3.73-9l10.91-10.91a1.82,1.82,0,0,0-2.58-2.57l-10.9,10.91a16.22,16.22,0,0,0-4.8,11.57A1.81,1.81,0,0,0,416.8,550.6Z"/><path d="M12.92,498.18a1.81,1.81,0,0,0,1.82-1.82,12.69,12.69,0,0,1,3.73-9l10.91-10.9a1.82,1.82,0,1,0-2.57-2.57L15.9,484.79a16.26,16.26,0,0,0-4.79,11.57A1.81,1.81,0,0,0,12.92,498.18Z"/><path d="M475.64,527.63a16.37,16.37,0,0,0-23.14-23.15l-15.08,15.08,23.14,23.14Z"/><path d="M71.77,649.21a16.37,16.37,0,0,0-23.14-23.15L33.55,641.14l23.14,23.15Z"/><path d="M175,171a1.83,1.83,0,0,0,1.82-1.82,12.65,12.65,0,0,1,3.72-9l10.91-10.91a1.82,1.82,0,1,0-2.57-2.57L178,157.63a16.26,16.26,0,0,0-4.79,11.57A1.82,1.82,0,0,0,175,171Z"/><path d="M233.68,322a16.36,16.36,0,0,0-23.14-23.14L195.47,314l23.14,23.14Z"/><path d="M152.85,51A16.36,16.36,0,0,0,129.71,27.9L114.63,43l23.14,23.14Z"/><path d="M174.84,345a1.82,1.82,0,0,0,1.82-1.82,12.61,12.61,0,0,1,3.73-9l10.91-10.91a1.82,1.82,0,1,0-2.57-2.57l-10.91,10.91A16.22,16.22,0,0,0,173,343.2,1.83,1.83,0,0,0,174.84,345Z"/><path d="M94,74a1.83,1.83,0,0,0,1.82-1.82,12.65,12.65,0,0,1,3.72-9l10.91-10.91a1.82,1.82,0,1,0-2.57-2.57L97,60.63A16.26,16.26,0,0,0,92.19,72.2,1.82,1.82,0,0,0,94,74Z"/><path d="M175,84a1.83,1.83,0,0,0,1.82-1.82,12.65,12.65,0,0,1,3.72-9l10.91-10.91a1.82,1.82,0,1,0-2.57-2.57L178,70.63a16.26,16.26,0,0,0-4.79,11.57A1.82,1.82,0,0,0,175,84Z"/><path d="M233.85,61A16.36,16.36,0,0,0,210.71,37.9L195.63,53l23.14,23.14Z"/><path d="M233.85,148a16.36,16.36,0,0,0-23.14-23.14L195.63,140l23.14,23.14Z"/><path d="M152.85,138a16.36,16.36,0,0,0-23.14-23.14L114.63,130l23.14,23.14Z"/><path d="M174.84,693a1.82,1.82,0,0,0,1.82-1.82,12.61,12.61,0,0,1,3.73-9l10.91-10.91a1.82,1.82,0,0,0-2.57-2.57l-10.91,10.91A16.22,16.22,0,0,0,173,691.2,1.83,1.83,0,0,0,174.84,693Z"/><path d="M233.68,583a16.36,16.36,0,0,0-23.14-23.14L195.47,575l23.14,23.14Z"/><path d="M174.84,606a1.82,1.82,0,0,0,1.82-1.82,12.61,12.61,0,0,1,3.73-9l10.91-10.91a1.82,1.82,0,0,0-2.57-2.57l-10.91,10.91A16.22,16.22,0,0,0,173,604.2,1.83,1.83,0,0,0,174.84,606Z"/><path d="M108.06,223.72,97.15,234.63a16.26,16.26,0,0,0-4.79,11.57,1.82,1.82,0,1,0,3.63,0,12.66,12.66,0,0,1,3.73-9l10.91-10.91a1.82,1.82,0,0,0-2.57-2.57Z"/><path d="M141.45,197.11a16.26,16.26,0,0,0-11.57,4.79L114.8,217l23.14,23.14L153,225a16.36,16.36,0,0,0-11.57-27.93Z"/><path d="M233.68,409a16.36,16.36,0,0,0-23.14-23.14L195.47,401l23.14,23.14Z"/><path d="M174.84,432a1.82,1.82,0,0,0,1.82-1.82,12.61,12.61,0,0,1,3.73-9l10.91-10.91a1.82,1.82,0,1,0-2.57-2.57l-10.91,10.91A16.22,16.22,0,0,0,173,430.2,1.83,1.83,0,0,0,174.84,432Z"/><path d="M152.68,312a16.36,16.36,0,0,0-23.14-23.14L114.47,304l23.14,23.14Z"/><path d="M152.68,573a16.36,16.36,0,0,0-23.14-23.14L114.47,565l23.14,23.14Z"/><path d="M269.1,244.47l-10.91,10.91A16.26,16.26,0,0,0,253.4,267a1.82,1.82,0,1,0,3.63,0,12.66,12.66,0,0,1,3.73-9L271.67,247a1.82,1.82,0,0,0-2.57-2.57Z"/><path d="M93.84,596a1.82,1.82,0,0,0,1.82-1.82,12.61,12.61,0,0,1,3.73-9l10.91-10.91a1.82,1.82,0,0,0-2.57-2.57L96.82,582.63A16.22,16.22,0,0,0,92,594.2,1.83,1.83,0,0,0,93.84,596Z"/><path d="M302.49,217.86a16.26,16.26,0,0,0-11.57,4.79l-15.08,15.08L299,260.87l15.08-15.08a16.36,16.36,0,0,0-11.57-27.93Z"/><path d="M335.8,627.6a1.82,1.82,0,0,0,1.82-1.82,12.61,12.61,0,0,1,3.73-9l10.91-10.91a1.82,1.82,0,0,0-2.58-2.57l-10.9,10.91a16.22,16.22,0,0,0-4.8,11.57A1.81,1.81,0,0,0,335.8,627.6Z"/><path d="M93.84,422a1.82,1.82,0,0,0,1.82-1.82,12.61,12.61,0,0,1,3.73-9l10.91-10.91a1.82,1.82,0,1,0-2.57-2.57L96.82,408.63A16.22,16.22,0,0,0,92,420.2,1.83,1.83,0,0,0,93.84,422Z"/><path d="M152.68,660a16.36,16.36,0,0,0-23.14-23.14L114.47,652l23.14,23.14Z"/><path d="M394.64,604.63a16.37,16.37,0,0,0-23.14-23.15l-15.08,15.08,23.14,23.14Z"/><path d="M93.84,335a1.82,1.82,0,0,0,1.82-1.82,12.61,12.61,0,0,1,3.73-9l10.91-10.91a1.82,1.82,0,1,0-2.57-2.57L96.82,321.63A16.22,16.22,0,0,0,92,333.2,1.83,1.83,0,0,0,93.84,335Z"/><path d="M152.68,399a16.36,16.36,0,0,0-23.14-23.14L114.47,391l23.14,23.14Z"/><path d="M313.89,158.79a16.36,16.36,0,0,0-23.14-23.14l-15.08,15.08,23.14,23.14Z"/><path d="M255.05,181.77a1.83,1.83,0,0,0,1.82-1.82,12.61,12.61,0,0,1,3.73-9L271.51,160a1.82,1.82,0,0,0-2.58-2.57L258,168.38A16.26,16.26,0,0,0,253.23,180,1.82,1.82,0,0,0,255.05,181.77Z"/><path d="M335.8,540.6a1.82,1.82,0,0,0,1.82-1.82,12.61,12.61,0,0,1,3.73-9l10.91-10.91a1.82,1.82,0,0,0-2.58-2.57l-10.9,10.91a16.22,16.22,0,0,0-4.8,11.57A1.81,1.81,0,0,0,335.8,540.6Z"/><path d="M94,161a1.83,1.83,0,0,0,1.82-1.82,12.65,12.65,0,0,1,3.72-9l10.91-10.91a1.82,1.82,0,0,0-2.57-2.57L97,147.63a16.26,16.26,0,0,0-4.79,11.57A1.82,1.82,0,0,0,94,161Z"/><path d="M313.89,71.79a16.36,16.36,0,0,0-23.14-23.14L275.67,63.73l23.14,23.14Z"/><path d="M255.05,94.77A1.83,1.83,0,0,0,256.87,93a12.61,12.61,0,0,1,3.73-9L271.51,73a1.82,1.82,0,0,0-2.58-2.57L258,81.38A16.26,16.26,0,0,0,253.23,93,1.82,1.82,0,0,0,255.05,94.77Z"/><path d="M71.93,127.21a16.37,16.37,0,0,0-23.14-23.15L33.72,119.14l23.14,23.15Z"/><path d="M383.24,750.36a16.26,16.26,0,0,0-11.57,4.79L358.82,768h40.72c0-.42.06-.85.06-1.28A16.38,16.38,0,0,0,383.24,750.36Z"/><path d="M582.8,312.6a1.82,1.82,0,0,0,1.82-1.82,12.61,12.61,0,0,1,3.73-9l10.91-10.91a1.82,1.82,0,1,0-2.58-2.57l-10.9,10.91a16.22,16.22,0,0,0-4.8,11.57A1.81,1.81,0,0,0,582.8,312.6Z"/><path d="M596.85,723l-10.91,10.91a16.26,16.26,0,0,0-4.79,11.57,1.82,1.82,0,1,0,3.63,0,12.66,12.66,0,0,1,3.73-9l10.91-10.91a1.82,1.82,0,0,0-2.57-2.57Z"/><path d="M641.64,463.63a16.37,16.37,0,0,0-23.14-23.15l-15.08,15.08,23.14,23.14Z"/><path d="M641.81,724.29a16.36,16.36,0,0,0-23.14-23.14l-15.08,15.08,23.14,23.14Z"/><path d="M464.24,760.36a16.26,16.26,0,0,0-11.57,4.79L449.82,768h28.24A16.35,16.35,0,0,0,464.24,760.36Z"/><path d="M641.64,289.63a16.37,16.37,0,0,0-23.14-23.15l-15.08,15.08,23.14,23.14Z"/><path d="M582.8,225.6a1.82,1.82,0,0,0,1.82-1.82,12.61,12.61,0,0,1,3.73-9l10.91-10.91a1.82,1.82,0,1,0-2.58-2.57l-10.9,10.91a16.22,16.22,0,0,0-4.8,11.57A1.81,1.81,0,0,0,582.8,225.6Z"/><path d="M665.78,755.45a12.66,12.66,0,0,1,3.73-9l10.91-10.91a1.82,1.82,0,0,0-2.57-2.57l-10.91,10.91a16.26,16.26,0,0,0-4.79,11.57,1.82,1.82,0,1,0,3.63,0Z"/><path d="M727.6,722.72a16.36,16.36,0,0,0-27.93-11.57l-15.08,15.08,23.14,23.14,15.08-15.08A16.26,16.26,0,0,0,727.6,722.72Z"/><path d="M582.8,573.6a1.82,1.82,0,0,0,1.82-1.82,12.61,12.61,0,0,1,3.73-9l10.91-10.91a1.82,1.82,0,0,0-2.58-2.57l-10.9,10.91a16.22,16.22,0,0,0-4.8,11.57A1.81,1.81,0,0,0,582.8,573.6Z"/><path d="M885.81,758.29a16.36,16.36,0,0,0-23.14-23.14l-15.08,15.08L865.36,768H876.1Z"/><path d="M843.42,757a1.82,1.82,0,0,0-2.57,0l-10.91,10.91-.11.12H835l8.46-8.46A1.82,1.82,0,0,0,843.42,757Z"/><path d="M516.1,190.47l-10.91,10.91A16.26,16.26,0,0,0,500.4,213a1.82,1.82,0,1,0,3.63,0,12.66,12.66,0,0,1,3.73-9L518.67,193a1.82,1.82,0,0,0-2.57-2.57Z"/><path d="M759.93,746.47,749,757.38A16.24,16.24,0,0,0,744.28,768h3.63a12.67,12.67,0,0,1,3.69-8L762.51,749a1.82,1.82,0,0,0-2.58-2.57Z"/><path d="M641.64,550.63a16.37,16.37,0,0,0-23.14-23.15l-15.08,15.08,23.14,23.14Z"/><path d="M515.93,16.47,505,27.38A16.26,16.26,0,0,0,500.23,39a1.82,1.82,0,0,0,3.64,0,12.61,12.61,0,0,1,3.73-9L518.51,19a1.82,1.82,0,0,0-2.58-2.57Z"/><path d="M809.69,736.22a16.37,16.37,0,0,0-27.94-11.57l-15.08,15.08,23.14,23.14,15.08-15.08A16.26,16.26,0,0,0,809.69,736.22Z"/><path d="M107.89,745.72,97,756.63A16.24,16.24,0,0,0,92.2,768h3.64a12.65,12.65,0,0,1,3.71-8.8l10.91-10.91a1.82,1.82,0,0,0-2.57-2.57Z"/><path d="M663.8,496.6a1.82,1.82,0,0,0,1.82-1.82,12.61,12.61,0,0,1,3.73-9l10.91-10.91a1.82,1.82,0,1,0-2.58-2.57l-10.9,10.91a16.22,16.22,0,0,0-4.8,11.57A1.81,1.81,0,0,0,663.8,496.6Z"/><path d="M14.74,757.36a12.69,12.69,0,0,1,3.73-9l10.91-10.9a1.82,1.82,0,1,0-2.57-2.57L15.9,745.79a16.26,16.26,0,0,0-4.79,11.57,1.82,1.82,0,1,0,3.63,0Z"/><path d="M921.85,767l-1,1h4.11a1.77,1.77,0,0,0-.51-1A1.82,1.82,0,0,0,921.85,767Z"/><path d="M722.64,473.63a16.37,16.37,0,0,0-23.14-23.15l-15.08,15.08,23.14,23.14Z"/><path d="M722.64,560.63a16.37,16.37,0,0,0-23.14-23.15l-15.08,15.08,23.14,23.14Z"/><path d="M663.8,322.6a1.82,1.82,0,0,0,1.82-1.82,12.61,12.61,0,0,1,3.73-9l10.91-10.91a1.82,1.82,0,1,0-2.58-2.57l-10.9,10.91a16.22,16.22,0,0,0-4.8,11.57A1.81,1.81,0,0,0,663.8,322.6Z"/><path d="M76.56,724.64a16.36,16.36,0,0,0-27.93-11.58L33.55,728.14l23.14,23.15,15.08-15.08A16.26,16.26,0,0,0,76.56,724.64Z"/><path d="M641.64,202.63a16.37,16.37,0,0,0-23.14-23.15l-15.08,15.08,23.14,23.14Z"/><polygon points="1345.38 768 1366 768 1366 747.38 1345.38 768"/><path d="M642,115.63a16.36,16.36,0,1,0-23.13-23.15l-15.08,15.08L626.9,130.7Z"/><path d="M268.93,766.47,267.4,768H272a1.79,1.79,0,0,0-.51-1.53A1.82,1.82,0,0,0,268.93,766.47Z"/><path d="M583.13,138.6a1.81,1.81,0,0,0,1.82-1.82,12.66,12.66,0,0,1,3.73-9l10.91-10.91A1.82,1.82,0,1,0,597,114.3l-10.91,10.91a16.26,16.26,0,0,0-4.8,11.57A1.82,1.82,0,0,0,583.13,138.6Z"/><path d="M313.89,767.79a16.36,16.36,0,0,0-23.14-23.14l-15.08,15.08L284,768h29.73Z"/><path d="M157.64,735.47a16.36,16.36,0,0,0-27.93-11.57L114.63,739l23.14,23.14L152.85,747A16.26,16.26,0,0,0,157.64,735.47Z"/><path d="M233.85,757a16.36,16.36,0,0,0-23.14-23.14L195.63,749l19,19h8.24Z"/><path d="M663.8,583.6a1.82,1.82,0,0,0,1.82-1.82,12.61,12.61,0,0,1,3.73-9l10.91-10.91a1.82,1.82,0,0,0-2.58-2.57l-10.9,10.91a16.22,16.22,0,0,0-4.8,11.57A1.81,1.81,0,0,0,663.8,583.6Z"/><path d="M188.89,755.72,178,766.63a15.9,15.9,0,0,0-1.22,1.37h5l9.71-9.71a1.82,1.82,0,1,0-2.57-2.57Z"/><path d="M582.8,486.6a1.82,1.82,0,0,0,1.82-1.82,12.61,12.61,0,0,1,3.73-9l10.91-10.91a1.82,1.82,0,1,0-2.58-2.57l-10.9,10.91a16.22,16.22,0,0,0-4.8,11.57A1.81,1.81,0,0,0,582.8,486.6Z"/><path d="M501.88,562.77A1.82,1.82,0,0,0,503.7,561a12.66,12.66,0,0,1,3.73-9L518.34,541a1.82,1.82,0,1,0-2.57-2.57l-10.91,10.91a16.26,16.26,0,0,0-4.8,11.57A1.83,1.83,0,0,0,501.88,562.77Z"/><path d="M560.73,539.79a16.36,16.36,0,0,0-23.14-23.14l-15.08,15.08,23.14,23.14Z"/><path d="M560.73,626.79a16.36,16.36,0,0,0-23.14-23.14l-15.08,15.08,23.14,23.14Z"/><path d="M1325,123.3l-10.91,10.91a16.26,16.26,0,0,0-4.8,11.57,1.82,1.82,0,1,0,3.64,0,12.66,12.66,0,0,1,3.73-9l10.91-10.91a1.82,1.82,0,0,0-2.57-2.57Z"/><path d="M1324.68,210.3l-10.9,10.91a16.22,16.22,0,0,0-4.8,11.57,1.82,1.82,0,0,0,3.64,0,12.61,12.61,0,0,1,3.73-9l10.91-10.91a1.82,1.82,0,1,0-2.58-2.57Z"/><path d="M560.73,365.79a16.36,16.36,0,0,0-23.14-23.14l-15.08,15.08,23.14,23.14Z"/><path d="M1325,384.3l-10.91,10.91a16.26,16.26,0,0,0-4.8,11.57,1.82,1.82,0,1,0,3.64,0,12.66,12.66,0,0,1,3.73-9l10.91-10.91a1.82,1.82,0,0,0-2.57-2.57Z"/><path d="M501.88,388.77A1.82,1.82,0,0,0,503.7,387a12.66,12.66,0,0,1,3.73-9L518.34,367a1.82,1.82,0,1,0-2.57-2.57l-10.91,10.91a16.26,16.26,0,0,0-4.8,11.57A1.83,1.83,0,0,0,501.88,388.77Z"/><path d="M1324.68,297.3l-10.9,10.91a16.22,16.22,0,0,0-4.8,11.57,1.82,1.82,0,0,0,3.64,0,12.61,12.61,0,0,1,3.73-9l10.91-10.91a1.82,1.82,0,0,0-2.58-2.57Z"/><path d="M501.88,649.77A1.82,1.82,0,0,0,503.7,648a12.66,12.66,0,0,1,3.73-9L518.34,628a1.82,1.82,0,1,0-2.57-2.57l-10.91,10.91a16.26,16.26,0,0,0-4.8,11.57A1.83,1.83,0,0,0,501.88,649.77Z"/><path d="M464.41,151.69a16.24,16.24,0,0,0-11.57,4.79l-15.08,15.08L460.9,194.7,476,179.63a16.36,16.36,0,0,0-11.56-27.94Z"/><path d="M596.85,27.3,585.94,38.21a16.26,16.26,0,0,0-4.79,11.57,1.82,1.82,0,1,0,3.63,0,12.66,12.66,0,0,1,3.73-9l10.91-10.91a1.82,1.82,0,0,0-2.57-2.57Z"/><path d="M1163.85,14.3l-10.91,10.91a16.26,16.26,0,0,0-4.79,11.57,1.82,1.82,0,1,0,3.63,0,12.66,12.66,0,0,1,3.73-9l10.91-10.91a1.82,1.82,0,1,0-2.57-2.57Z"/><path d="M431,178.3l-10.91,10.91a16.26,16.26,0,0,0-4.8,11.57,1.82,1.82,0,1,0,3.64,0,12.66,12.66,0,0,1,3.73-9l10.91-10.91A1.82,1.82,0,0,0,431,178.3Z"/><path d="M1324.85,36.3l-10.91,10.91a16.26,16.26,0,0,0-4.79,11.57,1.82,1.82,0,1,0,3.63,0,12.66,12.66,0,0,1,3.73-9l10.91-10.91a1.82,1.82,0,1,0-2.57-2.57Z"/><path d="M1243.93,25.47,1233,36.38A16.26,16.26,0,0,0,1228.23,48a1.82,1.82,0,0,0,3.64,0,12.61,12.61,0,0,1,3.73-9L1246.51,28a1.82,1.82,0,0,0-2.58-2.57Z"/><path d="M1035.32,749.52a16.26,16.26,0,0,0-11.57,4.79L1010.07,768h41.46a16.2,16.2,0,0,0-16.21-18.48Z"/><path d="M1324.85,645.3l-10.91,10.91a16.26,16.26,0,0,0-4.79,11.57,1.82,1.82,0,1,0,3.63,0,12.66,12.66,0,0,1,3.73-9l10.91-10.91a1.82,1.82,0,0,0-2.57-2.57Z"/><path d="M560.89,104.79a16.36,16.36,0,0,0-23.14-23.14L522.67,96.73l23.14,23.14Z"/><path d="M1116.36,759.61a16.26,16.26,0,0,0-11.57,4.79l-3.6,3.6h29.45A16.37,16.37,0,0,0,1116.36,759.61Z"/><path d="M502.05,127.77a1.83,1.83,0,0,0,1.82-1.82,12.61,12.61,0,0,1,3.73-9L518.51,106a1.82,1.82,0,0,0-2.58-2.57L505,114.38A16.26,16.26,0,0,0,500.23,126,1.82,1.82,0,0,0,502.05,127.77Z"/><path d="M955.24,740.36a16.26,16.26,0,0,0-11.57,4.79l-15.08,15.08,7.77,7.77h30.71a16.35,16.35,0,0,0-11.83-27.64Z"/><path d="M549.49,163.86a16.26,16.26,0,0,0-11.57,4.79l-15.08,15.08L546,206.87l15.08-15.08a16.36,16.36,0,0,0-11.57-27.93Z"/><path d="M560.73,278.79a16.36,16.36,0,0,0-23.14-23.14l-15.08,15.08,23.14,23.14Z"/><path d="M501.88,301.77A1.82,1.82,0,0,0,503.7,300a12.66,12.66,0,0,1,3.73-9L518.34,280a1.82,1.82,0,1,0-2.57-2.57l-10.91,10.91a16.26,16.26,0,0,0-4.8,11.57A1.83,1.83,0,0,0,501.88,301.77Z"/><path d="M1324.68,471.3l-10.9,10.91a16.22,16.22,0,0,0-4.8,11.57,1.82,1.82,0,0,0,3.64,0,12.61,12.61,0,0,1,3.73-9l10.91-10.91a1.82,1.82,0,0,0-2.58-2.57Z"/><path d="M1324.68,558.3l-10.9,10.91a16.22,16.22,0,0,0-4.8,11.57,1.82,1.82,0,0,0,3.64,0,12.61,12.61,0,0,1,3.73-9l10.91-10.91a1.82,1.82,0,0,0-2.58-2.57Z"/></svg>