<svg id="Layer_1" data-name="Layer 1" xmlns="http://www.w3.org/2000/svg" viewBox="0 0 1366 768"><circle cx="814" cy="559.63" r="6.15"/><path d="M827.54,613.93a13.52,13.52,0,0,1-4.79,10.32l-14.9,12.67V650h12.3v-7.41l10.57-9a25.84,25.84,0,1,0-42.38-22.78h12.48a13.54,13.54,0,0,1,26.72,3.08Z"/><circle cx="686" cy="674.63" r="6.15"/><circle cx="750" cy="737.51" r="6.15"/><path d="M827.54,498.93a13.52,13.52,0,0,1-4.79,10.32l-14.9,12.67V535h12.3v-7.41l10.57-9a25.84,25.84,0,1,0-42.38-22.78h12.48a13.54,13.54,0,0,1,26.72,3.08Z"/><circle cx="750" cy="47.42" r="6.15"/><path d="M827.54,268.85a13.54,13.54,0,0,1-4.79,10.32l-14.9,12.67v13.1h12.3v-7.41l10.57-9a25.84,25.84,0,1,0-42.38-22.77h12.48a13.54,13.54,0,0,1,26.72,3.08Z"/><path d="M827.54,153.85a13.54,13.54,0,0,1-4.79,10.32l-14.9,12.67v13.1h12.3v-7.41l10.57-9a25.84,25.84,0,1,0-42.38-22.77h12.48a13.54,13.54,0,0,1,26.72,3.08Z"/><path d="M827.54,383.76a13.52,13.52,0,0,1-4.79,10.32l-14.9,12.68v13.1h12.3v-7.41l10.57-9a25.84,25.84,0,1,0-42.38-22.77h12.48a13.54,13.54,0,0,1,26.72,3.07Z"/><circle cx="814" cy="444.47" r="6.15"/><circle cx="814" cy="329.55" r="6.15"/><circle cx="814" cy="214.55" r="6.15"/><path d="M763.54,562a13.52,13.52,0,0,1-4.79,10.32L743.85,585v13.1h12.3v-7.41l10.57-9a25.84,25.84,0,1,0-42.38-22.77h12.48A13.54,13.54,0,0,1,763.54,562Z"/><path d="M763.54,447a13.52,13.52,0,0,1-4.79,10.32L743.85,470v13.1h12.3v-7.41l10.57-9a25.84,25.84,0,1,0-42.38-22.77h12.48A13.54,13.54,0,0,1,763.54,447Z"/><circle cx="750" cy="507.67" r="6.15"/><circle cx="486" cy="622.67" r="6.15"/><circle cx="750" cy="622.67" r="6.15"/><path d="M763.54,216.89a13.52,13.52,0,0,1-4.79,10.32l-14.9,12.67V253h12.3v-7.41l10.57-9a25.84,25.84,0,1,0-42.38-22.78h12.48a13.54,13.54,0,0,1,26.72,3.08Z"/><path d="M763.54,101.89a13.52,13.52,0,0,1-4.79,10.32l-14.9,12.67V138h12.3v-7.41l10.57-9a25.84,25.84,0,1,0-42.38-22.78h12.48a13.54,13.54,0,0,1,26.72,3.08Z"/><circle cx="750" cy="162.59" r="6.15"/><circle cx="750" cy="277.59" r="6.15"/><circle cx="750" cy="392.51" r="6.15"/><path d="M763.54,331.8a13.56,13.56,0,0,1-4.79,10.33l-14.9,12.67v13.1h12.3v-7.41l10.57-9a25.84,25.84,0,1,0-42.38-22.77h12.48a13.54,13.54,0,0,1,26.72,3.07Z"/><path d="M891.54,447a13.52,13.52,0,0,1-4.79,10.32L871.85,470v13.1h12.3v-7.41l10.57-9a25.84,25.84,0,1,0-42.38-22.77h12.48A13.54,13.54,0,0,1,891.54,447Z"/><path d="M955.54,611.93a13.52,13.52,0,0,1-4.79,10.32l-14.9,12.67V648h12.3v-7.41l10.57-9a25.84,25.84,0,1,0-42.38-22.78h12.48a13.54,13.54,0,0,1,26.72,3.08Z"/><circle cx="942" cy="557.63" r="6.15"/><circle cx="814" cy="674.63" r="6.15"/><circle cx="878" cy="47.42" r="6.15"/><path d="M891.54,101.89a13.52,13.52,0,0,1-4.79,10.32l-14.9,12.67V138h12.3v-7.41l10.57-9a25.84,25.84,0,1,0-42.38-22.78h12.48a13.54,13.54,0,0,1,26.72,3.08Z"/><path d="M955.54,151.85a13.54,13.54,0,0,1-4.79,10.32l-14.9,12.67v13.1h12.3v-7.41l10.57-9a25.84,25.84,0,1,0-42.38-22.77h12.48a13.54,13.54,0,0,1,26.72,3.08Z"/><path d="M955.54,496.93a13.52,13.52,0,0,1-4.79,10.32l-14.9,12.67V533h12.3v-7.41l10.57-9a25.84,25.84,0,1,0-42.38-22.78h12.48a13.54,13.54,0,0,1,26.72,3.08Z"/><path d="M955.54,266.85a13.54,13.54,0,0,1-4.79,10.32l-14.9,12.67v13.1h12.3v-7.41l10.57-9a25.84,25.84,0,1,0-42.38-22.77h12.48a13.54,13.54,0,0,1,26.72,3.08Z"/><circle cx="942" cy="442.47" r="6.15"/><circle cx="942" cy="212.55" r="6.15"/><path d="M955.54,381.76a13.52,13.52,0,0,1-4.79,10.32l-14.9,12.68v13.1h12.3v-7.41l10.57-9a25.84,25.84,0,1,0-42.38-22.77h12.48a13.54,13.54,0,0,1,26.72,3.07Z"/><circle cx="942" cy="327.55" r="6.15"/><circle cx="878" cy="737.51" r="6.15"/><circle cx="878" cy="622.67" r="6.15"/><path d="M891.54,562a13.52,13.52,0,0,1-4.79,10.32L871.85,585v13.1h12.3v-7.41l10.57-9a25.84,25.84,0,1,0-42.38-22.77h12.48A13.54,13.54,0,0,1,891.54,562Z"/><path d="M891.54,676.8a13.56,13.56,0,0,1-4.79,10.33l-14.9,12.67v13.1h12.3v-7.41l10.57-9a25.84,25.84,0,1,0-42.38-22.77h12.48a13.54,13.54,0,0,1,26.72,3.07Z"/><circle cx="878" cy="507.67" r="6.15"/><path d="M827.54,38.68A13.52,13.52,0,0,1,822.75,49l-14.9,12.67v13.1h12.3V67.36l10.57-9A25.84,25.84,0,1,0,788.34,35.6h12.48a13.54,13.54,0,0,1,26.72,3.08Z"/><circle cx="878" cy="162.59" r="6.15"/><circle cx="878" cy="277.59" r="6.15"/><path d="M699.54,38.68A13.52,13.52,0,0,1,694.75,49l-14.9,12.67v13.1h12.3V67.36l10.57-9A25.84,25.84,0,1,0,660.34,35.6h12.48a13.54,13.54,0,0,1,26.72,3.08Z"/><path d="M891.54,216.89a13.52,13.52,0,0,1-4.79,10.32l-14.9,12.67V253h12.3v-7.41l10.57-9a25.84,25.84,0,1,0-42.38-22.78h12.48a13.54,13.54,0,0,1,26.72,3.08Z"/><path d="M891.54,331.8a13.56,13.56,0,0,1-4.79,10.33l-14.9,12.67v13.1h12.3v-7.41l10.57-9a25.84,25.84,0,1,0-42.38-22.77h12.48a13.54,13.54,0,0,1,26.72,3.07Z"/><circle cx="878" cy="392.51" r="6.15"/><circle cx="814" cy="99.38" r="6.15"/><circle cx="550" cy="446.47" r="6.15"/><path d="M563.54,500.93a13.52,13.52,0,0,1-4.79,10.32l-14.9,12.67V537h12.3v-7.41l10.57-9a25.84,25.84,0,1,0-42.38-22.78h12.48a13.54,13.54,0,0,1,26.72,3.08Z"/><circle cx="422" cy="674.63" r="6.15"/><path d="M563.54,40.68A13.52,13.52,0,0,1,558.75,51l-14.9,12.67v13.1h12.3V69.36l10.57-9A25.84,25.84,0,1,0,524.34,37.6h12.48a13.54,13.54,0,0,1,26.72,3.08Z"/><path d="M563.54,615.93a13.52,13.52,0,0,1-4.79,10.32l-14.9,12.67V652h12.3v-7.41l10.57-9a25.84,25.84,0,1,0-42.38-22.78h12.48a13.54,13.54,0,0,1,26.72,3.08Z"/><path d="M563.54,385.76a13.52,13.52,0,0,1-4.79,10.32l-14.9,12.68v13.1h12.3v-7.41l10.57-9a25.84,25.84,0,1,0-42.38-22.77h12.48a13.54,13.54,0,0,1,26.72,3.07Z"/><circle cx="550" cy="101.38" r="6.15"/><path d="M563.54,155.85a13.54,13.54,0,0,1-4.79,10.32l-14.9,12.67v13.1h12.3v-7.41l10.57-9a25.84,25.84,0,1,0-42.38-22.77h12.48a13.54,13.54,0,0,1,26.72,3.08Z"/><circle cx="686" cy="99.38" r="6.15"/><circle cx="550" cy="216.55" r="6.15"/><circle cx="550" cy="331.55" r="6.15"/><circle cx="550" cy="561.63" r="6.15"/><path d="M499.54,447a13.52,13.52,0,0,1-4.79,10.32L479.85,470v13.1h12.3v-7.41l10.57-9a25.84,25.84,0,1,0-42.38-22.77h12.48A13.54,13.54,0,0,1,499.54,447Z"/><circle cx="486" cy="392.51" r="6.15"/><path d="M499.54,562a13.52,13.52,0,0,1-4.79,10.32L479.85,585v13.1h12.3v-7.41l10.57-9a25.84,25.84,0,1,0-42.38-22.77h12.48A13.54,13.54,0,0,1,499.54,562Z"/><circle cx="486" cy="507.67" r="6.15"/><path d="M499.54,331.8a13.56,13.56,0,0,1-4.79,10.33l-14.9,12.67v13.1h12.3v-7.41l10.57-9a25.84,25.84,0,1,0-42.38-22.77h12.48a13.54,13.54,0,0,1,26.72,3.07Z"/><circle cx="486" cy="277.59" r="6.15"/><circle cx="486" cy="737.51" r="6.15"/><circle cx="486" cy="47.42" r="6.15"/><path d="M499.54,101.89a13.52,13.52,0,0,1-4.79,10.32l-14.9,12.67V138h12.3v-7.41l10.57-9a25.84,25.84,0,1,0-42.38-22.78h12.48a13.54,13.54,0,0,1,26.72,3.08Z"/><path d="M499.54,216.89a13.52,13.52,0,0,1-4.79,10.32l-14.9,12.67V253h12.3v-7.41l10.57-9a25.84,25.84,0,1,0-42.38-22.78h12.48a13.54,13.54,0,0,1,26.72,3.08Z"/><circle cx="486" cy="162.59" r="6.15"/><path d="M563.54,270.85a13.54,13.54,0,0,1-4.79,10.32l-14.9,12.67v13.1h12.3v-7.41l10.57-9a25.84,25.84,0,1,0-42.38-22.77h12.48a13.54,13.54,0,0,1,26.72,3.08Z"/><circle cx="614" cy="739.51" r="6.15"/><circle cx="686" cy="559.63" r="6.15"/><circle cx="550" cy="676.63" r="6.15"/><circle cx="686" cy="444.47" r="6.15"/><path d="M627.54,678.8a13.56,13.56,0,0,1-4.79,10.33l-14.9,12.67v13.1h12.3v-7.41l10.57-9a25.84,25.84,0,1,0-42.38-22.77h12.48a13.54,13.54,0,0,1,26.72,3.07Z"/><path d="M699.54,498.93a13.52,13.52,0,0,1-4.79,10.32l-14.9,12.67V535h12.3v-7.41l10.57-9a25.84,25.84,0,1,0-42.38-22.78h12.48a13.54,13.54,0,0,1,26.72,3.08Z"/><path d="M699.54,383.76a13.52,13.52,0,0,1-4.79,10.32l-14.9,12.68v13.1h12.3v-7.41l10.57-9a25.84,25.84,0,1,0-42.38-22.77h12.48a13.54,13.54,0,0,1,26.72,3.07Z"/><circle cx="686" cy="214.55" r="6.15"/><path d="M699.54,153.85a13.54,13.54,0,0,1-4.79,10.32l-14.9,12.67v13.1h12.3v-7.41l10.57-9a25.84,25.84,0,1,0-42.38-22.77h12.48a13.54,13.54,0,0,1,26.72,3.08Z"/><circle cx="686" cy="329.55" r="6.15"/><path d="M699.54,268.85a13.54,13.54,0,0,1-4.79,10.32l-14.9,12.67v13.1h12.3v-7.41l10.57-9a25.84,25.84,0,1,0-42.38-22.77h12.48a13.54,13.54,0,0,1,26.72,3.08Z"/><path d="M699.54,613.93a13.52,13.52,0,0,1-4.79,10.32l-14.9,12.67V650h12.3v-7.41l10.57-9a25.84,25.84,0,1,0-42.38-22.78h12.48a13.54,13.54,0,0,1,26.72,3.08Z"/><circle cx="614" cy="509.67" r="6.15"/><circle cx="614" cy="394.51" r="6.15"/><path d="M627.54,449a13.52,13.52,0,0,1-4.79,10.32L607.85,472v13.1h12.3v-7.41l10.57-9a25.84,25.84,0,1,0-42.38-22.77h12.48A13.54,13.54,0,0,1,627.54,449Z"/><path d="M627.54,564a13.52,13.52,0,0,1-4.79,10.32L607.85,587v13.1h12.3v-7.41l10.57-9a25.84,25.84,0,1,0-42.38-22.77h12.48A13.54,13.54,0,0,1,627.54,564Z"/><circle cx="614" cy="624.67" r="6.15"/><circle cx="614" cy="164.59" r="6.15"/><circle cx="614" cy="49.42" r="6.15"/><path d="M627.54,333.8a13.56,13.56,0,0,1-4.79,10.33l-14.9,12.67v13.1h12.3v-7.41l10.57-9a25.84,25.84,0,1,0-42.38-22.77h12.48a13.54,13.54,0,0,1,26.72,3.07Z"/><path d="M627.54,103.89a13.52,13.52,0,0,1-4.79,10.32l-14.9,12.67V140h12.3v-7.41l10.57-9a25.84,25.84,0,1,0-42.38-22.78h12.48a13.54,13.54,0,0,1,26.72,3.08Z"/><path d="M627.54,218.89a13.52,13.52,0,0,1-4.79,10.32l-14.9,12.67V255h12.3v-7.41l10.57-9a25.84,25.84,0,1,0-42.38-22.78h12.48a13.54,13.54,0,0,1,26.72,3.08Z"/><circle cx="614" cy="279.59" r="6.15"/><path d="M763.54,676.8a13.56,13.56,0,0,1-4.79,10.33l-14.9,12.67v13.1h12.3v-7.41l10.57-9a25.84,25.84,0,1,0-42.38-22.77h12.48a13.54,13.54,0,0,1,26.72,3.07Z"/><circle cx="1326" cy="208.55" r="6.15"/><circle cx="1262" cy="43.42" r="6.15"/><circle cx="1326" cy="668.63" r="6.15"/><path d="M1275.54,97.89a13.52,13.52,0,0,1-4.79,10.32l-14.9,12.67V134h12.3v-7.41l10.57-9a25.84,25.84,0,1,0-42.38-22.78h12.48a13.54,13.54,0,0,1,26.72,3.08Z"/><path d="M1339.54,607.93a13.52,13.52,0,0,1-4.79,10.32l-14.9,12.67V644h12.3v-7.41l10.57-9a25.84,25.84,0,1,0-42.38-22.78h12.48a13.54,13.54,0,0,1,26.72,3.08Z"/><circle cx="1262" cy="158.59" r="6.15"/><circle cx="1198" cy="210.55" r="6.15"/><path d="M1275.54,212.89a13.52,13.52,0,0,1-4.79,10.32l-14.9,12.67V249h12.3v-7.41l10.57-9a25.84,25.84,0,1,0-42.38-22.78h12.48a13.54,13.54,0,0,1,26.72,3.08Z"/><circle cx="1326" cy="323.55" r="6.15"/><circle cx="1326" cy="438.47" r="6.15"/><path d="M1339.54,492.93a13.52,13.52,0,0,1-4.79,10.32l-14.9,12.67V529h12.3v-7.41l10.57-9a25.84,25.84,0,1,0-42.38-22.78h12.48a13.54,13.54,0,0,1,26.72,3.08Z"/><circle cx="1326" cy="553.63" r="6.15"/><path d="M1339.54,722.76a13.52,13.52,0,0,1-4.79,10.32l-14.9,12.68v13.1h12.3v-7.41l10.57-9a25.84,25.84,0,1,0-42.38-22.77h12.48a13.54,13.54,0,0,1,26.72,3.07Z"/><path d="M1275.54,672.8a13.56,13.56,0,0,1-4.79,10.33l-14.9,12.67v13.1h12.3v-7.41l10.57-9a25.84,25.84,0,1,0-42.38-22.77h12.48a13.54,13.54,0,0,1,26.72,3.07Z"/><path d="M1211.54,34.68A13.52,13.52,0,0,1,1206.75,45l-14.9,12.67v13.1h12.3V63.36l10.57-9a25.84,25.84,0,1,0-42.38-22.78h12.48a13.54,13.54,0,0,1,26.72,3.08Z"/><path d="M1211.54,149.85a13.54,13.54,0,0,1-4.79,10.32l-14.9,12.67v13.1h12.3v-7.41l10.57-9a25.84,25.84,0,1,0-42.38-22.77h12.48a13.54,13.54,0,0,1,26.72,3.08Z"/><circle cx="1198" cy="95.38" r="6.15"/><circle cx="1262" cy="273.59" r="6.15"/><circle cx="1262" cy="618.67" r="6.15"/><circle cx="1262" cy="388.51" r="6.15"/><path d="M1275.54,327.8a13.56,13.56,0,0,1-4.79,10.33l-14.9,12.67v13.1h12.3v-7.41l10.57-9a25.84,25.84,0,1,0-42.38-22.77h12.48a13.54,13.54,0,0,1,26.72,3.07Z"/><path d="M1275.54,443a13.52,13.52,0,0,1-4.79,10.32L1255.85,466v13.1h12.3v-7.41l10.57-9a25.84,25.84,0,1,0-42.38-22.77h12.48a13.54,13.54,0,0,1,26.72,3.07Z"/><path d="M1275.54,558a13.52,13.52,0,0,1-4.79,10.32L1255.85,581v13.1h12.3v-7.41l10.57-9a25.84,25.84,0,1,0-42.38-22.77h12.48a13.54,13.54,0,0,1,26.72,3.07Z"/><circle cx="1262" cy="503.67" r="6.15"/><path d="M1339.54,377.76a13.52,13.52,0,0,1-4.79,10.32l-14.9,12.68v13.1h12.3v-7.41l10.57-9a25.84,25.84,0,1,0-42.38-22.77h12.48a13.54,13.54,0,0,1,26.72,3.07Z"/><path d="M1140.15,11.41l10.57-9A27,27,0,0,0,1153.2,0h-18.63l-6.72,5.72v13.1h12.3Z"/><path d="M1366,667.73v-6.49a25.58,25.58,0,0,0-1.66,6.49Z"/><path d="M1268.15,11.41l10.57-9A27,27,0,0,0,1281.2,0h-18.63l-6.72,5.72v13.1h12.3Z"/><path d="M871.85,22.82h12.3V15.41l10.57-9A26,26,0,0,0,900.17,0H883.28L871.85,9.72Z"/><path d="M1012.15,13.41l10.57-9A25.61,25.61,0,0,0,1026.83,0h-17.91l-9.07,7.72v13.1h12.3Z"/><path d="M1366,322.73v-6.49a25.58,25.58,0,0,0-1.66,6.49Z"/><path d="M1366,552.9v-6.49a25.58,25.58,0,0,0-1.66,6.49Z"/><path d="M1366,207.81v-6.48a25.5,25.5,0,0,0-1.66,6.48Z"/><path d="M1366,92.81V86.33a25.5,25.5,0,0,0-1.66,6.48Z"/><path d="M1366,437.9v-6.49a25.58,25.58,0,0,0-1.66,6.49Z"/><path d="M743.85,22.82h12.3V15.41l10.57-9A26,26,0,0,0,772.17,0H755.28L743.85,9.72Z"/><circle cx="1134" cy="733.51" r="6.15"/><path d="M1339.54,147.85a13.54,13.54,0,0,1-4.79,10.32l-14.9,12.67v13.1h12.3v-7.41l10.57-9a25.84,25.84,0,1,0-42.38-22.77h12.48a13.54,13.54,0,0,1,26.72,3.08Z"/><circle cx="1262" cy="733.51" r="6.15"/><path d="M607.85,24.82h12.3V17.41l10.57-9A25.81,25.81,0,0,0,637.24,0H621.63L607.85,11.72Z"/><path d="M1339.54,32.68A13.52,13.52,0,0,1,1334.75,43l-14.9,12.67v13.1h12.3V61.36l10.57-9a25.84,25.84,0,1,0-42.38-22.78h12.48a13.54,13.54,0,0,1,26.72,3.08Z"/><circle cx="1326" cy="93.38" r="6.15"/><circle cx="1006" cy="735.51" r="6.15"/><circle cx="942" cy="97.38" r="6.15"/><path d="M479.85,22.82h12.3V15.41l10.57-9A26,26,0,0,0,508.17,0H491.28L479.85,9.72Z"/><path d="M351.85,22.82h12.3V15.41l10.57-9A26,26,0,0,0,380.17,0H363.28L351.85,9.72Z"/><path d="M114.15,13.72l10.57-9A25.48,25.48,0,0,0,129.05,0H111.29l-9.44,8v13.1h12.3Z"/><path d="M223.85,22.82h12.3V15.41l10.57-9A26,26,0,0,0,252.17,0H235.28L223.85,9.72Z"/><circle cx="942" cy="672.63" r="6.15"/><circle cx="1070" cy="670.63" r="6.15"/><path d="M1083.54,609.93a13.52,13.52,0,0,1-4.79,10.32l-14.9,12.67V646h12.3v-7.41l10.57-9a25.84,25.84,0,1,0-42.38-22.78h12.48a13.54,13.54,0,0,1,26.72,3.08Z"/><path d="M1019.54,99.89a13.52,13.52,0,0,1-4.79,10.32l-14.9,12.67V136h12.3v-7.41l10.57-9a25.84,25.84,0,1,0-42.38-22.78h12.48a13.54,13.54,0,0,1,26.72,3.08Z"/><path d="M1083.54,724.76a13.52,13.52,0,0,1-4.79,10.32l-14.9,12.68v13.1h12.3v-7.41l10.57-9a25.84,25.84,0,1,0-42.38-22.77h12.48a13.54,13.54,0,0,1,26.72,3.07Z"/><circle cx="1070" cy="555.63" r="6.15"/><circle cx="1006" cy="45.42" r="6.15"/><circle cx="1070" cy="210.55" r="6.15"/><path d="M1083.54,494.93a13.52,13.52,0,0,1-4.79,10.32l-14.9,12.67V531h12.3v-7.41l10.57-9a25.84,25.84,0,1,0-42.38-22.78h12.48a13.54,13.54,0,0,1,26.72,3.08Z"/><path d="M1083.54,264.85a13.54,13.54,0,0,1-4.79,10.32l-14.9,12.67v13.1h12.3v-7.41l10.57-9a25.84,25.84,0,1,0-42.38-22.77h12.48a13.54,13.54,0,0,1,26.72,3.08Z"/><path d="M1083.54,379.76a13.52,13.52,0,0,1-4.79,10.32l-14.9,12.68v13.1h12.3v-7.41l10.57-9a25.84,25.84,0,1,0-42.38-22.77h12.48a13.54,13.54,0,0,1,26.72,3.07Z"/><circle cx="1070" cy="440.47" r="6.15"/><circle cx="1070" cy="325.55" r="6.15"/><circle cx="1006" cy="505.67" r="6.15"/><circle cx="1006" cy="160.59" r="6.15"/><path d="M1019.54,560a13.52,13.52,0,0,1-4.79,10.32L999.85,583v13.1h12.3v-7.41l10.57-9a25.84,25.84,0,1,0-42.38-22.77h12.48a13.54,13.54,0,0,1,26.72,3.07Z"/><path d="M1019.54,674.8a13.56,13.56,0,0,1-4.79,10.33l-14.9,12.67v13.1h12.3v-7.41l10.57-9a25.84,25.84,0,1,0-42.38-22.77h12.48a13.54,13.54,0,0,1,26.72,3.07Z"/><path d="M955.54,36.68A13.52,13.52,0,0,1,950.75,47l-14.9,12.67v13.1h12.3V65.36l10.57-9A25.84,25.84,0,1,0,916.34,33.6h12.48a13.54,13.54,0,0,1,26.72,3.08Z"/><circle cx="1006" cy="620.67" r="6.15"/><circle cx="1006" cy="275.59" r="6.15"/><path d="M1019.54,445a13.52,13.52,0,0,1-4.79,10.32L999.85,468v13.1h12.3v-7.41l10.57-9a25.84,25.84,0,1,0-42.38-22.77h12.48a13.54,13.54,0,0,1,26.72,3.07Z"/><path d="M1019.54,214.89a13.52,13.52,0,0,1-4.79,10.32l-14.9,12.67V251h12.3v-7.41l10.57-9a25.84,25.84,0,1,0-42.38-22.78h12.48a13.54,13.54,0,0,1,26.72,3.08Z"/><path d="M1019.54,329.8a13.56,13.56,0,0,1-4.79,10.33l-14.9,12.67v13.1h12.3v-7.41l10.57-9a25.84,25.84,0,1,0-42.38-22.77h12.48a13.54,13.54,0,0,1,26.72,3.07Z"/><circle cx="1006" cy="390.51" r="6.15"/><circle cx="1134" cy="273.59" r="6.15"/><circle cx="1198" cy="670.63" r="6.15"/><path d="M1211.54,609.93a13.52,13.52,0,0,1-4.79,10.32l-14.9,12.67V646h12.3v-7.41l10.57-9a25.84,25.84,0,1,0-42.38-22.78h12.48a13.54,13.54,0,0,1,26.72,3.08Z"/><path d="M1083.54,149.85a13.54,13.54,0,0,1-4.79,10.32l-14.9,12.67v13.1h12.3v-7.41l10.57-9a25.84,25.84,0,1,0-42.38-22.77h12.48a13.54,13.54,0,0,1,26.72,3.08Z"/><circle cx="1134" cy="43.42" r="6.15"/><path d="M1147.54,97.89a13.52,13.52,0,0,1-4.79,10.32l-14.9,12.67V134h12.3v-7.41l10.57-9a25.84,25.84,0,1,0-42.38-22.78h12.48a13.54,13.54,0,0,1,26.72,3.08Z"/><circle cx="1198" cy="555.63" r="6.15"/><circle cx="1134" cy="158.59" r="6.15"/><circle cx="1198" cy="325.55" r="6.15"/><path d="M1211.54,379.76a13.52,13.52,0,0,1-4.79,10.32l-14.9,12.68v13.1h12.3v-7.41l10.57-9a25.84,25.84,0,1,0-42.38-22.77h12.48a13.54,13.54,0,0,1,26.72,3.07Z"/><circle cx="1198" cy="440.47" r="6.15"/><path d="M1211.54,494.93a13.52,13.52,0,0,1-4.79,10.32l-14.9,12.67V531h12.3v-7.41l10.57-9a25.84,25.84,0,1,0-42.38-22.78h12.48a13.54,13.54,0,0,1,26.72,3.08Z"/><path d="M1211.54,724.76a13.52,13.52,0,0,1-4.79,10.32l-14.9,12.68v13.1h12.3v-7.41l10.57-9a25.84,25.84,0,1,0-42.38-22.77h12.48a13.54,13.54,0,0,1,26.72,3.07Z"/><circle cx="1134" cy="618.67" r="6.15"/><path d="M1147.54,672.8a13.56,13.56,0,0,1-4.79,10.33l-14.9,12.67v13.1h12.3v-7.41l10.57-9a25.84,25.84,0,1,0-42.38-22.77h12.48a13.54,13.54,0,0,1,26.72,3.07Z"/><circle cx="1070" cy="95.38" r="6.15"/><path d="M1083.54,34.68A13.52,13.52,0,0,1,1078.75,45l-14.9,12.67v13.1h12.3V63.36l10.57-9a25.84,25.84,0,1,0-42.38-22.78h12.48a13.54,13.54,0,0,1,26.72,3.08Z"/><path d="M1147.54,212.89a13.52,13.52,0,0,1-4.79,10.32l-14.9,12.67V249h12.3v-7.41l10.57-9a25.84,25.84,0,1,0-42.38-22.78h12.48a13.54,13.54,0,0,1,26.72,3.08Z"/><path d="M1147.54,558a13.52,13.52,0,0,1-4.79,10.32L1127.85,581v13.1h12.3v-7.41l10.57-9a25.84,25.84,0,1,0-42.38-22.77h12.48a13.54,13.54,0,0,1,26.72,3.07Z"/><path d="M1211.54,264.85a13.54,13.54,0,0,1-4.79,10.32l-14.9,12.67v13.1h12.3v-7.41l10.57-9a25.84,25.84,0,1,0-42.38-22.77h12.48a13.54,13.54,0,0,1,26.72,3.08Z"/><path d="M1147.54,327.8a13.56,13.56,0,0,1-4.79,10.33l-14.9,12.67v13.1h12.3v-7.41l10.57-9a25.84,25.84,0,1,0-42.38-22.77h12.48a13.54,13.54,0,0,1,26.72,3.07Z"/><circle cx="1134" cy="503.67" r="6.15"/><circle cx="1134" cy="388.51" r="6.15"/><path d="M1147.54,443a13.52,13.52,0,0,1-4.79,10.32L1127.85,466v13.1h12.3v-7.41l10.57-9a25.84,25.84,0,1,0-42.38-22.77h12.48a13.54,13.54,0,0,1,26.72,3.07Z"/><path d="M1339.54,262.85a13.54,13.54,0,0,1-4.79,10.32l-14.9,12.67v13.1h12.3v-7.41l10.57-9a25.84,25.84,0,1,0-42.38-22.77h12.48a13.54,13.54,0,0,1,26.72,3.08Z"/><path d="M166,588.09a25.88,25.88,0,0,0-25.66,22.76h12.48a13.54,13.54,0,1,1,21.93,13.4l-14.9,12.67V650h12.3v-7.41l10.57-9A25.84,25.84,0,0,0,166,588.09Z"/><path d="M558.75,741.08l-14.9,12.68v13.1h12.3v-7.41l10.57-9a25.84,25.84,0,1,0-42.38-22.77h12.48a13.54,13.54,0,1,1,21.93,13.39Z"/><circle cx="166" cy="559.63" r="6.15"/><path d="M476.36,768h19.27a25.76,25.76,0,0,0-19.27,0Z"/><path d="M694.75,739.08l-14.9,12.68v13.1h12.3v-7.41l10.57-9a25.84,25.84,0,1,0-42.38-22.77h12.48a13.54,13.54,0,1,1,21.93,13.39Z"/><path d="M740.36,768h19.27a25.76,25.76,0,0,0-19.27,0Z"/><path d="M348.36,768h19.27a25.76,25.76,0,0,0-19.27,0Z"/><circle cx="166" cy="674.63" r="6.15"/><circle cx="108" cy="160.9" r="6.15"/><path d="M302.75,739.08l-14.9,12.68v13.1h12.3v-7.41l10.57-9a25.84,25.84,0,1,0-42.38-22.77h12.48a13.54,13.54,0,1,1,21.93,13.39Z"/><path d="M430.75,739.08l-14.9,12.68v13.1h12.3v-7.41l10.57-9a25.84,25.84,0,1,0-42.38-22.77h12.48a13.54,13.54,0,1,1,21.93,13.39Z"/><path d="M166,357.92a25.88,25.88,0,0,0-25.66,22.77h12.48a13.54,13.54,0,1,1,21.93,13.39l-14.9,12.68v13.1h12.3v-7.41l10.57-9A25.84,25.84,0,0,0,166,357.92Z"/><path d="M1117.62,768h32.76a25.79,25.79,0,0,0-32.76,0Z"/><path d="M1245.62,768h32.76a25.79,25.79,0,0,0-32.76,0Z"/><path d="M822.75,739.08l-14.9,12.68v13.1h12.3v-7.41l10.57-9a25.84,25.84,0,1,0-42.38-22.77h12.48a13.54,13.54,0,1,1,21.93,13.39Z"/><path d="M992.42,768h27.16a25.76,25.76,0,0,0-27.16,0Z"/><path d="M166,473.09a25.88,25.88,0,0,0-25.66,22.76h12.48a13.54,13.54,0,1,1,21.93,13.4l-14.9,12.67V535h12.3v-7.41l10.57-9A25.84,25.84,0,0,0,166,473.09Z"/><path d="M950.75,737.08l-14.9,12.68v13.1h12.3v-7.41l10.57-9a25.84,25.84,0,1,0-42.38-22.77h12.48a13.54,13.54,0,1,1,21.93,13.39Z"/><path d="M868.36,768h19.27a25.76,25.76,0,0,0-19.27,0Z"/><circle cx="166" cy="444.47" r="6.15"/><circle cx="166" cy="329.55" r="6.15"/><circle cx="294" cy="99.38" r="6.15"/><path d="M307.54,38.68A13.52,13.52,0,0,1,302.75,49l-14.9,12.67v13.1h12.3V67.36l10.57-9A25.84,25.84,0,1,0,268.34,35.6h12.48a13.54,13.54,0,0,1,26.72,3.08Z"/><path d="M307.54,153.85a13.54,13.54,0,0,1-4.79,10.32l-14.9,12.67v13.1h12.3v-7.41l10.57-9a25.84,25.84,0,1,0-42.38-22.77h12.48a13.54,13.54,0,0,1,26.72,3.08Z"/><path d="M307.54,268.85a13.54,13.54,0,0,1-4.79,10.32l-14.9,12.67v13.1h12.3v-7.41l10.57-9a25.84,25.84,0,1,0-42.38-22.77h12.48a13.54,13.54,0,0,1,26.72,3.08Z"/><circle cx="294" cy="329.55" r="6.15"/><circle cx="294" cy="214.55" r="6.15"/><path d="M371.54,676.8a13.56,13.56,0,0,1-4.79,10.33l-14.9,12.67v13.1h12.3v-7.41l10.57-9a25.84,25.84,0,1,0-42.38-22.77h12.48a13.54,13.54,0,0,1,26.72,3.07Z"/><circle cx="358" cy="507.67" r="6.15"/><path d="M371.54,562a13.52,13.52,0,0,1-4.79,10.32L351.85,585v13.1h12.3v-7.41l10.57-9a25.84,25.84,0,1,0-42.38-22.77h12.48A13.54,13.54,0,0,1,371.54,562Z"/><circle cx="358" cy="622.67" r="6.15"/><path d="M307.54,383.76a13.52,13.52,0,0,1-4.79,10.32l-14.9,12.68v13.1h12.3v-7.41l10.57-9a25.84,25.84,0,1,0-42.38-22.77h12.48a13.54,13.54,0,0,1,26.72,3.07Z"/><path d="M174.75,739.08l-14.9,12.68v13.1h12.3v-7.41l10.57-9a25.84,25.84,0,1,0-42.38-22.77h12.48a13.54,13.54,0,1,1,21.93,13.39Z"/><path d="M94.94,768h26.12a25.74,25.74,0,0,0-26.12,0Z"/><circle cx="44" cy="672.95" r="6.15"/><path d="M371.54,447a13.52,13.52,0,0,1-4.79,10.32L351.85,470v13.1h12.3v-7.41l10.57-9a25.84,25.84,0,1,0-42.38-22.77h12.48A13.54,13.54,0,0,1,371.54,447Z"/><path d="M52.75,737.4l-14.9,12.67v13.1h12.3v-7.41l10.57-9A25.84,25.84,0,1,0,18.34,724H30.82a13.54,13.54,0,1,1,21.93,13.4Z"/><circle cx="294" cy="444.47" r="6.15"/><path d="M307.54,498.93a13.52,13.52,0,0,1-4.79,10.32l-14.9,12.67V535h12.3v-7.41l10.57-9a25.84,25.84,0,1,0-42.38-22.78h12.48a13.54,13.54,0,0,1,26.72,3.08Z"/><circle cx="294" cy="559.63" r="6.15"/><path d="M220.36,768h19.27a25.76,25.76,0,0,0-19.27,0Z"/><path d="M307.54,613.93a13.52,13.52,0,0,1-4.79,10.32l-14.9,12.67V650h12.3v-7.41l10.57-9a25.84,25.84,0,1,0-42.38-22.78h12.48a13.54,13.54,0,0,1,26.72,3.08Z"/><path d="M121.54,560.28a13.56,13.56,0,0,1-4.79,10.33l-14.9,12.67v13.1h12.3V589l10.57-9a25.84,25.84,0,1,0-42.38-22.77H94.82a13.54,13.54,0,0,1,26.72,3.07Z"/><path d="M243.54,331.8a13.56,13.56,0,0,1-4.79,10.33l-14.9,12.67v13.1h12.3v-7.41l10.57-9a25.84,25.84,0,1,0-42.38-22.77h12.48a13.54,13.54,0,0,1,26.72,3.07Z"/><circle cx="230" cy="622.67" r="6.15"/><circle cx="108" cy="505.99" r="6.15"/><path d="M243.54,562a13.52,13.52,0,0,1-4.79,10.32L223.85,585v13.1h12.3v-7.41l10.57-9a25.84,25.84,0,1,0-42.38-22.77h12.48A13.54,13.54,0,0,1,243.54,562Z"/><circle cx="230" cy="507.67" r="6.15"/><path d="M243.54,447a13.52,13.52,0,0,1-4.79,10.32L223.85,470v13.1h12.3v-7.41l10.57-9a25.84,25.84,0,1,0-42.38-22.77h12.48A13.54,13.54,0,0,1,243.54,447Z"/><circle cx="230" cy="392.51" r="6.15"/><path d="M57.54,37a13.52,13.52,0,0,1-4.79,10.32L37.85,60v13.1h12.3V65.68l10.57-9A25.84,25.84,0,1,0,18.34,33.92H30.82A13.54,13.54,0,0,1,57.54,37Z"/><path d="M121.54,675.12a13.54,13.54,0,0,1-4.79,10.32l-14.9,12.67v13.1h12.3V703.8l10.57-9A25.84,25.84,0,1,0,82.34,672H94.82a13.54,13.54,0,0,1,26.72,3.08Z"/><circle cx="108" cy="620.99" r="6.15"/><path d="M121.54,100.2a13.52,13.52,0,0,1-4.79,10.32l-14.9,12.68v13.09h12.3v-7.4l10.57-9A25.84,25.84,0,1,0,82.34,97.12H94.82a13.54,13.54,0,0,1,26.72,3.08Z"/><circle cx="108" cy="45.74" r="6.15"/><circle cx="108" cy="275.9" r="6.15"/><path d="M121.54,215.2a13.52,13.52,0,0,1-4.79,10.32l-14.9,12.68v13.09h12.3v-7.4l10.57-9a25.84,25.84,0,1,0-42.38-22.78H94.82a13.54,13.54,0,0,1,26.72,3.08Z"/><path d="M179.54,38.68A13.52,13.52,0,0,1,174.75,49l-14.9,12.67v13.1h12.3V67.36l10.57-9A25.84,25.84,0,1,0,140.34,35.6h12.48a13.54,13.54,0,0,1,26.72,3.08Z"/><path d="M243.54,676.8a13.56,13.56,0,0,1-4.79,10.33l-14.9,12.67v13.1h12.3v-7.41l10.57-9a25.84,25.84,0,1,0-42.38-22.77h12.48a13.54,13.54,0,0,1,26.72,3.07Z"/><circle cx="108" cy="390.82" r="6.15"/><path d="M121.54,445.28a13.56,13.56,0,0,1-4.79,10.33l-14.9,12.67v13.1h12.3V474l10.57-9a25.84,25.84,0,1,0-42.38-22.77H94.82a13.54,13.54,0,0,1,26.72,3.07Z"/><path d="M121.54,330.12a13.54,13.54,0,0,1-4.79,10.32l-14.9,12.67v13.1h12.3V358.8l10.57-9A25.84,25.84,0,1,0,82.34,327H94.82a13.54,13.54,0,0,1,26.72,3.08Z"/><circle cx="44" cy="442.78" r="6.15"/><circle cx="166" cy="99.38" r="6.15"/><path d="M166,128a25.88,25.88,0,0,0-25.66,22.76h12.48a13.54,13.54,0,1,1,21.93,13.4l-14.9,12.67v13.1h12.3v-7.41l10.57-9A25.83,25.83,0,0,0,166,128Z"/><path d="M57.54,497.24a13.52,13.52,0,0,1-4.79,10.32l-14.9,12.68v13.1h12.3v-7.41l10.57-9a25.84,25.84,0,1,0-42.38-22.77H30.82a13.54,13.54,0,0,1,26.72,3.07Z"/><circle cx="230" cy="737.51" r="6.15"/><path d="M31.7,747.23l17.07-14.52a7.38,7.38,0,1,0-12.15-5.63v3.07H12v-3.07a32,32,0,1,1,52.7,24.38L56.3,758.6V768H85.08a31.91,31.91,0,0,1,45.84,0H153.7V748.91l17.07-14.51a7.38,7.38,0,1,0-12.15-5.64v3.08H134v-3.08a32,32,0,1,1,52.7,24.39l-8.41,7.14V768h30.55a31.9,31.9,0,0,1,42.3,0H281.7V748.91l17.07-14.51a7.38,7.38,0,1,0-12.15-5.64v3.08H262v-3.08a32,32,0,1,1,52.7,24.39l-8.41,7.14V768h30.55a31.9,31.9,0,0,1,42.3,0H409.7V748.91l17.07-14.51a7.38,7.38,0,1,0-12.15-5.64v3.08H390v-3.08a32,32,0,1,1,52.7,24.39l-8.41,7.14V768h30.55a31.9,31.9,0,0,1,42.3,0H537.7V750.91l17.07-14.51a7.38,7.38,0,1,0-12.15-5.64v3.08H518v-3.08a32,32,0,1,1,52.7,24.39l-8.41,7.14V768h33.05a31.9,31.9,0,0,1,37.3,0H673.7V748.91l17.07-14.51a7.38,7.38,0,1,0-12.15-5.64v3.08H654v-3.08a32,32,0,1,1,52.7,24.39l-8.41,7.14V768h30.55a31.9,31.9,0,0,1,42.3,0H801.7V748.91l17.07-14.51a7.38,7.38,0,1,0-12.15-5.64v3.08H782v-3.08a32,32,0,1,1,52.7,24.39l-8.41,7.14V768h30.55a31.9,31.9,0,0,1,42.3,0H929.7V746.91l17.07-14.51a7.38,7.38,0,1,0-12.15-5.64v3.08H910v-3.08a32,32,0,1,1,52.7,24.39l-8.41,7.14V768h28.48a31.91,31.91,0,0,1,46.44,0H1109a31.95,31.95,0,0,1,49.94,0H1237a31.95,31.95,0,0,1,49.94,0h76.58a32.4,32.4,0,0,1,2.45-3.15v-91h-8V670.8a31.86,31.86,0,0,1,8-21.12V559.05h-8V556a31.84,31.84,0,0,1,8-21.12v-90.8h-8V441a31.84,31.84,0,0,1,8-21.12v-91h-8V325.8a31.86,31.86,0,0,1,8-21.12V214h-8v-3.07a31.84,31.84,0,0,1,8-21.12V99h-8V95.89a31.84,31.84,0,0,1,8-21.12V0h-77.09a32.18,32.18,0,0,1-6.2,7.11l-8.41,7.14V25h-24.6V2.87L1253.07,0h-92.16a32.18,32.18,0,0,1-6.2,7.11l-8.41,7.14V25h-24.6V2.87L1125.07,0h-91a32.14,32.14,0,0,1-7.39,9.11l-8.41,7.14V27H993.7V4.87L999.43,0H907.11a32.12,32.12,0,0,1-8.4,11.11l-8.41,7.14V29H865.7V6.87L873.78,0H779.11a32.12,32.12,0,0,1-8.4,11.11l-8.41,7.14V29H737.7V6.87L745.78,0H643.93a32,32,0,0,1-9.22,13.11l-8.41,7.14V31H601.7V8.87L612.13,0h-97a32.12,32.12,0,0,1-8.4,11.11l-8.41,7.14V29H473.7V6.87L481.78,0H387.11a32.12,32.12,0,0,1-8.4,11.11l-8.41,7.14V29H345.7V6.87L353.78,0H259.11a32.12,32.12,0,0,1-8.4,11.11l-8.41,7.14V29H217.7V6.87L225.78,0h-89.5a32,32,0,0,1-7.57,9.42l-8.41,7.14V27.28H95.7V5.18L101.79,0H0V768H31.7ZM942,684.94a12.31,12.31,0,1,1,12.3-12.31A12.32,12.32,0,0,1,942,684.94Zm64,62.87a12.31,12.31,0,1,1,12.3-12.3A12.32,12.32,0,0,1,1006,747.81Zm128-2a12.31,12.31,0,1,1,12.3-12.3A12.32,12.32,0,0,1,1134,745.81Zm128,0a12.31,12.31,0,1,1,12.3-12.3A12.32,12.32,0,0,1,1262,745.81Zm32-713.13a32,32,0,1,1,52.7,24.38l-8.41,7.15V74.93h-24.6V52.83l17.07-14.52a7.38,7.38,0,1,0-12.15-5.63v3.08H1294Zm44.29,60.7a12.3,12.3,0,1,1-12.3-12.3A12.32,12.32,0,0,1,1338.3,93.38ZM1294,147.85a32,32,0,1,1,52.7,24.38l-8.41,7.15v10.71h-24.6V168l17.07-14.52a7.38,7.38,0,1,0-12.15-5.63v3.07H1294Zm44.29,60.7a12.3,12.3,0,1,1-12.3-12.31A12.32,12.32,0,0,1,1338.3,208.55ZM1294,262.85a32,32,0,1,1,52.7,24.38l-8.41,7.15v10.71h-24.6V283l17.07-14.52a7.38,7.38,0,1,0-12.15-5.63v3.07H1294Zm44.29,60.7a12.3,12.3,0,1,1-12.3-12.31A12.32,12.32,0,0,1,1338.3,323.55ZM1294,377.76a32,32,0,1,1,52.7,24.39l-8.41,7.14V420h-24.6v-22.1l17.07-14.51a7.38,7.38,0,1,0-12.15-5.64v3.08H1294Zm44.29,60.71a12.3,12.3,0,1,1-12.3-12.31A12.32,12.32,0,0,1,1338.3,438.47ZM1294,492.93a32,32,0,1,1,52.7,24.38l-8.41,7.15v10.72h-24.6v-22.1l17.07-14.52a7.38,7.38,0,1,0-12.15-5.63V496H1294Zm44.29,60.7a12.3,12.3,0,1,1-12.3-12.3A12.32,12.32,0,0,1,1338.3,553.63ZM1294,607.93a32,32,0,1,1,52.7,24.38l-8.41,7.15v10.72h-24.6v-22.1l17.07-14.52a7.38,7.38,0,1,0-12.15-5.63V611H1294Zm44.29,60.7a12.3,12.3,0,1,1-12.3-12.3A12.32,12.32,0,0,1,1338.3,668.63ZM1294,722.76a32,32,0,1,1,52.7,24.39l-8.41,7.14V765h-24.6v-22.1l17.07-14.51a7.38,7.38,0,1,0-12.15-5.64v3.08H1294ZM1262,31.12a12.31,12.31,0,1,1-12.3,12.3A12.32,12.32,0,0,1,1262,31.12Zm-32,66.77a32,32,0,1,1,52.7,24.38l-8.41,7.15v10.71h-24.6V118l17.07-14.52a7.38,7.38,0,1,0-12.15-5.63V101H1230Zm44.29,60.7a12.3,12.3,0,1,1-12.3-12.3A12.32,12.32,0,0,1,1274.3,158.59ZM1230,212.89a32,32,0,1,1,52.7,24.38l-8.41,7.15v10.71h-24.6V233l17.07-14.52a7.38,7.38,0,1,0-12.15-5.63V216H1230Zm44.29,60.7a12.3,12.3,0,1,1-12.3-12.3A12.32,12.32,0,0,1,1274.3,273.59ZM1230,327.8a32,32,0,1,1,52.7,24.39l-8.41,7.14v10.72h-24.6V348l17.07-14.52a7.38,7.38,0,1,0-12.15-5.64v3.08H1230Zm44.29,60.71A12.3,12.3,0,1,1,1262,376.2,12.32,12.32,0,0,1,1274.3,388.51ZM1230,443a32,32,0,1,1,52.7,24.39l-8.41,7.14v10.72h-24.6v-22.1l17.07-14.51a7.38,7.38,0,1,0-12.15-5.64v3.08H1230Zm44.29,60.7a12.3,12.3,0,1,1-12.3-12.3A12.32,12.32,0,0,1,1274.3,503.67ZM1230,558a32,32,0,1,1,52.7,24.39l-8.41,7.14v10.72h-24.6v-22.1l17.07-14.51a7.38,7.38,0,1,0-12.15-5.64v3.08H1230Zm44.29,60.7a12.3,12.3,0,1,1-12.3-12.3A12.32,12.32,0,0,1,1274.3,618.67ZM1230,672.8a32,32,0,1,1,52.7,24.39l-8.41,7.14v10.72h-24.6V693l17.07-14.52a7.38,7.38,0,1,0-12.15-5.64v3.08H1230ZM1166,34.68a32,32,0,1,1,52.7,24.38l-8.41,7.15V76.93h-24.6V54.83l17.07-14.52a7.38,7.38,0,1,0-12.15-5.63v3.08H1166Zm44.29,60.7a12.3,12.3,0,1,1-12.3-12.3A12.32,12.32,0,0,1,1210.3,95.38ZM1166,149.85a32,32,0,1,1,52.7,24.38l-8.41,7.15v10.71h-24.6V170l17.07-14.52a7.38,7.38,0,1,0-12.15-5.63v3.07H1166Zm44.29,60.7a12.3,12.3,0,1,1-12.3-12.31A12.32,12.32,0,0,1,1210.3,210.55ZM1166,264.85a32,32,0,1,1,52.7,24.38l-8.41,7.15v10.71h-24.6V285l17.07-14.52a7.38,7.38,0,1,0-12.15-5.63v3.07H1166Zm44.29,60.7a12.3,12.3,0,1,1-12.3-12.31A12.32,12.32,0,0,1,1210.3,325.55ZM1166,379.76a32,32,0,1,1,52.7,24.39l-8.41,7.14V422h-24.6v-22.1l17.07-14.51a7.38,7.38,0,1,0-12.15-5.64v3.08H1166Zm44.29,60.71a12.3,12.3,0,1,1-12.3-12.31A12.32,12.32,0,0,1,1210.3,440.47ZM1166,494.93a32,32,0,1,1,52.7,24.38l-8.41,7.15v10.72h-24.6v-22.1l17.07-14.52a7.38,7.38,0,1,0-12.15-5.63V498H1166Zm44.29,60.7a12.3,12.3,0,1,1-12.3-12.3A12.32,12.32,0,0,1,1210.3,555.63ZM1166,609.93a32,32,0,1,1,52.7,24.38l-8.41,7.15v10.72h-24.6v-22.1l17.07-14.52a7.38,7.38,0,1,0-12.15-5.63V613H1166Zm44.29,60.7a12.3,12.3,0,1,1-12.3-12.3A12.32,12.32,0,0,1,1210.3,670.63ZM1166,724.76a32,32,0,1,1,52.7,24.39l-8.41,7.14V767h-24.6v-22.1l17.07-14.51a7.38,7.38,0,1,0-12.15-5.64v3.08H1166ZM1134,31.12a12.31,12.31,0,1,1-12.3,12.3A12.32,12.32,0,0,1,1134,31.12Zm-32,66.77a32,32,0,1,1,52.7,24.38l-8.41,7.15v10.71h-24.6V118l17.07-14.52a7.38,7.38,0,1,0-12.15-5.63V101H1102Zm44.29,60.7a12.3,12.3,0,1,1-12.3-12.3A12.32,12.32,0,0,1,1146.3,158.59ZM1102,212.89a32,32,0,1,1,52.7,24.38l-8.41,7.15v10.71h-24.6V233l17.07-14.52a7.38,7.38,0,1,0-12.15-5.63V216H1102Zm44.29,60.7a12.3,12.3,0,1,1-12.3-12.3A12.32,12.32,0,0,1,1146.3,273.59ZM1102,327.8a32,32,0,1,1,52.7,24.39l-8.41,7.14v10.72h-24.6V348l17.07-14.52a7.38,7.38,0,1,0-12.15-5.64v3.08H1102Zm44.29,60.71A12.3,12.3,0,1,1,1134,376.2,12.32,12.32,0,0,1,1146.3,388.51ZM1102,443a32,32,0,1,1,52.7,24.39l-8.41,7.14v10.72h-24.6v-22.1l17.07-14.51a7.38,7.38,0,1,0-12.15-5.64v3.08H1102Zm44.29,60.7a12.3,12.3,0,1,1-12.3-12.3A12.32,12.32,0,0,1,1146.3,503.67ZM1102,558a32,32,0,1,1,52.7,24.39l-8.41,7.14v10.72h-24.6v-22.1l17.07-14.51a7.38,7.38,0,1,0-12.15-5.64v3.08H1102Zm44.29,60.7a12.3,12.3,0,1,1-12.3-12.3A12.32,12.32,0,0,1,1146.3,618.67ZM1102,672.8a32,32,0,1,1,52.7,24.39l-8.41,7.14v10.72h-24.6V693l17.07-14.52a7.38,7.38,0,1,0-12.15-5.64v3.08H1102ZM1038,34.68a32,32,0,1,1,52.7,24.38l-8.41,7.15V76.93h-24.6V54.83l17.07-14.52a7.38,7.38,0,1,0-12.15-5.63v3.08H1038Zm44.29,60.7a12.3,12.3,0,1,1-12.3-12.3A12.32,12.32,0,0,1,1082.3,95.38ZM1038,149.85a32,32,0,1,1,52.7,24.38l-8.41,7.15v10.71h-24.6V170l17.07-14.52a7.38,7.38,0,1,0-12.15-5.63v3.07H1038Zm44.29,60.7a12.3,12.3,0,1,1-12.3-12.31A12.32,12.32,0,0,1,1082.3,210.55ZM1038,264.85a32,32,0,1,1,52.7,24.38l-8.41,7.15v10.71h-24.6V285l17.07-14.52a7.38,7.38,0,1,0-12.15-5.63v3.07H1038Zm44.29,60.7a12.3,12.3,0,1,1-12.3-12.31A12.32,12.32,0,0,1,1082.3,325.55ZM1038,379.76a32,32,0,1,1,52.7,24.39l-8.41,7.14V422h-24.6v-22.1l17.07-14.51a7.38,7.38,0,1,0-12.15-5.64v3.08H1038Zm44.29,60.71a12.3,12.3,0,1,1-12.3-12.31A12.32,12.32,0,0,1,1082.3,440.47ZM1038,494.93a32,32,0,1,1,52.7,24.38l-8.41,7.15v10.72h-24.6v-22.1l17.07-14.52a7.38,7.38,0,1,0-12.15-5.63V498H1038Zm44.29,60.7a12.3,12.3,0,1,1-12.3-12.3A12.32,12.32,0,0,1,1082.3,555.63ZM1038,609.93a32,32,0,1,1,52.7,24.38l-8.41,7.15v10.72h-24.6v-22.1l17.07-14.52a7.38,7.38,0,1,0-12.15-5.63V613H1038Zm44.29,60.7a12.3,12.3,0,1,1-12.3-12.3A12.32,12.32,0,0,1,1082.3,670.63ZM1038,724.76a32,32,0,1,1,52.7,24.39l-8.41,7.14V767h-24.6v-22.1l17.07-14.51a7.38,7.38,0,1,0-12.15-5.64v3.08H1038ZM1006,33.12a12.31,12.31,0,1,1-12.3,12.3A12.32,12.32,0,0,1,1006,33.12ZM974,99.89a32,32,0,1,1,52.7,24.38l-8.41,7.15v10.71H993.7V120l17.07-14.52a7.38,7.38,0,1,0-12.15-5.63V103H974Zm44.29,60.7a12.3,12.3,0,1,1-12.3-12.3A12.32,12.32,0,0,1,1018.3,160.59ZM974,214.89a32,32,0,1,1,52.7,24.38l-8.41,7.15v10.71H993.7V235l17.07-14.52a7.38,7.38,0,1,0-12.15-5.63V218H974Zm44.29,60.7a12.3,12.3,0,1,1-12.3-12.3A12.32,12.32,0,0,1,1018.3,275.59ZM974,329.8a32,32,0,1,1,52.7,24.39l-8.41,7.14v10.72H993.7V350l17.07-14.52a7.38,7.38,0,1,0-12.15-5.64v3.08H974Zm44.29,60.71A12.3,12.3,0,1,1,1006,378.2,12.32,12.32,0,0,1,1018.3,390.51ZM974,445a32,32,0,1,1,52.7,24.39l-8.41,7.14v10.72H993.7v-22.1l17.07-14.51A7.38,7.38,0,1,0,998.62,445v3.08H974Zm44.29,60.7a12.3,12.3,0,1,1-12.3-12.3A12.32,12.32,0,0,1,1018.3,505.67ZM974,560a32,32,0,1,1,52.7,24.39l-8.41,7.14v10.72H993.7v-22.1l17.07-14.51A7.38,7.38,0,1,0,998.62,560v3.08H974Zm44.29,60.7a12.3,12.3,0,1,1-12.3-12.3A12.32,12.32,0,0,1,1018.3,620.67ZM974,674.8a32,32,0,1,1,52.7,24.39l-8.41,7.14v10.72H993.7V695l17.07-14.52a7.38,7.38,0,1,0-12.15-5.64v3.08H974ZM910,36.68a32,32,0,1,1,52.7,24.38l-8.41,7.15V78.93H929.7V56.83l17.07-14.52a7.38,7.38,0,1,0-12.15-5.63v3.08H910Zm44.29,60.7A12.3,12.3,0,1,1,942,85.08,12.32,12.32,0,0,1,954.3,97.38ZM910,151.85a32,32,0,1,1,52.7,24.38l-8.41,7.15v10.71H929.7V172l17.07-14.52a7.38,7.38,0,1,0-12.15-5.63v3.07H910Zm44.29,60.7A12.3,12.3,0,1,1,942,200.24,12.32,12.32,0,0,1,954.3,212.55ZM910,266.85a32,32,0,1,1,52.7,24.38l-8.41,7.15v10.71H929.7V287l17.07-14.52a7.38,7.38,0,1,0-12.15-5.63v3.07H910Zm44.29,60.7A12.3,12.3,0,1,1,942,315.24,12.32,12.32,0,0,1,954.3,327.55ZM910,381.76a32,32,0,1,1,52.7,24.39l-8.41,7.14V424H929.7v-22.1l17.07-14.51a7.38,7.38,0,1,0-12.15-5.64v3.08H910Zm44.29,60.71A12.3,12.3,0,1,1,942,430.16,12.32,12.32,0,0,1,954.3,442.47ZM910,496.93a32,32,0,1,1,52.7,24.38l-8.41,7.15v10.72H929.7v-22.1l17.07-14.52a7.38,7.38,0,1,0-12.15-5.63V500H910Zm44.29,60.7a12.3,12.3,0,1,1-12.3-12.3A12.32,12.32,0,0,1,954.3,557.63ZM910,611.93a32,32,0,1,1,52.7,24.38l-8.41,7.15v10.72H929.7v-22.1l17.07-14.52a7.38,7.38,0,1,0-12.15-5.63V615H910Zm-96,75a12.31,12.31,0,1,1,12.3-12.31A12.32,12.32,0,0,1,814,686.94Zm64,62.87a12.31,12.31,0,1,1,12.3-12.3A12.32,12.32,0,0,1,878,749.81Zm0-714.69a12.31,12.31,0,1,1-12.3,12.3A12.32,12.32,0,0,1,878,35.12Zm-32,66.77a32,32,0,1,1,52.7,24.38l-8.41,7.15v10.71H865.7V122l17.07-14.52a7.38,7.38,0,1,0-12.15-5.63V105H846Zm44.29,60.7a12.3,12.3,0,1,1-12.3-12.3A12.32,12.32,0,0,1,890.3,162.59ZM846,216.89a32,32,0,1,1,52.7,24.38l-8.41,7.15v10.71H865.7V237l17.07-14.52a7.38,7.38,0,1,0-12.15-5.63V220H846Zm44.29,60.7a12.3,12.3,0,1,1-12.3-12.3A12.32,12.32,0,0,1,890.3,277.59ZM846,331.8a32,32,0,1,1,52.7,24.39l-8.41,7.14v10.72H865.7V352l17.07-14.52a7.38,7.38,0,1,0-12.15-5.64v3.08H846Zm44.29,60.71A12.3,12.3,0,1,1,878,380.2,12.32,12.32,0,0,1,890.3,392.51ZM846,447a32,32,0,1,1,52.7,24.39l-8.41,7.14v10.72H865.7v-22.1l17.07-14.51A7.38,7.38,0,1,0,870.62,447v3.08H846Zm44.29,60.7a12.3,12.3,0,1,1-12.3-12.3A12.32,12.32,0,0,1,890.3,507.67ZM846,562a32,32,0,1,1,52.7,24.39l-8.41,7.14v10.72H865.7v-22.1l17.07-14.51A7.38,7.38,0,1,0,870.62,562v3.08H846Zm44.29,60.7a12.3,12.3,0,1,1-12.3-12.3A12.32,12.32,0,0,1,890.3,622.67ZM846,676.8a32,32,0,1,1,52.7,24.39l-8.41,7.14v10.72H865.7V697l17.07-14.52a7.38,7.38,0,1,0-12.15-5.64v3.08H846ZM782,38.68a32,32,0,1,1,52.7,24.38l-8.41,7.15V80.93H801.7V58.83l17.07-14.52a7.38,7.38,0,1,0-12.15-5.63v3.08H782Zm44.29,60.7A12.3,12.3,0,1,1,814,87.08,12.32,12.32,0,0,1,826.3,99.38ZM782,153.85a32,32,0,1,1,52.7,24.38l-8.41,7.15v10.71H801.7V174l17.07-14.52a7.38,7.38,0,1,0-12.15-5.63v3.07H782Zm44.29,60.7A12.3,12.3,0,1,1,814,202.24,12.32,12.32,0,0,1,826.3,214.55ZM782,268.85a32,32,0,1,1,52.7,24.38l-8.41,7.15v10.71H801.7V289l17.07-14.52a7.38,7.38,0,1,0-12.15-5.63v3.07H782Zm44.29,60.7A12.3,12.3,0,1,1,814,317.24,12.32,12.32,0,0,1,826.3,329.55ZM782,383.76a32,32,0,1,1,52.7,24.39l-8.41,7.14V426H801.7v-22.1l17.07-14.51a7.38,7.38,0,1,0-12.15-5.64v3.08H782Zm44.29,60.71A12.3,12.3,0,1,1,814,432.16,12.32,12.32,0,0,1,826.3,444.47ZM782,498.93a32,32,0,1,1,52.7,24.38l-8.41,7.15v10.72H801.7v-22.1l17.07-14.52a7.38,7.38,0,1,0-12.15-5.63V502H782Zm44.29,60.7a12.3,12.3,0,1,1-12.3-12.3A12.32,12.32,0,0,1,826.3,559.63ZM782,613.93a32,32,0,1,1,52.7,24.38l-8.41,7.15v10.72H801.7v-22.1l17.07-14.52a7.38,7.38,0,1,0-12.15-5.63V617H782Zm-96,73a12.31,12.31,0,1,1,12.3-12.31A12.32,12.32,0,0,1,686,686.94Zm64,62.87a12.31,12.31,0,1,1,12.3-12.3A12.32,12.32,0,0,1,750,749.81Zm0-714.69a12.31,12.31,0,1,1-12.3,12.3A12.32,12.32,0,0,1,750,35.12Zm-32,66.77a32,32,0,1,1,52.7,24.38l-8.41,7.15v10.71H737.7V122l17.07-14.52a7.38,7.38,0,1,0-12.15-5.63V105H718Zm44.29,60.7a12.3,12.3,0,1,1-12.3-12.3A12.32,12.32,0,0,1,762.3,162.59ZM718,216.89a32,32,0,1,1,52.7,24.38l-8.41,7.15v10.71H737.7V237l17.07-14.52a7.38,7.38,0,1,0-12.15-5.63V220H718Zm44.29,60.7a12.3,12.3,0,1,1-12.3-12.3A12.32,12.32,0,0,1,762.3,277.59ZM718,331.8a32,32,0,1,1,52.7,24.39l-8.41,7.14v10.72H737.7V352l17.07-14.52a7.38,7.38,0,1,0-12.15-5.64v3.08H718Zm44.29,60.71A12.3,12.3,0,1,1,750,380.2,12.32,12.32,0,0,1,762.3,392.51ZM718,447a32,32,0,1,1,52.7,24.39l-8.41,7.14v10.72H737.7v-22.1l17.07-14.51A7.38,7.38,0,1,0,742.62,447v3.08H718Zm44.29,60.7a12.3,12.3,0,1,1-12.3-12.3A12.32,12.32,0,0,1,762.3,507.67ZM718,562a32,32,0,1,1,52.7,24.39l-8.41,7.14v10.72H737.7v-22.1l17.07-14.51A7.38,7.38,0,1,0,742.62,562v3.08H718Zm44.29,60.7a12.3,12.3,0,1,1-12.3-12.3A12.32,12.32,0,0,1,762.3,622.67ZM718,676.8a32,32,0,1,1,52.7,24.39l-8.41,7.14v10.72H737.7V697l17.07-14.52a7.38,7.38,0,1,0-12.15-5.64v3.08H718ZM654,38.68a32,32,0,1,1,52.7,24.38l-8.41,7.15V80.93H673.7V58.83l17.07-14.52a7.38,7.38,0,1,0-12.15-5.63v3.08H654Zm44.29,60.7A12.3,12.3,0,1,1,686,87.08,12.32,12.32,0,0,1,698.3,99.38ZM654,153.85a32,32,0,1,1,52.7,24.38l-8.41,7.15v10.71H673.7V174l17.07-14.52a7.38,7.38,0,1,0-12.15-5.63v3.07H654Zm44.29,60.7A12.3,12.3,0,1,1,686,202.24,12.32,12.32,0,0,1,698.3,214.55ZM654,268.85a32,32,0,1,1,52.7,24.38l-8.41,7.15v10.71H673.7V289l17.07-14.52a7.38,7.38,0,1,0-12.15-5.63v3.07H654Zm44.29,60.7A12.3,12.3,0,1,1,686,317.24,12.32,12.32,0,0,1,698.3,329.55ZM654,383.76a32,32,0,1,1,52.7,24.39l-8.41,7.14V426H673.7v-22.1l17.07-14.51a7.38,7.38,0,1,0-12.15-5.64v3.08H654Zm44.29,60.71A12.3,12.3,0,1,1,686,432.16,12.32,12.32,0,0,1,698.3,444.47ZM654,498.93a32,32,0,1,1,52.7,24.38l-8.41,7.15v10.72H673.7v-22.1l17.07-14.52a7.38,7.38,0,1,0-12.15-5.63V502H654Zm44.29,60.7a12.3,12.3,0,1,1-12.3-12.3A12.32,12.32,0,0,1,698.3,559.63ZM654,613.93a32,32,0,1,1,52.7,24.38l-8.41,7.15v10.72H673.7v-22.1l17.07-14.52a7.38,7.38,0,1,0-12.15-5.63V617H654Zm-104,75a12.31,12.31,0,1,1,12.3-12.31A12.32,12.32,0,0,1,550,688.94Zm64,62.87a12.31,12.31,0,1,1,12.3-12.3A12.32,12.32,0,0,1,614,751.81Zm0-714.69a12.31,12.31,0,1,1-12.3,12.3A12.32,12.32,0,0,1,614,37.12Zm-32,66.77a32,32,0,1,1,52.7,24.38l-8.41,7.15v10.71H601.7V124l17.07-14.52a7.38,7.38,0,1,0-12.15-5.63V107H582Zm44.29,60.7a12.3,12.3,0,1,1-12.3-12.3A12.32,12.32,0,0,1,626.3,164.59ZM582,218.89a32,32,0,1,1,52.7,24.38l-8.41,7.15v10.71H601.7V239l17.07-14.52a7.38,7.38,0,1,0-12.15-5.63V222H582Zm44.29,60.7a12.3,12.3,0,1,1-12.3-12.3A12.32,12.32,0,0,1,626.3,279.59ZM582,333.8a32,32,0,1,1,52.7,24.39l-8.41,7.14v10.72H601.7V354l17.07-14.52a7.38,7.38,0,1,0-12.15-5.64v3.08H582Zm44.29,60.71A12.3,12.3,0,1,1,614,382.2,12.32,12.32,0,0,1,626.3,394.51ZM582,449a32,32,0,1,1,52.7,24.39l-8.41,7.14v10.72H601.7v-22.1l17.07-14.51A7.38,7.38,0,1,0,606.62,449v3.08H582Zm44.29,60.7a12.3,12.3,0,1,1-12.3-12.3A12.32,12.32,0,0,1,626.3,509.67ZM582,564a32,32,0,1,1,52.7,24.39l-8.41,7.14v10.72H601.7v-22.1l17.07-14.51A7.38,7.38,0,1,0,606.62,564v3.08H582Zm44.29,60.7a12.3,12.3,0,1,1-12.3-12.3A12.32,12.32,0,0,1,626.3,624.67ZM582,678.8a32,32,0,1,1,52.7,24.39l-8.41,7.14v10.72H601.7V699l17.07-14.52a7.38,7.38,0,1,0-12.15-5.64v3.08H582ZM518,40.68a32,32,0,1,1,52.7,24.38l-8.41,7.15V82.93H537.7V60.83l17.07-14.52a7.38,7.38,0,1,0-12.15-5.63v3.08H518Zm44.29,60.7A12.3,12.3,0,1,1,550,89.08,12.32,12.32,0,0,1,562.3,101.38ZM518,155.85a32,32,0,1,1,52.7,24.38l-8.41,7.15v10.71H537.7V176l17.07-14.52a7.38,7.38,0,1,0-12.15-5.63v3.07H518Zm44.29,60.7A12.3,12.3,0,1,1,550,204.24,12.32,12.32,0,0,1,562.3,216.55ZM518,270.85a32,32,0,1,1,52.7,24.38l-8.41,7.15v10.71H537.7V291l17.07-14.52a7.38,7.38,0,1,0-12.15-5.63v3.07H518Zm44.29,60.7A12.3,12.3,0,1,1,550,319.24,12.32,12.32,0,0,1,562.3,331.55ZM518,385.76a32,32,0,1,1,52.7,24.39l-8.41,7.14V428H537.7v-22.1l17.07-14.51a7.38,7.38,0,1,0-12.15-5.64v3.08H518Zm44.29,60.71A12.3,12.3,0,1,1,550,434.16,12.32,12.32,0,0,1,562.3,446.47ZM518,500.93a32,32,0,1,1,52.7,24.38l-8.41,7.15v10.72H537.7v-22.1l17.07-14.52a7.38,7.38,0,1,0-12.15-5.63V504H518Zm44.29,60.7a12.3,12.3,0,1,1-12.3-12.3A12.32,12.32,0,0,1,562.3,561.63ZM518,615.93a32,32,0,1,1,52.7,24.38l-8.41,7.15v10.72H537.7v-22.1l17.07-14.52a7.38,7.38,0,1,0-12.15-5.63V619H518Zm-96,71a12.31,12.31,0,1,1,12.3-12.31A12.32,12.32,0,0,1,422,686.94Zm64,62.87a12.31,12.31,0,1,1,12.3-12.3A12.32,12.32,0,0,1,486,749.81Zm0-714.69a12.31,12.31,0,1,1-12.3,12.3A12.32,12.32,0,0,1,486,35.12Zm-32,66.77a32,32,0,1,1,52.7,24.38l-8.41,7.15v10.71H473.7V122l17.07-14.52a7.38,7.38,0,1,0-12.15-5.63V105H454Zm44.29,60.7a12.3,12.3,0,1,1-12.3-12.3A12.32,12.32,0,0,1,498.3,162.59ZM454,216.89a32,32,0,1,1,52.7,24.38l-8.41,7.15v10.71H473.7V237l17.07-14.52a7.38,7.38,0,1,0-12.15-5.63V220H454Zm44.29,60.7a12.3,12.3,0,1,1-12.3-12.3A12.32,12.32,0,0,1,498.3,277.59ZM454,331.8a32,32,0,1,1,52.7,24.39l-8.41,7.14v10.72H473.7V352l17.07-14.52a7.38,7.38,0,1,0-12.15-5.64v3.08H454Zm44.29,60.71A12.3,12.3,0,1,1,486,380.2,12.32,12.32,0,0,1,498.3,392.51ZM454,447a32,32,0,1,1,52.7,24.39l-8.41,7.14v10.72H473.7v-22.1l17.07-14.51A7.38,7.38,0,1,0,478.62,447v3.08H454Zm44.29,60.7a12.3,12.3,0,1,1-12.3-12.3A12.32,12.32,0,0,1,498.3,507.67ZM454,562a32,32,0,1,1,52.7,24.39l-8.41,7.14v10.72H473.7v-22.1l17.07-14.51A7.38,7.38,0,1,0,478.62,562v3.08H454Zm44.29,60.7a12.3,12.3,0,1,1-12.3-12.3A12.32,12.32,0,0,1,498.3,622.67ZM454,676.8a32,32,0,1,1,52.7,24.39l-8.41,7.14v10.72H473.7V697l17.07-14.52a7.38,7.38,0,1,0-12.15-5.64v3.08H454ZM390,38.68a32,32,0,1,1,52.7,24.38l-8.41,7.15V80.93H409.7V58.83l17.07-14.52a7.38,7.38,0,1,0-12.15-5.63v3.08H390Zm44.29,60.7A12.3,12.3,0,1,1,422,87.08,12.32,12.32,0,0,1,434.3,99.38ZM390,153.85a32,32,0,1,1,52.7,24.38l-8.41,7.15v10.71H409.7V174l17.07-14.52a7.38,7.38,0,1,0-12.15-5.63v3.07H390Zm44.29,60.7A12.3,12.3,0,1,1,422,202.24,12.32,12.32,0,0,1,434.3,214.55ZM390,268.85a32,32,0,1,1,52.7,24.38l-8.41,7.15v10.71H409.7V289l17.07-14.52a7.38,7.38,0,1,0-12.15-5.63v3.07H390Zm44.29,60.7A12.3,12.3,0,1,1,422,317.24,12.32,12.32,0,0,1,434.3,329.55ZM390,383.76a32,32,0,1,1,52.7,24.39l-8.41,7.14V426H409.7v-22.1l17.07-14.51a7.38,7.38,0,1,0-12.15-5.64v3.08H390Zm44.29,60.71A12.3,12.3,0,1,1,422,432.16,12.32,12.32,0,0,1,434.3,444.47ZM390,498.93a32,32,0,1,1,52.7,24.38l-8.41,7.15v10.72H409.7v-22.1l17.07-14.52a7.38,7.38,0,1,0-12.15-5.63V502H390Zm44.29,60.7a12.3,12.3,0,1,1-12.3-12.3A12.32,12.32,0,0,1,434.3,559.63ZM390,613.93a32,32,0,1,1,52.7,24.38l-8.41,7.15v10.72H409.7v-22.1l17.07-14.52a7.38,7.38,0,1,0-12.15-5.63V617H390Zm-96,73a12.31,12.31,0,1,1,12.3-12.31A12.32,12.32,0,0,1,294,686.94Zm64,62.87a12.31,12.31,0,1,1,12.3-12.3A12.32,12.32,0,0,1,358,749.81Zm0-714.69a12.31,12.31,0,1,1-12.3,12.3A12.32,12.32,0,0,1,358,35.12Zm-32,66.77a32,32,0,1,1,52.7,24.38l-8.41,7.15v10.71H345.7V122l17.07-14.52a7.38,7.38,0,1,0-12.15-5.63V105H326Zm44.29,60.7a12.3,12.3,0,1,1-12.3-12.3A12.32,12.32,0,0,1,370.3,162.59ZM326,216.89a32,32,0,1,1,52.7,24.38l-8.41,7.15v10.71H345.7V237l17.07-14.52a7.38,7.38,0,1,0-12.15-5.63V220H326Zm44.29,60.7a12.3,12.3,0,1,1-12.3-12.3A12.32,12.32,0,0,1,370.3,277.59ZM326,331.8a32,32,0,1,1,52.7,24.39l-8.41,7.14v10.72H345.7V352l17.07-14.52a7.38,7.38,0,1,0-12.15-5.64v3.08H326Zm44.29,60.71A12.3,12.3,0,1,1,358,380.2,12.32,12.32,0,0,1,370.3,392.51ZM326,447a32,32,0,1,1,52.7,24.39l-8.41,7.14v10.72H345.7v-22.1l17.07-14.51A7.38,7.38,0,1,0,350.62,447v3.08H326Zm44.29,60.7a12.3,12.3,0,1,1-12.3-12.3A12.32,12.32,0,0,1,370.3,507.67ZM326,562a32,32,0,1,1,52.7,24.39l-8.41,7.14v10.72H345.7v-22.1l17.07-14.51A7.38,7.38,0,1,0,350.62,562v3.08H326Zm44.29,60.7a12.3,12.3,0,1,1-12.3-12.3A12.32,12.32,0,0,1,370.3,622.67ZM326,676.8a32,32,0,1,1,52.7,24.39l-8.41,7.14v10.72H345.7V697l17.07-14.52a7.38,7.38,0,1,0-12.15-5.64v3.08H326ZM262,38.68a32,32,0,1,1,52.7,24.38l-8.41,7.15V80.93H281.7V58.83l17.07-14.52a7.38,7.38,0,1,0-12.15-5.63v3.08H262Zm44.29,60.7A12.3,12.3,0,1,1,294,87.08,12.32,12.32,0,0,1,306.3,99.38ZM262,153.85a32,32,0,1,1,52.7,24.38l-8.41,7.15v10.71H281.7V174l17.07-14.52a7.38,7.38,0,1,0-12.15-5.63v3.07H262Zm44.29,60.7A12.3,12.3,0,1,1,294,202.24,12.32,12.32,0,0,1,306.3,214.55ZM262,268.85a32,32,0,1,1,52.7,24.38l-8.41,7.15v10.71H281.7V289l17.07-14.52a7.38,7.38,0,1,0-12.15-5.63v3.07H262Zm44.29,60.7A12.3,12.3,0,1,1,294,317.24,12.32,12.32,0,0,1,306.3,329.55ZM262,383.76a32,32,0,1,1,52.7,24.39l-8.41,7.14V426H281.7v-22.1l17.07-14.51a7.38,7.38,0,1,0-12.15-5.64v3.08H262Zm44.29,60.71A12.3,12.3,0,1,1,294,432.16,12.32,12.32,0,0,1,306.3,444.47ZM262,498.93a32,32,0,1,1,52.7,24.38l-8.41,7.15v10.72H281.7v-22.1l17.07-14.52a7.38,7.38,0,1,0-12.15-5.63V502H262Zm44.29,60.7a12.3,12.3,0,1,1-12.3-12.3A12.32,12.32,0,0,1,306.3,559.63ZM262,613.93a32,32,0,1,1,52.7,24.38l-8.41,7.15v10.72H281.7v-22.1l17.07-14.52a7.38,7.38,0,1,0-12.15-5.63V617H262ZM44,685.25A12.31,12.31,0,1,1,56.3,673,12.32,12.32,0,0,1,44,685.25Zm64,62.87a12.3,12.3,0,1,1,12.3-12.3A12.31,12.31,0,0,1,108,748.12Zm58-61.18a12.31,12.31,0,1,1,12.3-12.31A12.32,12.32,0,0,1,166,686.94Zm20.71-48.63-8.41,7.15v10.72H153.7v-22.1l17.07-14.52a7.38,7.38,0,1,0-12.15-5.63V617H134v-3.08a32,32,0,1,1,52.7,24.38Zm-33-78.68A12.3,12.3,0,1,1,166,571.94,12.32,12.32,0,0,1,153.7,559.63Zm33-36.32-8.41,7.15v10.72H153.7v-22.1l17.07-14.52a7.38,7.38,0,1,0-12.15-5.63V502H134v-3.08a32,32,0,1,1,52.7,24.38Zm-33-78.84a12.3,12.3,0,1,1,12.3,12.3A12.32,12.32,0,0,1,153.7,444.47Zm33-36.32-8.41,7.14V426H153.7v-22.1l17.07-14.51a7.38,7.38,0,1,0-12.15-5.64v3.08H134v-3.08a32,32,0,1,1,52.7,24.39Zm-33-78.6a12.3,12.3,0,1,1,12.3,12.3A12.32,12.32,0,0,1,153.7,329.55Zm33-36.32-8.41,7.15v10.71H153.7V289l17.07-14.52a7.38,7.38,0,1,0-12.15-5.63v3.07H134v-3.07a32,32,0,1,1,52.7,24.38Zm-33-78.68a12.3,12.3,0,1,1,12.3,12.3A12.32,12.32,0,0,1,153.7,214.55Zm33-36.32-8.41,7.15v10.71H153.7V174l17.07-14.52a7.38,7.38,0,1,0-12.15-5.63v3.07H134v-3.07a32,32,0,1,1,52.7,24.38Zm-33-78.85A12.3,12.3,0,1,1,166,111.69,12.32,12.32,0,0,1,153.7,99.38ZM230,749.81a12.31,12.31,0,1,1,12.3-12.3A12.32,12.32,0,0,1,230,749.81Zm0-714.69a12.31,12.31,0,1,1-12.3,12.3A12.32,12.32,0,0,1,230,35.12Zm-32,66.77a32,32,0,1,1,52.7,24.38l-8.41,7.15v10.71H217.7V122l17.07-14.52a7.38,7.38,0,1,0-12.15-5.63V105H198Zm44.29,60.7a12.3,12.3,0,1,1-12.3-12.3A12.32,12.32,0,0,1,242.3,162.59ZM198,216.89a32,32,0,1,1,52.7,24.38l-8.41,7.15v10.71H217.7V237l17.07-14.52a7.38,7.38,0,1,0-12.15-5.63V220H198Zm44.29,60.7a12.3,12.3,0,1,1-12.3-12.3A12.32,12.32,0,0,1,242.3,277.59ZM198,331.8a32,32,0,1,1,52.7,24.39l-8.41,7.14v10.72H217.7V352l17.07-14.52a7.38,7.38,0,1,0-12.15-5.64v3.08H198Zm44.29,60.71A12.3,12.3,0,1,1,230,380.2,12.32,12.32,0,0,1,242.3,392.51ZM198,447a32,32,0,1,1,52.7,24.39l-8.41,7.14v10.72H217.7v-22.1l17.07-14.51A7.38,7.38,0,1,0,222.62,447v3.08H198Zm44.29,60.7a12.3,12.3,0,1,1-12.3-12.3A12.32,12.32,0,0,1,242.3,507.67ZM198,562a32,32,0,1,1,52.7,24.39l-8.41,7.14v10.72H217.7v-22.1l17.07-14.51A7.38,7.38,0,1,0,222.62,562v3.08H198Zm44.29,60.7a12.3,12.3,0,1,1-12.3-12.3A12.32,12.32,0,0,1,242.3,622.67ZM198,676.8a32,32,0,1,1,52.7,24.39l-8.41,7.14v10.72H217.7V697l17.07-14.52a7.38,7.38,0,1,0-12.15-5.64v3.08H198ZM134,38.68a32,32,0,1,1,52.7,24.38l-8.41,7.15V80.93H153.7V58.83l17.07-14.52a7.38,7.38,0,1,0-12.15-5.63v3.08H134Zm-26-5.25A12.31,12.31,0,1,1,95.7,45.74,12.32,12.32,0,0,1,108,33.43ZM76,100.2a32,32,0,1,1,52.7,24.39l-8.41,7.14v10.72H95.7v-22.1l17.07-14.52a7.38,7.38,0,1,0-12.15-5.63v3.08H76Zm44.29,60.7A12.3,12.3,0,1,1,108,148.6,12.32,12.32,0,0,1,120.3,160.9ZM76,215.2a32,32,0,1,1,52.7,24.39l-8.41,7.14v10.72H95.7v-22.1l17.07-14.52a7.38,7.38,0,1,0-12.15-5.63v3.08H76Zm44.29,60.7A12.3,12.3,0,1,1,108,263.6,12.32,12.32,0,0,1,120.3,275.9ZM76,330.12a32,32,0,1,1,52.7,24.38l-8.41,7.15v10.71H95.7V350.27l17.07-14.52a7.38,7.38,0,1,0-12.15-5.63v3.07H76Zm44.29,60.7a12.3,12.3,0,1,1-12.3-12.3A12.31,12.31,0,0,1,120.3,390.82ZM76,445.28a32,32,0,1,1,52.7,24.39l-8.41,7.14v10.72H95.7v-22.1l17.07-14.51a7.38,7.38,0,1,0-12.15-5.64v3.08H76ZM120.3,506A12.3,12.3,0,1,1,108,493.68,12.32,12.32,0,0,1,120.3,506ZM76,560.28a32,32,0,1,1,52.7,24.39l-8.41,7.14v10.72H95.7v-22.1l17.07-14.51a7.38,7.38,0,1,0-12.15-5.64v3.08H76ZM120.3,621A12.3,12.3,0,1,1,108,608.68,12.32,12.32,0,0,1,120.3,621ZM76,675.12a32,32,0,1,1,52.7,24.38l-8.41,7.15v10.71H95.7V695.27l17.07-14.52a7.38,7.38,0,1,0-12.15-5.63v3.07H76ZM12,37a32,32,0,1,1,52.7,24.39L56.3,68.52V79.24H31.7V57.14L48.77,42.63A7.38,7.38,0,1,0,36.62,37v3.08H12ZM56.3,97.7A12.3,12.3,0,1,1,44,85.39,12.32,12.32,0,0,1,56.3,97.7ZM12,152.16a32,32,0,1,1,52.7,24.38l-8.41,7.15V194.4H31.7V172.31l17.07-14.52a7.38,7.38,0,1,0-12.15-5.63v3.07H12Zm44.29,60.7A12.3,12.3,0,1,1,44,200.56,12.32,12.32,0,0,1,56.3,212.86ZM12,267.16a32,32,0,1,1,52.7,24.38l-8.41,7.15V309.4H31.7V287.31l17.07-14.52a7.38,7.38,0,1,0-12.15-5.63v3.07H12Zm44.29,60.7A12.3,12.3,0,1,1,44,315.56,12.32,12.32,0,0,1,56.3,327.86ZM12,382.08a32,32,0,1,1,52.7,24.38L56.3,413.6v10.72H31.7V402.23l17.07-14.52a7.38,7.38,0,1,0-12.15-5.63v3.07H12Zm44.29,60.7A12.3,12.3,0,1,1,44,430.47,12.32,12.32,0,0,1,56.3,442.78ZM12,497.24a32,32,0,1,1,52.7,24.39l-8.41,7.14v10.72H31.7v-22.1l17.07-14.51a7.38,7.38,0,1,0-12.15-5.64v3.08H12ZM56.3,558A12.3,12.3,0,1,1,44,545.64,12.32,12.32,0,0,1,56.3,558ZM12,612.24a32,32,0,1,1,52.7,24.39l-8.41,7.14v10.72H31.7v-22.1l17.07-14.51a7.38,7.38,0,1,0-12.15-5.64v3.08H12Z"/><circle cx="166" cy="214.55" r="6.15"/><path d="M57.54,612.24a13.52,13.52,0,0,1-4.79,10.32l-14.9,12.68v13.1h12.3v-7.41l10.57-9a25.84,25.84,0,1,0-42.38-22.77H30.82a13.54,13.54,0,0,1,26.72,3.07Z"/><path d="M166,243a25.88,25.88,0,0,0-25.66,22.76h12.48a13.54,13.54,0,1,1,21.93,13.4l-14.9,12.67v13.1h12.3v-7.41l10.57-9A25.83,25.83,0,0,0,166,243Z"/><path d="M57.54,382.08a13.54,13.54,0,0,1-4.79,10.32l-14.9,12.67v13.1h12.3v-7.41l10.57-9A25.84,25.84,0,1,0,18.34,379H30.82a13.54,13.54,0,0,1,26.72,3.08Z"/><circle cx="44" cy="557.95" r="6.15"/><circle cx="44" cy="97.7" r="6.15"/><path d="M243.54,216.89a13.52,13.52,0,0,1-4.79,10.32l-14.9,12.67V253h12.3v-7.41l10.57-9a25.84,25.84,0,1,0-42.38-22.78h12.48a13.54,13.54,0,0,1,26.72,3.08Z"/><path d="M57.54,152.16a13.52,13.52,0,0,1-4.79,10.32l-14.9,12.67v13.1h12.3v-7.41l10.57-9a25.84,25.84,0,1,0-42.38-22.78H30.82a13.54,13.54,0,0,1,26.72,3.08Z"/><circle cx="230" cy="47.42" r="6.15"/><circle cx="230" cy="277.59" r="6.15"/><circle cx="44" cy="212.86" r="6.15"/><path d="M243.54,101.89a13.52,13.52,0,0,1-4.79,10.32l-14.9,12.67V138h12.3v-7.41l10.57-9a25.84,25.84,0,1,0-42.38-22.78h12.48a13.54,13.54,0,0,1,26.72,3.08Z"/><circle cx="44" cy="327.86" r="6.15"/><circle cx="230" cy="162.59" r="6.15"/><path d="M57.54,267.16a13.52,13.52,0,0,1-4.79,10.32l-14.9,12.67v13.1h12.3v-7.41l10.57-9a25.84,25.84,0,1,0-42.38-22.78H30.82a13.54,13.54,0,0,1,26.72,3.08Z"/><circle cx="108" cy="735.82" r="6.15"/><circle cx="422" cy="559.63" r="6.15"/><path d="M435.54,613.93a13.52,13.52,0,0,1-4.79,10.32l-14.9,12.67V650h12.3v-7.41l10.57-9a25.84,25.84,0,1,0-42.38-22.78h12.48a13.54,13.54,0,0,1,26.72,3.08Z"/><circle cx="294" cy="674.63" r="6.15"/><path d="M371.54,331.8a13.56,13.56,0,0,1-4.79,10.33l-14.9,12.67v13.1h12.3v-7.41l10.57-9a25.84,25.84,0,1,0-42.38-22.77h12.48a13.54,13.54,0,0,1,26.72,3.07Z"/><path d="M435.54,498.93a13.52,13.52,0,0,1-4.79,10.32l-14.9,12.67V535h12.3v-7.41l10.57-9a25.84,25.84,0,1,0-42.38-22.78h12.48a13.54,13.54,0,0,1,26.72,3.08Z"/><circle cx="358" cy="277.59" r="6.15"/><circle cx="358" cy="47.42" r="6.15"/><path d="M371.54,216.89a13.52,13.52,0,0,1-4.79,10.32l-14.9,12.67V253h12.3v-7.41l10.57-9a25.84,25.84,0,1,0-42.38-22.78h12.48a13.54,13.54,0,0,1,26.72,3.08Z"/><circle cx="358" cy="162.59" r="6.15"/><path d="M435.54,383.76a13.52,13.52,0,0,1-4.79,10.32l-14.9,12.68v13.1h12.3v-7.41l10.57-9a25.84,25.84,0,1,0-42.38-22.77h12.48a13.54,13.54,0,0,1,26.72,3.07Z"/><circle cx="358" cy="737.51" r="6.15"/><path d="M371.54,101.89a13.52,13.52,0,0,1-4.79,10.32l-14.9,12.67V138h12.3v-7.41l10.57-9a25.84,25.84,0,1,0-42.38-22.78h12.48a13.54,13.54,0,0,1,26.72,3.08Z"/><circle cx="422" cy="444.47" r="6.15"/><path d="M435.54,153.85a13.54,13.54,0,0,1-4.79,10.32l-14.9,12.67v13.1h12.3v-7.41l10.57-9a25.84,25.84,0,1,0-42.38-22.77h12.48a13.54,13.54,0,0,1,26.72,3.08Z"/><circle cx="422" cy="99.38" r="6.15"/><path d="M435.54,268.85a13.54,13.54,0,0,1-4.79,10.32l-14.9,12.67v13.1h12.3v-7.41l10.57-9a25.84,25.84,0,1,0-42.38-22.77h12.48a13.54,13.54,0,0,1,26.72,3.08Z"/><circle cx="422" cy="214.55" r="6.15"/><circle cx="358" cy="392.51" r="6.15"/><path d="M435.54,38.68A13.52,13.52,0,0,1,430.75,49l-14.9,12.67v13.1h12.3V67.36l10.57-9A25.84,25.84,0,1,0,396.34,35.6h12.48a13.54,13.54,0,0,1,26.72,3.08Z"/><path d="M499.54,676.8a13.56,13.56,0,0,1-4.79,10.33l-14.9,12.67v13.1h12.3v-7.41l10.57-9a25.84,25.84,0,1,0-42.38-22.77h12.48a13.54,13.54,0,0,1,26.72,3.07Z"/><circle cx="422" cy="329.55" r="6.15"/></svg>