<?xml version="1.0" encoding="iso-8859-1"?>
<!-- Generator: Adobe Illustrator 19.0.0, SVG Export Plug-In . SVG Version: 6.00 Build 0)  -->
<svg version="1.1" id="Capa_1" xmlns="http://www.w3.org/2000/svg" xmlns:xlink="http://www.w3.org/1999/xlink" x="0px" y="0px"
	 viewBox="0 0 477.592 477.592" style="enable-background:new 0 0 477.592 477.592;" xml:space="preserve">
<g>
	<g>
		<path d="M467.532,242.659c-8.399-10.181-20.924-16.054-34.122-15.999l0.32-0.56c-10.628-0.001-20.894,3.866-28.88,10.88
			c-27.116-12.867-58.469-13.392-86-1.44c-18.235-19.851-27.544-46.304-25.76-73.2c24.415-0.949,43.438-21.51,42.489-45.924
			s-21.51-43.438-45.924-42.489c-24.415,0.949-43.438,21.51-42.489,45.924c0.072,1.853,0.26,3.7,0.564,5.529
			c-35.398,18.941-60.569,52.609-68.72,91.92c-25.661-25.292-61.922-36.694-97.44-30.64c-12.654-20.746-39.73-27.305-60.476-14.651
			c-20.746,12.654-27.305,39.73-14.651,60.476c12.654,20.746,39.73,27.305,60.476,14.651c2.155-1.315,4.193-2.812,6.091-4.476
			c21.68,25.04,48,71.2,61.04,154.32c0.634,3.912,4.037,6.771,8,6.72h200.8c4.069,0.029,7.512-3,8-7.04c0-0.64,8-63.52,48.8-98
			c15.464,18.745,43.196,21.405,61.941,5.94S482.996,261.404,467.532,242.659z M43.97,237.299c-15.464,0-28-12.536-28-28
			c0-15.464,12.536-28,28-28s28,12.536,28,28C71.97,224.763,59.434,237.299,43.97,237.299z M291.33,90.499c15.464,0,28,12.536,28,28
			s-12.536,28-28,28c-15.464,0-28-12.536-28-28S275.866,90.499,291.33,90.499z M336.45,387.299H148.77c-1.44-8-2.96-16-4.64-23.6
			h198.08C339.857,371.454,337.934,379.333,336.45,387.299z M389.73,270.099c0.006,4.762,0.79,9.491,2.32,14
			c-20.027,17.154-35.269,39.203-44.24,64H140.37c-15.44-61.2-38.16-97.44-57.28-118.72c4.412-8.425,5.903-18.076,4.24-27.44
			c56.56-8.48,89.2,35.76,90.64,37.76c2.566,3.597,7.562,4.433,11.159,1.867c1.897-1.353,3.11-3.467,3.321-5.787
			c3.147-39.883,26.065-75.536,61.04-94.96c5.399,9.158,13.921,16.06,24,19.44c-2.64,60.56,33.36,89.76,35.04,90.96
			c2.284,1.764,5.341,2.162,8,1.04c23.146-11.422,50.103-12.268,73.92-2.32C391.284,256.184,389.665,263.098,389.73,270.099z
			 M433.73,298.099c-15.464,0-28-12.536-28-28c0-15.464,12.536-28,28-28c15.464,0,28,12.536,28,28
			C461.73,285.563,449.194,298.099,433.73,298.099z"/>
	</g>
</g>
<g>
</g>
<g>
</g>
<g>
</g>
<g>
</g>
<g>
</g>
<g>
</g>
<g>
</g>
<g>
</g>
<g>
</g>
<g>
</g>
<g>
</g>
<g>
</g>
<g>
</g>
<g>
</g>
<g>
</g>
</svg>
